<svg width="36" height="36" viewBox="0 0 36 36" fill="none" xmlns="http://www.w3.org/2000/svg"><path d="M1 18H8C10.8089 18 12.2134 18 13.2223 18.6741 13.659 18.966 14.034 19.341 14.3259 19.7777 15 20.7866 15 22.1911 15 25S15 29.2134 14.3259 30.2223C14.034 30.659 13.659 31.034 13.2223 31.3259 12.2134 32 10.8089 32 8 32 5.19108 32 3.78661 32 2.77772 31.3259 2.34096 31.034 1.96596 30.659 1.67412 30.2223 1 29.2134 1 27.8089 1 25V18z" fill="#2967c2"/><path d="M20 18h7C29.8089 18 31.2134 18 32.2223 18.6741 32.659 18.966 33.034 19.341 33.3259 19.7777 34 20.7866 34 22.1911 34 25S34 29.2134 33.3259 30.2223C33.034 30.659 32.659 31.034 32.2223 31.3259 31.2134 32 29.8089 32 27 32S22.7866 32 21.7777 31.3259C21.341 31.034 20.966 30.659 20.6741 30.2223 20 29.2134 20 27.8089 20 25V18z" fill="#2967c2"/><path fill-rule="evenodd" clip-rule="evenodd" d="M14 8C14 9.10457 13.091 9.97543 12.0208 10.2487 11.6527 10.3427 11.291 10.463 10.9385 10.609 9.96793 11.011 9.08601 11.6003 8.34315 12.3431 7.60028 13.086 7.011 13.9679 6.60896 14.9385 6.20693 15.9091 6 16.9494 6 18H1c0-1.7072.33625-3.3976.98957-4.9749.65331-1.5772 1.61088-3.0103 2.81804-4.21749 1.20716-1.20716 2.64027-2.16473 4.2175-2.81804.95959-.39748 1.96109-.67759 2.98279-.83603C13.0994 4.98428 14 5.89543 14 7V8z" fill="#2967c2"/><path fill-rule="evenodd" clip-rule="evenodd" d="M33 7.5c0 1.38071-1.1457 2.46297-2.4595 2.8875C30.3373 10.4531 30.1365 10.527 29.9385 10.609 28.9679 11.011 28.086 11.6003 27.3431 12.3431 26.6003 13.086 26.011 13.9679 25.609 14.9385 25.2069 15.9091 25 16.9494 25 18H20C20 16.2928 20.3363 14.6024 20.9896 13.0251 21.6429 11.4479 22.6004 10.0148 23.8076 8.80761c1.2072-1.20716 2.6403-2.16473 4.2175-2.81804C28.83 5.65618 29.6643 5.40535 30.5154 5.23965 31.8706 4.97576 33 6.11929 33 7.5z" fill="#2967c2"/></svg>