<svg width="83" height="39" viewBox="0 0 83 39" fill="none" xmlns="http://www.w3.org/2000/svg"><path d="M20.4334 38.4264C19.6062 38.4264 18.7973 38.3529 17.9885 38.1691L17.6943 38.1139V32.8196H18.136C18.5814 34.0846 19.8268 35.6874 21.2606 35.6874 21.5915 35.6874 21.8489 35.5771 22.0511 35.3565 22.86 34.5292 22.8232 32.3049 22.8048 31.11c0-.183799999999998.0-.3493.0-.496399999999998L22.8232 9.21582h6.0296V30.0621C28.8712 35.0623 25.4703 38.4264 20.4334 38.4264z" fill="#7a8aa2"/><path d="M46.1139 27.1393c-1.4155 1.8566-3.456 2.8126-6.0664 2.8126-5.0369.0-8.0333-2.684-8.0333-7.1694V9.21582h6.0296V23.0582c0 1.967 1.0478 4.0627 3.3457 4.0627C43.7793 27.1209 44.6433 24.3267 44.6433 22.4332V9.21582h6.0296V30.4298l-4.559-3.2905z" fill="#7a8aa2"/><path d="M76.9425 29.8416c-3.8972.0-6.048-2.4082-6.048-6.8017V11.6424H69.1665V9.21584h1.967l5.7539-7.00393V9.21584h3.8972V11.6424H76.8874c0 1.9854.0 3.9707.0183999999999998 5.9561C76.9058 19.7125 76.9241 21.8266 76.9241 23.9222c0 1.5075.294200000000004 3.2906 1.6729 3.2906 1.2133.0 2.599-1.7874 2.89150000000001-3.5295H82.053v4.1913C81.9243 28.2055 81.4096 28.5915 81.3728 28.6099 80.2147 29.4555 78.7992 29.8416 76.9425 29.8416z" fill="#7a8aa2"/><path d="M60.1957 29.8416c-2.353.0-5.3679-.6434-7.5187-1.5993L52.4748 28.1504 52.2358 22.4701 52.9344 23.3157C54.5889 25.3194 57.2544 27.4518 59.8096 27.4518c1.2501.0 2.5001-.6801 2.5001-2.1875.0-1.7648-1.8383-2.8126-3.9523-4.0443-2.6472-1.5258-5.662-3.2538-5.662-6.9304.0-4.35676 4.173-5.90093 8.0885-5.90093C62.9899 8.38867 65.1775 8.77471 66.9239 9.45489L67.1445 9.5468 67.3834 15.3007 66.6849 14.4918c-1.5626-1.8199-4.3016-3.7501-6.3422-3.7501-1.0294.0-2.114.6066-2.114 1.7648.0 1.4338 1.74639999999999 2.4817 3.7869 3.6766 2.7391 1.6177 6.1399 3.6214 6.1399 7.5554C68.1371 28.2607 63.8539 29.8416 60.1957 29.8416z" fill="#7a8aa2"/><path d="M25.7277 6.66091c-1.8567.0-3.3825-1.47065-3.3825-3.27218.0-1.78315 1.5074-3.23541 3.3825-3.23541s3.3825 1.45226 3.3825 3.23541-1.5442 3.27218-3.3825 3.27218z" fill="#7a8aa2"/><path d="M10.3773 8.40625C7.89555 8.40625 4.42117 8.93936 2.10491 10.4468L1.95784 10.5387l-.44119 5.7906.73532-.8272c1.93022-2.206 4.24648-4.559 7.22452-4.559 1.74641.0 3.58471 1.1214 3.58471 3.217.0 1.0846-.4596 1.8016-1.4707 2.2428C10.7633 16.7705 9.80739 16.9727 8.88824 17.1749 8.24483 17.322 7.56466 17.4507 6.92126 17.6529 5.11972 18.2228.946777 19.9875.946777 24.0502c0 3.6766 2.297873 5.7723 6.286993 5.7723 2.7023.0 5.01853-1.0111 6.85683-2.9781l5.1105 3.1067V15.2999C19.2195 10.796 16.1495 8.40625 10.3773 8.40625zM13.1347 24.6568C12.3259 25.4289 10.9655 26.2562 9.62356 26.2562c-1.56256.0-2.26111-1.3972-2.26111-2.7024.0-3.0148 2.86775-4.7612 5.82745-4.9817l.0183 6.0296C13.1715 24.6201 13.1531 24.6568 13.1347 24.6568z" fill="#7a8aa2"/></svg>