<svg width="120" height="102" viewBox="0 0 120 102" fill="none" xmlns="http://www.w3.org/2000/svg"><path d="M17.3982 37.0237C10.9887 53.721 7.78398 62.0696 10.6847 69.3402 10.8787 69.8266 11.0918 70.3052 11.3234 70.7748c3.4622 7.0206 11.8108 10.2253 28.5081 16.6348C56.5288 93.8191 64.8775 97.0239 72.148 94.1232 72.6344 93.9292 73.113 93.7161 73.5827 93.4845c7.0206-3.4622 10.2253-11.8108 16.6348-28.5081C96.627 48.279 99.8317 39.9304 96.9311 32.6598 96.737 32.1734 96.5239 31.6949 96.2923 31.2252 92.8302 24.2046 84.4815 20.9999 67.7842 14.5904 51.0869 8.18087 42.7383 4.97613 35.4677 7.8768 34.9813 8.07084 34.5027 8.28392 34.0331 8.51553 27.0125 11.9777 23.8077 20.3263 17.3982 37.0237z" fill="#eaf0f9"/><path d="M22 81C22 78.7909 23.7909 77 26 77H54C56.2091 77 58 78.7909 58 81v5H22V81z" fill="#94b7eb"/><path d="M20 87C20 86.4477 20.4477 86 21 86H59C59.5523 86 60 86.4477 60 87v1C60 88.5523 59.5523 89 59 89H21C20.4477 89 20 88.5523 20 88V87z" fill="#447fd5"/><path d="M58.3228 43.636 69.6365 32.3223l9.8995 9.8995c1.5621 1.5621 1.5621 4.0947.0 5.6568L73.8791 53.5355C72.317 55.0976 69.7843 55.0976 68.2222 53.5355L58.3228 43.636z" fill="#2967c2"/><path d="M72.6065 53.3941l6.7882-6.7883L101.317 67.1142C103.713 69.3556 103.776 73.1359 101.456 75.4558 99.1365 77.7757 95.3562 77.7127 93.1149 75.3168L72.6065 53.3941z" fill="#2967c2"/><path d="M41.3521 37.9791 63.9795 15.3517 85.1927 36.5649 62.5653 59.1923 41.3521 37.9791z" fill="#447fd5"/><path d="M37.1093 46.4644C35.7915 45.1466 35.1325 44.4876 34.828 43.7525 34.4221 42.7724 34.4221 41.6712 34.828 40.6911 35.1325 39.956 35.7915 39.297 37.1093 37.9792 37.7683 37.3202 38.0978 36.9907 38.4653 36.8385 38.9553 36.6355 39.506 36.6355 39.996 36.8385 40.3636 36.9907 40.693 37.3202 41.352 37.9792L62.5652 59.1924C63.2241 59.8513 63.5536 60.1808 63.7058 60.5483 63.9088 61.0384 63.9088 61.589 63.7058 62.079 63.5536 62.4466 63.2241 62.7761 62.5652 63.435 61.2473 64.7529 60.5884 65.4118 59.8533 65.7163 58.8732 66.1223 57.7719 66.1223 56.7918 65.7163 56.0567 65.4118 55.3978 64.7529 54.0799 63.435L37.1093 46.4644z" fill="#94b7eb"/><path d="M63.9797 15.3517C63.3208 14.6928 62.9913 14.3633 62.8391 13.9958 62.6361 13.5057 62.6361 12.9551 62.8391 12.465 62.9913 12.0975 63.3208 11.768 63.9797 11.1091 65.2976 9.79121 65.9565 9.13226 66.6916 8.82778 67.6717 8.42181 68.773 8.42181 69.7531 8.82778 70.4882 9.13226 71.1471 9.79121 72.465 11.1091L89.4356 28.0796C90.7534 29.3975 91.4124 30.0565 91.7169 30.7916 92.1228 31.7717 92.1228 32.8729 91.7169 33.853 91.4124 34.5881 90.7534 35.247 89.4356 36.5649 88.7766 37.2239 88.4471 37.5533 88.0796 37.7056 87.5896 37.9086 87.0389 37.9086 86.5489 37.7056 86.1813 37.5533 85.8519 37.2239 85.1929 36.5649L63.9797 15.3517z" fill="#94b7eb"/><path d="M46.3018 37.272C45.9685 36.9387 45.8018 36.772 45.8018 36.5649 45.8018 36.3578 45.9685 36.1912 46.3018 35.8578 46.6352 35.5245 46.8018 35.3578 47.0089 35.3578 47.216 35.3578 47.3827 35.5245 47.716 35.8578L64.6866 52.8284C65.0199 53.1617 65.1866 53.3284 65.1866 53.5355 65.1866 53.7426 65.0199 53.9093 64.6866 54.2426 64.3533 54.5759 64.1866 54.7426 63.9795 54.7426 63.7724 54.7426 63.6057 54.5759 63.2724 54.2426L46.3018 37.272z" fill="#fff"/><path d="M61.8585 21.7157C61.5251 21.3824 61.3585 21.2157 61.3585 21.0086 61.3585 20.8015 61.5251 20.6348 61.8585 20.3015 62.1918 19.9682 62.3585 19.8015 62.5656 19.8015 62.7727 19.8015 62.9394 19.9682 63.2727 20.3015L80.2432 37.2721C80.5766 37.6054 80.7433 37.7721 80.7433 37.9792 80.7432 38.1863 80.5766 38.3529 80.2432 38.6863 79.9099 39.0196 79.7432 39.1863 79.5361 39.1863 79.329 39.1863 79.1624 39.0196 78.829 38.6863L61.8585 21.7157z" fill="#fff"/></svg>