<svg width="98" height="72" viewBox="0 0 98 72" fill="none" xmlns="http://www.w3.org/2000/svg"><rect width="54" height="54" rx="12" transform="matrix(0.984808 0.173648 0.173648 -0.984808 17.7217 57.9013)" fill="#eaf0f9"/><rect x="31" y="25" width="36" height="43" fill="#94b7eb"/><path d="M67 47h5C75.7712 47 77.6569 47 78.8284 48.1716 80 49.3431 80 51.2288 80 55V68H67V47z" fill="#2967c2"/><path d="M31 47H26c-3.7712.0-5.6569.0-6.8284 1.1716C18 49.3431 18 51.2288 18 55V68H31V47z" fill="#2967c2"/><path d="M66 25H32C30.1144 25 29.1716 25 28.5858 24.4142 28 23.8284 28 22.8856 28 21H70C70 22.8856 70 23.8284 69.4142 24.4142 68.8284 25 67.8856 25 66 25z" fill="#447fd5"/><path fill-rule="evenodd" clip-rule="evenodd" d="M52 36C52 35.0572 52 34.5858 51.7071 34.2929 51.4142 34 50.9428 34 50 34H48C47.0572 34 46.5858 34 46.2929 34.2929 46 34.5858 46 35.0572 46 36S46 37.4142 45.7071 37.7071C45.4142 38 44.9428 38 44 38S42.5858 38 42.2929 38.2929C42 38.5858 42 39.0572 42 40v2C42 42.9428 42 43.4142 42.2929 43.7071 42.5858 44 43.0572 44 44 44S45.4142 44 45.7071 44.2929C46 44.5858 46 45.0572 46 46S46 47.4142 46.2929 47.7071C46.5858 48 47.0572 48 48 48h2C50.9428 48 51.4142 48 51.7071 47.7071 52 47.4142 52 46.9428 52 46S52 44.5858 52.2929 44.2929C52.5858 44 53.0572 44 54 44S55.4142 44 55.7071 43.7071C56 43.4142 56 42.9428 56 42V40C56 39.0572 56 38.5858 55.7071 38.2929 55.4142 38 54.9428 38 54 38S52.5858 38 52.2929 37.7071C52 37.4142 52 36.9428 52 36z" fill="#fff"/><rect x="41" y="57" width="16" height="2" rx=".5" fill="#447fd5"/><rect x="22" y="52" width="5" height="2" rx=".5" fill="#fff"/><rect x="71" y="52" width="5" height="2" rx=".5" fill="#fff"/><rect x="41" y="62" width="16" height="2" rx=".5" fill="#447fd5"/><rect x="14" y="68" width="71" height="2" rx=".5" fill="#447fd5"/><rect x="22" y="57" width="5" height="2" rx=".5" fill="#fff"/><rect x="71" y="57" width="5" height="2" rx=".5" fill="#fff"/><rect x="22" y="62" width="5" height="2" rx=".5" fill="#fff"/><rect x="71" y="62" width="5" height="2" rx=".5" fill="#fff"/></svg>