<svg width="98" height="72" viewBox="0 0 98 72" fill="none" xmlns="http://www.w3.org/2000/svg"><rect width="54" height="54" rx="12" transform="matrix(0.984808 0.173648 0.173648 -0.984808 17.7217 57.9013)" fill="#eaf0f9"/><rect x="31" y="6" width="34" height="17" rx="4" fill="#447fd5"/><path d="M28 21c0-2.2091 1.7909-4 4-4H65C67.2091 17 69 18.7909 69 21V60C69 62.2091 67.2091 64 65 64H32c-2.2091.0-4-1.7909-4-4V21z" fill="#94b7eb"/><rect x="34" y="9" width="3" height="5" rx="1" fill="#2967c2"/><rect x="44" y="9" width="3" height="5" rx="1" fill="#2967c2"/><rect x="39" y="9" width="3" height="5" rx="1" fill="#2967c2"/><rect x="49" y="9" width="3" height="5" rx="1" fill="#2967c2"/><rect x="54" y="9" width="3" height="5" rx="1" fill="#2967c2"/><rect x="59" y="9" width="3" height="5" rx="1" fill="#2967c2"/><rect x="28" y="28" width="41" height="24" fill="#447fd5"/><path fill-rule="evenodd" clip-rule="evenodd" d="M51.8 33.5c0-.2761-.2239-.5-.5-.5H46.7c-.2761.0-.5.2239-.5.5v3.2c0 .2761-.2239.5-.5.5H42.5c-.2761.0-.5.2239-.5.5V42.3c0 .2761.2239.5.5.5h3.2c.2761.0.5.2239.5.5v3.2c0 .2761.2239.5.5.5H51.3c.2761.0.5-.2239.5-.5V43.3c0-.2761.2239-.5.5-.5h3.2c.2761.0.5-.2239.5-.5V37.7c0-.2761-.2239-.5-.5-.5H52.3c-.2761.0-.5-.2239-.5-.5V33.5z" fill="#fff"/><rect x="46" y="55" width="36" height="12" rx="6" fill="#447fd5"/><path d="M64 55H76c3.3137.0 6 2.6863 6 6s-2.6863 6-6 6H64V55z" fill="#94b7eb"/></svg>