<svg width="98" height="72" viewBox="0 0 98 72" fill="none" xmlns="http://www.w3.org/2000/svg"><rect width="54" height="54" rx="12" transform="matrix(0.984808 0.173648 0.173648 -0.984808 17.7217 57.9013)" fill="#d6f8f3"/><path d="M72 29.152C75.4641 28.1738 78.9282 32.0869 72 36V29.152z" fill="#00cab2"/><path d="M27 29.152C23.5359 28.1738 20.0718 32.0869 27 36V29.152z" fill="#00cab2"/><path d="M61 66.0585C56.9412 71.0851 41.1569 68.5718 38 66.5611V60.0266 55l4.5098 3.0159L49.2745 60.5292 54.6863 59.0213 61 55V66.0585z" fill="#5ee1d2"/><ellipse cx="49.5" cy="32.5" rx="23.5" ry="29.5" fill="#5ee1d2"/><path fill-rule="evenodd" clip-rule="evenodd" d="M26.522 26.289c5.8177-1.3013 17.6981-5.5089 25.9782-13.789C53.4737 15.4205 58.8067 22.0371 72.3741 25.7071 69.9302 12.6892 60.6166 3 49.5002 3 38.2188 3 28.7941 12.979 26.522 26.289z" fill="#00cab2"/><path fill-rule="evenodd" clip-rule="evenodd" d="M26.522 26.289c5.8177-1.3013 17.6981-5.5089 25.9782-13.789C53.4737 15.4205 58.8067 22.0371 72.3741 25.7071 69.9302 12.6892 60.6166 3 49.5002 3 38.2188 3 28.7941 12.979 26.522 26.289z" fill="#00cab2"/><path fill-rule="evenodd" clip-rule="evenodd" d="M70.942 20.4089C71.5714 22.165 72.0679 24.0124 72.4155 25.9309 59.3694 24.2963 54.9638 17.4271 52.5002 12.5c1.7926 2.5095 12.0195 6.0098 18.4418 7.9089zM27.5021 22.1006c8.9496-1.9971 20.1973-7.1227 24.9981-9.6006-4.2856 7.4025-14.4534 12.2436-26.0676 14.3382C26.6852 25.207 27.0449 23.6238 27.5021 22.1006z" fill="#00ac98"/><path d="M56 30c1.0208 1.5092 3.85 3.6222 7 0" stroke="#00ac98" stroke-width="2" stroke-linecap="round"/><path d="M36 30c1.0208 1.5092 3.85 3.6222 7 0" stroke="#00ac98" stroke-width="2" stroke-linecap="round"/><path d="M46.076 39.8388C45.0978 38.7204 53.9024 38.7204 52.9239 39.8388c-2.521 2.8814-4.3271 2.8818-6.8479.0z" fill="#00cab2"/><path d="M54.295 49.7018C51.3901 52.6067 46.6802 52.6067 43.7753 49.7018" stroke="#00ac98" stroke-width="2" stroke-linecap="round"/></svg>