<svg width="98" height="72" viewBox="0 0 98 72" fill="none" xmlns="http://www.w3.org/2000/svg"><g clip-path="url(#clip0)"><rect width="54" height="54" rx="12" transform="matrix(0.984808 0.173648 0.173648 -0.984808 17.7217 57.9013)" fill="#eaf0f9"/><rect x="28.5264" y="48.0768" width="46" height="12" transform="rotate(-45 28.5264 48.0768)" fill="#2967c2"/><rect x="38.3931" y="42.364" width="2" height="6" rx=".5" transform="rotate(-45 38.3931 42.364)" fill="#fff"/><rect x="41.9287" y="38.8284" width="2" height="6" rx=".5" transform="rotate(-45 41.9287 38.8284)" fill="#fff"/><rect x="45.4644" y="35.2929" width="2" height="6" rx=".5" transform="rotate(-45 45.4644 35.2929)" fill="#fff"/><rect x="56.7778" y="14.0797" width="14" height="20" rx="4" transform="rotate(-45 56.7778 14.0797)" fill="#447fd4"/><rect x="17.1802" y="53.6777" width="14" height="20" rx="4" transform="rotate(-45 17.1802 53.6777)" fill="#447fd4"/><rect x="46.8784" y="12.6655" width="14" height="36" rx="4" transform="rotate(-45 46.8784 12.6655)" fill="#94b7eb"/><rect x="15.7656" y="43.7782" width="14" height="36" rx="4" transform="rotate(-45 15.7656 43.7782)" fill="#94b7eb"/></g><defs><clipPath id="clip0"><rect width="98" height="72" fill="#fff"/></clipPath></defs></svg>