<svg width="108" height="102" viewBox="0 0 108 102" fill="none" xmlns="http://www.w3.org/2000/svg"><path d="M17.3982 37.0237C10.9887 53.721 7.78398 62.0696 10.6847 69.3402 10.8787 69.8266 11.0918 70.3052 11.3234 70.7748c3.4622 7.0206 11.8108 10.2253 28.5081 16.6348C56.5288 93.8191 64.8775 97.0239 72.148 94.1232 72.6344 93.9292 73.113 93.7161 73.5827 93.4845c7.0206-3.4622 10.2253-11.8108 16.6348-28.5081C96.627 48.279 99.8317 39.9304 96.9311 32.6598 96.737 32.1734 96.5239 31.6949 96.2923 31.2252 92.8302 24.2046 84.4815 20.9999 67.7842 14.5904 51.0869 8.18087 42.7383 4.97613 35.4677 7.8768 34.9813 8.07084 34.5027 8.28392 34.0331 8.51553 27.0125 11.9777 23.8077 20.3263 17.3982 37.0237z" fill="#eaf0f9"/><path d="M29 25c0-4.714.0-7.0711 1.4645-8.5355C31.9289 15 34.286 15 39 15H68c4.714.0 7.0711.0 8.5355 1.4645C78 17.9289 78 20.286 78 25V75c0 4.714.0 7.0711-1.4645 8.5355C75.0711 85 72.714 85 68 85H39c-4.714.0-7.0711.0-8.5355-1.4645C29 82.0711 29 79.714 29 75V25z" fill="#94b7eb"/><path d="M37 26C37 25.0572 37 24.5858 37.2929 24.2929 37.5858 24 38.0572 24 39 24H60C60.9428 24 61.4142 24 61.7071 24.2929 62 24.5858 62 25.0572 62 26S62 27.4142 61.7071 27.7071C61.4142 28 60.9428 28 60 28H39C38.0572 28 37.5858 28 37.2929 27.7071 37 27.4142 37 26.9428 37 26z" fill="#447fd5"/><path d="M66 26C66 25.0572 66 24.5858 66.2929 24.2929S67.0572 24 68 24 69.4142 24 69.7071 24.2929 70 25.0572 70 26 70 27.4142 69.7071 27.7071 68.9428 28 68 28 66.5858 28 66.2929 27.7071 66 26.9428 66 26z" fill="#447fd5"/><path d="M37 36.5c0-.2761.2239-.5.5-.5h24c.2761.0.5.2239.5.5v1c0 .2761-.2239.5-.5.5h-24c-.2761.0-.5-.2239-.5-.5v-1z" fill="#fff"/><path d="M37 41.5c0-.2761.2239-.5.5-.5h18c.2761.0.5.2239.5.5v1c0 .2761-.2239.5-.5.5h-18c-.2761.0-.5-.2239-.5-.5v-1z" fill="#fff"/><path d="M37 46.5c0-.2761.2239-.5.5-.5h30c.2761.0.5.2239.5.5v1c0 .2761-.2239.5-.5.5h-30c-.2761.0-.5-.2239-.5-.5v-1z" fill="#fff"/><path d="M37 51.5c0-.2761.2239-.5.5-.5h26c.2761.0.5.2239.5.5v1c0 .2761-.2239.5-.5.5h-26c-.2761.0-.5-.2239-.5-.5v-1z" fill="#fff"/><path d="M37 56.5c0-.2761.2239-.5.5-.5h32c.2761.0.5.2239.5.5v1c0 .2761-.2239.5-.5.5h-32c-.2761.0-.5-.2239-.5-.5v-1z" fill="#fff"/><path d="M37 61.5c0-.2761.2239-.5.5-.5h9c.2761.0.5.2239.5.5v1c0 .2761-.2239.5-.5.5h-9c-.2761.0-.5-.2239-.5-.5v-1z" fill="#fff"/><path d="M74.5524 62.9447C73.7713 62.1636 73.7713 60.8973 74.5524 60.1162L75.1161 59.5526C75.8971 58.7715 77.1634 58.7715 77.9445 59.5526l14.694 14.694C93.4196 75.0277 93.4196 76.294 92.6385 77.0751L92.0749 77.6387C91.2938 78.4198 90.0275 78.4198 89.2465 77.6387L74.5524 62.9447z" fill="#447fd5"/><path fill-rule="evenodd" clip-rule="evenodd" d="M67 67c8.2843.0 15-6.7157 15-15S75.2843 37 67 37 52 43.7157 52 52s6.7157 15 15 15zm0-4C73.0751 63 78 58.0751 78 52S73.0751 41 67 41c-6.0751.0-11 4.9249-11 11s4.9249 11 11 11z" fill="#447fd5"/><path opacity=".4" d="M78 52C78 58.0751 73.0751 63 67 63c-6.0751.0-11-4.9249-11-11s4.9249-11 11-11C73.0751 41 78 45.9249 78 52z" fill="#2967c2"/><path fill-rule="evenodd" clip-rule="evenodd" d="M59.9797 73C58.8364 73 58 73.867 58 74.8277 58 75.7884 58.8364 76.6554 59.9797 76.6554 61.1371 76.6554 61.7508 76.3367 62.2739 76.0038 62.3418 75.9606 62.4154 75.9108 62.495 75.857 62.9865 75.5243 63.7026 75.0396 64.6622 75.0396 65.5437 75.0396 66.5495 75.6396 66.9612 76.6554H70.196c.552300000000003.0 1 .447800000000001 1 1 0 .552300000000003-.447699999999998 1-1 1H66.1521C65.8869 78.6554 65.6325 78.5501 65.445 78.3625 65.2574 78.175 65.1521 77.9207 65.1521 77.6554 65.1521 77.4509 65.0717 77.3019 64.9582 77.1942 64.8248 77.0675 64.6908 77.0396 64.6622 77.0396 64.3527 77.0396 64.1916 77.1443 63.7047 77.4609 63.6017 77.5279 63.4842 77.6043 63.3476 77.6912 62.6009 78.1663 61.6183 78.6554 59.9797 78.6554 57.8318 78.6554 56 76.9904 56 74.8277 56 72.665 57.8318 71 59.9797 71 61.1845 71 62.2761 71.5168 63.011 72.3471 63.3771 72.7606 63.3387 73.3926 62.9251 73.7587 62.5116 74.1247 61.8796 74.0863 61.5135 73.6727 61.1553 73.2681 60.6075 73 59.9797 73z" fill="#447fd5"/></svg>