<svg width="108" height="102" viewBox="0 0 108 102" fill="none" xmlns="http://www.w3.org/2000/svg"><path d="M17.3982 37.0237C10.9887 53.721 7.78398 62.0696 10.6847 69.3402 10.8787 69.8266 11.0918 70.3052 11.3234 70.7748c3.4622 7.0206 11.8108 10.2253 28.5081 16.6348C56.5288 93.8191 64.8775 97.0239 72.148 94.1232 72.6344 93.9292 73.113 93.7161 73.5827 93.4845c7.0206-3.4622 10.2253-11.8108 16.6348-28.5081C96.627 48.279 99.8317 39.9304 96.9311 32.6598 96.737 32.1734 96.5239 31.6949 96.2923 31.2252 92.8302 24.2046 84.4815 20.9999 67.7842 14.5904 51.0869 8.18087 42.7383 4.97613 35.4677 7.8768 34.9813 8.07084 34.5027 8.28392 34.0331 8.51553 27.0125 11.9777 23.8077 20.3263 17.3982 37.0237z" fill="#eaf0f9"/><path d="M30 25c0-4.714.0-7.0711 1.4645-8.5355C32.9289 15 35.286 15 40 15H69c4.714.0 7.0711.0 8.5355 1.4645C79 17.9289 79 20.286 79 25V76c0 4.714.0 7.0711-1.4645 8.5355C76.0711 86 73.714 86 69 86H40c-4.714.0-7.0711.0-8.5355-1.4645C30 83.0711 30 80.714 30 76V25z" fill="#94b7eb"/><path d="M38 26C38 25.0572 38 24.5858 38.2929 24.2929 38.5858 24 39.0572 24 40 24H61C61.9428 24 62.4142 24 62.7071 24.2929 63 24.5858 63 25.0572 63 26S63 27.4142 62.7071 27.7071C62.4142 28 61.9428 28 61 28H40C39.0572 28 38.5858 28 38.2929 27.7071 38 27.4142 38 26.9428 38 26z" fill="#447fd5"/><path d="M67 26C67 25.0572 67 24.5858 67.2929 24.2929S68.0572 24 69 24 70.4142 24 70.7071 24.2929 71 25.0572 71 26 71 27.4142 70.7071 27.7071 69.9428 28 69 28 67.5858 28 67.2929 27.7071 67 26.9428 67 26z" fill="#447fd5"/><path d="M38 34.5c0-.2761.2239-.5.5-.5h24c.2761.0.5.2239.5.5v1c0 .2761-.2239.5-.5.5h-24c-.2761.0-.5-.2239-.5-.5v-1z" fill="#fff"/><path d="M38 39.5c0-.2761.2239-.5.5-.5h18c.2761.0.5.2239.5.5v1c0 .2761-.2239.5-.5.5h-18c-.2761.0-.5-.2239-.5-.5v-1z" fill="#fff"/><path d="M38 44.5c0-.2761.2239-.5.5-.5h30c.2761.0.5.2239.5.5v1c0 .2761-.2239.5-.5.5h-30c-.2761.0-.5-.2239-.5-.5v-1z" fill="#fff"/><path d="M40 60C40 57.1716 40 55.7574 40.8787 54.8787 41.7574 54 43.1716 54 46 54H84C86.8284 54 88.2426 54 89.1213 54.8787 90 55.7574 90 57.1716 90 60v9C90 71.8284 90 73.2426 89.1213 74.1213 88.2426 75 86.8284 75 84 75H46C43.1716 75 41.7574 75 40.8787 74.1213 40 73.2426 40 71.8284 40 69V60z" fill="#2967c2"/><path d="M52.4561 67h1.631C54.1641 67 54.4581 67 54.6891 66.972 55.9071 66.825 56.5861 65.761 56.5861 64.48 56.5861 63.199 55.9071 62.135 54.6891 61.988 54.4581 61.96 54.1641 61.96 54.0871 61.96h-1.631V67zM53.4221 66.104V62.856H54.0871C54.2131 62.856 54.4581 62.856 54.6331 62.891 55.2701 63.017 55.5781 63.724 55.5781 64.48 55.5781 65.201 55.2911 65.936 54.6331 66.069 54.4581 66.104 54.2131 66.104 54.0871 66.104H53.4221z" fill="#fff"/><path d="M57.5658 67h3.29V66.111h-2.338V64.816h1.918V63.927h-1.918V62.849h2.338V61.96h-3.29V67z" fill="#fff"/><path d="M61.8347 67H62.8007V63.64L64.9917 67H65.9577V61.96H64.9917V65.32L62.8007 61.96H61.8347V67z" fill="#fff"/><path d="M67.1443 67H68.0963V61.96H67.1443V67z" fill="#fff"/><path d="M69.2856 67H72.5756V66.111H70.2376V64.816H72.1556V63.927H70.2376V62.849H72.5756V61.96H69.2856V67z" fill="#fff"/><path d="M73.5545 67h1.631C75.2625 67 75.5565 67 75.7875 66.972 77.0055 66.825 77.6845 65.761 77.6845 64.48 77.6845 63.199 77.0055 62.135 75.7875 61.988 75.5565 61.96 75.2625 61.96 75.1855 61.96h-1.631V67zM74.5205 66.104V62.856H75.1855C75.3115 62.856 75.5565 62.856 75.7315 62.891 76.3685 63.017 76.6765 63.724 76.6765 64.48 76.6765 65.201 76.3895 65.936 75.7315 66.069 75.5565 66.104 75.3115 66.104 75.1855 66.104H74.5205z" fill="#fff"/><mask id="mask0" mask-type="alpha" maskUnits="userSpaceOnUse" x="40" y="54" width="30" height="21"><path d="M40 54H70L60 75H40V54z" fill="#d6f8f3"/></mask><g mask="url(#mask0)"><path d="M40 60C40 57.1716 40 55.7574 40.8787 54.8787 41.7574 54 43.1716 54 46 54H84C86.8284 54 88.2426 54 89.1213 54.8787 90 55.7574 90 57.1716 90 60v9C90 71.8284 90 73.2426 89.1213 74.1213 88.2426 75 86.8284 75 84 75H46C43.1716 75 41.7574 75 40.8787 74.1213 40 73.2426 40 71.8284 40 69V60z" fill="#447fd5"/><path d="M49.6011 67H50.5811l-1.54-5.04h-1.421L46.0801 67H47.0601L47.3821 65.95h1.897L49.6011 67zM47.6481 65.061 48.3201 62.849 49.0061 65.061h-1.358z" fill="#fff"/><path d="M53.3747 67.105c1.155.0 1.96700000000001-.616 2.289-1.596L54.7047 65.243C54.5157 65.852 54.0747 66.209 53.3747 66.209 52.4157 66.209 51.9327 65.53 51.9327 64.48 51.9327 63.43 52.4157 62.751 53.3747 62.751 54.0747 62.751 54.5157 63.108 54.7047 63.717L55.6637 63.451C55.3417 62.471 54.5297 61.855 53.3747 61.855 51.8627 61.855 50.9317 62.912 50.9317 64.48S51.8627 67.105 53.3747 67.105z" fill="#fff"/><path d="M58.7373 67.105c1.155.0 1.96700000000001-.616 2.289-1.596L60.0673 65.243C59.8783 65.852 59.4373 66.209 58.7373 66.209 57.7783 66.209 57.2953 65.53 57.2953 64.48 57.2953 63.43 57.7783 62.751 58.7373 62.751 59.4373 62.751 59.8783 63.108 60.0673 63.717L61.0263 63.451C60.7043 62.471 59.8923 61.855 58.7373 61.855 57.2253 61.855 56.2943 62.912 56.2943 64.48S57.2253 67.105 58.7373 67.105z" fill="#fff"/><path d="M61.937 67H65.227V66.111H62.889V64.816h1.918V63.927H62.889V62.849h2.338V61.96H61.937V67z" fill="#fff"/><path d="M66.2059 67H67.1579V65.292h1.176C68.4249 65.292 68.6209 65.285 68.7539 65.264 69.6499 65.124 70.0559 64.473 70.0559 63.626 70.0559 62.779 69.6569 62.128 68.7539 61.988 68.6209 61.967 68.4319 61.96 68.3339 61.96h-2.128V67zM67.1579 64.403V62.849h1.134C68.3899 62.849 68.5159 62.856 68.6139 62.884 68.9989 62.989 69.0969 63.353 69.0969 63.626 69.0969 63.899 68.9989 64.263 68.6139 64.368 68.5159 64.396 68.3899 64.403 68.2919 64.403h-1.134z" fill="#fff"/><path d="M72.0676 67H73.0196V62.849h1.589V61.96h-4.13V62.849h1.589V67z" fill="#fff"/><path d="M75.3111 67H78.6011V66.111H76.2631V64.816H78.1811V63.927H76.2631V62.849H78.6011V61.96H75.3111V67z" fill="#fff"/><path d="M79.58 67h1.631C81.288 67 81.582 67 81.813 66.972 83.031 66.825 83.71 65.761 83.71 64.48 83.71 63.199 83.031 62.135 81.813 61.988 81.582 61.96 81.288 61.96 81.211 61.96H79.58V67zM80.546 66.104V62.856H81.211C81.337 62.856 81.582 62.856 81.757 62.891 82.394 63.017 82.702 63.724 82.702 64.48 82.702 65.201 82.415 65.936 81.757 66.069 81.582 66.104 81.337 66.104 81.211 66.104H80.546z" fill="#fff"/></g><path fill-rule="evenodd" clip-rule="evenodd" d="M73.8602 51.5098l-16 27-1.7206-1.0196 16-27 1.7206 1.0196z" fill="#94b7eb"/></svg>