<svg width="108" height="94" viewBox="0 0 108 94" fill="none" xmlns="http://www.w3.org/2000/svg"><path d="M9 47C9 22.1472 29.1472 2 54 2S99 22.1472 99 47 78.8528 92 54 92C29.1472 92 9 71.8528 9 47z" fill="#eaf0f9"/><path fill-rule="evenodd" clip-rule="evenodd" d="M69.3136 14.9677C69.8525 15.0885 70.1914 15.6233 70.0705 16.1622L60.9758 56.7188C60.855 57.2577 60.3201 57.5966 59.7812 57.4757 59.2423 57.3549 58.9034 56.8201 59.0243 56.2812L68.119 15.7246C68.2398 15.1857 68.7747 14.8468 69.3136 14.9677z" fill="#2967c2"/><path fill-rule="evenodd" clip-rule="evenodd" d="M31.4364 26.285C31.8377 25.9056 32.4706 25.9232 32.8501 26.3245L79.1413 75.2753C79.5208 75.6766 79.5031 76.3095 79.1019 76.689 78.7006 77.0684 78.0677 77.0508 77.6882 76.6495L31.397 27.6987C31.0175 27.2974 31.0352 26.6645 31.4364 26.285z" fill="#2967c2"/><path d="M57.6724 70.7768C36.4113 75.4438 21.9982 45.8152 11.627 38.0367L30.2952 30.2583C40.6665 38.0367 55.0796 67.6654 76.3407 62.9983L57.6724 70.7768z" fill="#447fd5"/><path fill-rule="evenodd" clip-rule="evenodd" d="M6.05575 37.2876C6.45661 36.9076 7.08954 36.9246 7.46946 37.3255L54.249 86.6827C54.6289 87.0836 54.612 87.7165 54.2111 88.0964 53.8103 88.4764 53.1773 88.4594 52.7974 88.0585L6.01785 38.7013C5.63793 38.3004 5.6549 37.6675 6.05575 37.2876z" fill="#2967c2"/><path fill-rule="evenodd" clip-rule="evenodd" d="M57.6246 70.3894C57.688 70.938 57.2946 71.4342 56.746 71.4976L25.8698 75.0655C25.3211 75.1289 24.825 74.7356 24.7616 74.1869 24.6982 73.6383 25.0915 73.1422 25.6402 73.0788l30.8762-3.568C57.0651 69.4474 57.5612 69.8408 57.6246 70.3894z" fill="#2967c2"/><path fill-rule="evenodd" clip-rule="evenodd" d="M36.8262 21.6056C36.8221 21.6018 36.818 21.5979 36.814 21.594 43.1339 8.7664 57.6271 1.27761 72.1897 4.71297 86.7524 8.14832 96.3383 21.3795 96.2911 35.6248 96.1038 35.6806 95.9157 35.7352 95.7268 35.7886 94.2752 35.0103 92.6994 34.4063 91.0202 34.0102 85.6955 32.7541 80.3656 33.8329 76.1053 36.5823 73.4725 33.4594 69.8497 31.1248 65.5688 30.1149 61.323 29.1133 57.0739 29.5668 53.345 31.1518c-2.5949-4.3915-6.9055-7.7606-12.2621-9.0242C39.6575 21.7914 38.2319 21.6216 36.8262 21.6056z" fill="#94b7eb"/><path fill-rule="evenodd" clip-rule="evenodd" d="M72.241 1.73215C72.7795 1.85499 73.1164 2.39107 72.9935 2.92952L71.9983 7.29192C71.8755 7.83037 71.3394 8.16728 70.8009 8.04444 70.2625 7.9216 69.9256 7.38552 70.0484 6.84707L71.0436 2.48467C71.1665 1.94622 71.7026 1.60931 72.241 1.73215z" fill="#2967c2"/><path d="M53.5808 23.116c1.462-5.4849 4.5151-10.9869 6.8176-13.36649C54.2377 9.68661 48.2981 13.4404 44.4639 17.5607 48.0134 17.244 51.6907 19.9664 53.5808 23.116z" fill="#fff"/><path fill-rule="evenodd" clip-rule="evenodd" d="M34.3138 28.4918C34.5268 29.0013 34.2865 29.5871 33.777 29.8002L8.74691 40.2675C8.23739 40.4806 7.6516 40.2403 7.43852 39.7308 7.22544 39.2212 7.46576 38.6354 7.97529 38.4224L33.0054 27.955C33.5149 27.7419 34.1007 27.9822 34.3138 28.4918z" fill="#2967c2"/><path fill-rule="evenodd" clip-rule="evenodd" d="M75.9265 62.6243C76.134 63.1361 75.8873 63.7193 75.3755 63.9268l-18.5 7.5C56.3637 71.6343 55.7805 71.3875 55.573 70.8757 55.3655 70.3639 55.6122 69.7808 56.1241 69.5733l18.5-7.5C75.1359 61.8658 75.719 62.1125 75.9265 62.6243z" fill="#2967c2"/><path fill-rule="evenodd" clip-rule="evenodd" d="M30.2189 35.8329C30.4337 36.3417 30.1953 36.9283 29.6865 37.1431l-7.9209 3.3432C21.2568 40.7011 20.6702 40.4627 20.4554 39.9539 20.2407 39.4451 20.479 38.8585 20.9879 38.6438l7.9209-3.3433C29.4176 35.0857 30.0042 35.3241 30.2189 35.8329z" fill="#fff"/><path fill-rule="evenodd" clip-rule="evenodd" d="M34.1794 40.5135C34.3942 41.0223 34.1558 41.6089 33.647 41.8237l-7.921 3.3432C25.2172 45.3817 24.6306 45.1433 24.4159 44.6345 24.2011 44.1257 24.4395 43.5391 24.9483 43.3244l7.9209-3.3433C33.3781 39.7663 33.9646 40.0047 34.1794 40.5135z" fill="#fff"/><path fill-rule="evenodd" clip-rule="evenodd" d="M37.78 45.7085C37.9947 46.2173 37.7564 46.8039 37.2476 47.0187l-7.921 3.3433C28.8178 50.5767 28.2312 50.3383 28.0165 49.8295 27.8017 49.3207 28.0401 48.7341 28.5489 48.5194l7.9209-3.3433C36.9786 44.9613 37.5652 45.1997 37.78 45.7085z" fill="#fff"/><path fill-rule="evenodd" clip-rule="evenodd" d="M41.7404 50.6088C41.9552 51.1176 41.7168 51.7042 41.208 51.919L33.2871 55.2623C32.7783 55.477 32.1917 55.2387 31.9769 54.7299 31.7621 54.221 32.0005 53.6345 32.5093 53.4197l7.921-3.3433C40.9391 49.8616 41.5257 50.1 41.7404 50.6088z" fill="#fff"/><path fill-rule="evenodd" clip-rule="evenodd" d="M46.6267 54.9808C46.8414 55.4897 46.603 56.0762 46.0942 56.291L38.1733 59.6343C37.6645 59.8491 37.0779 59.6107 36.8631 59.1019 36.6484 58.593 36.8868 58.0065 37.3956 57.7917l7.9209-3.3433C45.8253 54.2336 46.4119 54.472 46.6267 54.9808z" fill="#fff"/><path fill-rule="evenodd" clip-rule="evenodd" d="M52.8259 59.2678C53.0406 59.7766 52.8023 60.3632 52.2935 60.578l-7.921 3.3433C43.8637 64.136 43.2771 63.8977 43.0624 63.3888 42.8476 62.88 43.086 62.2935 43.5948 62.0787l7.9209-3.3433C52.0245 58.5206 52.6111 58.759 52.8259 59.2678z" fill="#fff"/><path fill-rule="evenodd" clip-rule="evenodd" d="M60.1511 62.6112C60.3658 63.12 60.1275 63.7065 59.6186 63.9213l-7.9209 3.3433C51.1889 67.4794 50.6023 67.241 50.3876 66.7322 50.1728 66.2234 50.4112 65.6368 50.92 65.422l7.9209-3.3433C59.3497 61.864 59.9363 62.1023 60.1511 62.6112z" fill="#fff"/></svg>