<svg width="98" height="72" viewBox="0 0 98 72" fill="none" xmlns="http://www.w3.org/2000/svg"><rect width="54" height="54" rx="12" transform="matrix(0.984808 0.173648 0.173648 -0.984808 17.7217 57.9013)" fill="#d6f8f3"/><rect x="59.8408" y="14.3137" width="16" height="44" rx="2" transform="rotate(45 59.8408 14.3137)" fill="#5ee1d2"/><path d="M68.3258 17.1421 76.811 8.65686" stroke="#00ac98" stroke-width="2" stroke-linecap="round"/><path d="M21.6567 63.8112l9.8995-9.8995" stroke="#00ac98" stroke-width="2" stroke-linecap="round"/><path d="M73.2754 5.12134l7.0711 7.07106" stroke="#00ac98" stroke-width="2" stroke-linecap="round"/><path d="M63.3763 15.0208C64.1574 14.2398 65.4237 14.2398 66.2047 15.0208l4.2427 4.2427C71.2284 20.0445 71.2284 21.3109 70.4474 22.0919L69.0332 23.5061 61.9621 16.4351l1.4142-1.4143z" fill="#00ac98"/><path d="M29.4352 48.9619C28.6542 49.743 28.6542 51.0093 29.4352 51.7904l4.2427 4.2426C34.4589 56.8141 35.7252 56.8141 36.5063 56.033L37.9205 54.6188l-7.0711-7.0711-1.4142 1.4142z" fill="#00ac98"/><path d="M44.1797 29.9659 55.4261 41.2124 41.3858 55.2527C40.6047 56.0338 39.3384 56.0338 38.5573 55.2527l-8.418-8.418C29.3583 46.0537 29.3583 44.7874 30.1393 44.0063L44.1797 29.9659z" fill="#00cab2"/><rect x="58.4263" y="19.9706" width="10" height="2" rx=".5" transform="rotate(45 58.4263 19.9706)" fill="#fff"/><rect x="54.8906" y="23.5061" width="10" height="2" rx=".5" transform="rotate(45 54.8906 23.5061)" fill="#fff"/><rect x="51.3555" y="27.0416" width="10" height="2" rx=".5" transform="rotate(45 51.3555 27.0416)" fill="#fff"/></svg>