<svg width="98" height="72" viewBox="0 0 98 72" fill="none" xmlns="http://www.w3.org/2000/svg"><rect width="54" height="54" rx="12" transform="matrix(0.984808 0.173648 0.173648 -0.984808 17.7217 57.9013)" fill="#eaf0f9"/><path d="M26 18V52" stroke="#2967c2" stroke-width="2" stroke-linecap="round"/><path d="M41 19V53" stroke="#447fd5" stroke-width="2" stroke-linecap="round"/><path d="M56 23V58" stroke="#2967c2" stroke-width="2" stroke-linecap="round"/><path d="M72 23V58" stroke="#447fd5" stroke-width="2" stroke-linecap="round"/><path d="M48 56.5c-9.9-4.6667-23.1-4.6666-33 0V69H81V56.5C71.1 61.1666 57.9 61.1667 48 56.5z" fill="#fff"/><path d="M15 56.5c9.9-4.6666 23.1-4.6667 33 0s23.1 4.6666 33 0" stroke="#447fd5" stroke-width="2" stroke-linecap="round"/><rect x="52" y="16" width="8" height="8" rx="4" fill="#2967c2"/><rect x="68" y="16" width="8" height="8" rx="4" fill="#447fd5"/><rect x="37" y="12" width="8" height="8" rx="4" fill="#447fd5"/><rect x="22" y="11" width="8" height="8" rx="4" fill="#2967c2"/><rect x="24" y="12" width="3" height="3" rx="1.5" fill="#fff"/><rect x="39" y="13" width="3" height="3" rx="1.5" fill="#fff"/><rect x="54" y="17" width="3" height="3" rx="1.5" fill="#fff"/><rect x="70" y="17" width="3" height="3" rx="1.5" fill="#fff"/></svg>