<svg width="98" height="72" viewBox="0 0 98 72" fill="none" xmlns="http://www.w3.org/2000/svg"><rect width="54" height="54" rx="12" transform="matrix(0.984808 0.173648 0.173648 -0.984808 17.7217 57.9013)" fill="#eaf0f9"/><path d="M24 19.8834c0 23.9436 7.6923 10.8575 7.6923 35.8893C31.6923 59.7642 34.921 63 38.9038 63c3.9829.0 7.2116-3.2358 7.2116-7.2273V49.5455c0-1.5967 1.2915-2.891 2.8846-2.891s2.8846 1.2943 2.8846 2.891v6.27c0 3.9679 3.2287 7.1845 7.2116 7.1845C63.079 63 66.3077 59.7834 66.3077 55.8155 66.3077 31.872 74 42.7386 74 19.8834 74 13.8727 69.1335 9 63.1304 9 55.6787 9 53.0935 12.6315 49 15.5301 46.1154 14.7818 42.75 9 34.9416 9 28.8987 9 24 13.8727 24 19.8834z" fill="#94b7eb"/><mask id="mask0" mask-type="alpha" maskUnits="userSpaceOnUse" x="24" y="9" width="50" height="54"><path d="M24 19.8834c0 23.9436 7.6923 10.8575 7.6923 35.8893C31.6923 59.7642 34.921 63 38.9038 63c3.9829.0 7.2116-3.2358 7.2116-7.2273V49.5455c0-1.5967 1.2915-2.891 2.8846-2.891s2.8846 1.2943 2.8846 2.891v6.27c0 3.9679 3.2287 7.1845 7.2116 7.1845C63.079 63 66.3077 59.7834 66.3077 55.8155 66.3077 31.872 74 42.7386 74 19.8834 74 13.8727 69.1335 9 63.1304 9 55.6787 9 53.0935 12.6315 49 15.5301 46.1154 14.7818 42.75 9 34.9416 9 28.8987 9 24 13.8727 24 19.8834z" fill="#94b7eb"/></mask><g mask="url(#mask0)"><path d="M74.5 27c-10 20-33.5 24.5-44 24.5L26.5 65h44C72.1667 60.1667 75.3 45.8 74.5 27z" fill="#447fd5"/><path d="M53.5 18.5c-4.5258.0-7.5-5-9-7.5" stroke="#2967c2" stroke-width="2" stroke-linecap="round"/></g><circle cx="34" cy="18" r="3" fill="#fff"/></svg>