<svg width="108" height="94" viewBox="0 0 108 94" fill="none" xmlns="http://www.w3.org/2000/svg"><g clip-path="url(#clip0_3910_64665)"><path d="M17.9764 33.4096c-6.4095 16.6973-9.61429 25.046-6.7136 32.3166C11.4568 66.2126 11.6699 66.6911 11.9015 67.1608c3.4622 7.0206 11.8108 10.2253 28.5081 16.6348C57.1069 90.2051 65.4556 93.4099 72.7262 90.5092 73.2126 90.3152 73.6911 90.1021 74.1608 89.8705 81.1814 86.4083 84.3861 78.0596 90.7956 61.3623 97.2051 44.665 100.41 36.3164 97.5092 29.0458 97.3151 28.5594 97.1021 28.0808 96.8705 27.6112 93.4083 20.5906 85.0596 17.3858 68.3623 10.9764 51.665 4.56686 43.3164 1.36211 36.0458 4.26278 35.5594 4.45683 35.0808 4.6699 34.6112 4.90152 27.5906 8.36368 24.3858 16.7123 17.9764 33.4096z" fill="#f2f6fb"/><path d="M66 13c0 6.6274-5.3726 12-12 12S42 19.6274 42 13C42 6.37258 47.3726 1 54 1S66 6.37258 66 13z" fill="#94b7eb"/><path d="M63.999 12.9999c0 5.5229-4.4771 10-10 10-5.5228.0-10-4.4771-10-10 0-5.52281 4.4772-9.99996 10-9.99996 5.5229.0 10 4.47715 10 9.99996z" fill="#94b7eb"/><path fill-rule="evenodd" clip-rule="evenodd" d="M54 3.5c-5.2467.0-9.5 4.25329-9.5 9.5.0 5.2467 4.2533 9.5 9.5 9.5s9.5-4.2533 9.5-9.5c0-5.24671-4.2533-9.5-9.5-9.5zM43.5 13C43.5 7.20101 48.201 2.5 54 2.5S64.5 7.20101 64.5 13c0 5.799-4.701 10.5-10.5 10.5S43.5 18.799 43.5 13z" fill="#fff"/><path d="M56.7602 14.3999c0-1.01-.519999999999996-1.59-1.76-1.96L53.7002 12.0699C53.0102 11.8699 52.7102 11.5999 52.7102 11.2099 52.7102 10.6699 53.2702 10.2699 53.9902 10.2899 54.7602 10.2999 55.3402 10.7799 55.4802 11.4899L56.7102 11.2699C56.4502 10.1499 55.7202 9.42994 54.6502 9.21994v-.91h-1.2V9.19994c-1.2.17-1.94.949960000000001-1.94 2.06996.0.9.530000000000001 1.53 1.52 1.84L54.7702 13.6399C55.3302 13.8199 55.5702 14.0699 55.5702 14.4799c0 .6-.600000000000001 1.04-1.43 1.04-.850000000000001.0-1.51-.52-1.7-1.34l-1.2.19c.189999999999998 1.2 1.02 2.02 2.21 2.23V17.4999h1.2V16.6099c1.28-.190000000000001 2.11-1.04 2.11-2.21z" fill="#447fd5"/><path d="M70 83.3417C70 80.0429 71.7191 77.0424 74.0439 74.7019 78.9668 69.7458 82 62.9708 82 55.5 82 40.3122 69.464 28 54 28S26 40.3122 26 55.5c0 7.4708 3.0332 14.2458 7.9561 19.2019C36.2809 77.0424 38 80.0429 38 83.3417V84C38 86.2091 39.7909 88 42 88S46 86.2091 46 84C46 82.9309 47.0277 82.1615 48.0737 82.3828 49.9839 82.7871 51.9666 83 54 83S58.0161 82.7871 59.9263 82.3828C60.9723 82.1615 62 82.9309 62 84 62 86.2091 63.7909 88 66 88S70 86.2091 70 84V83.3417z" fill="#447fd5"/><path d="M36.3239 30.642c2.6666-1.5396 4-2.3094 5-1.732 1 .577300000000001 1 2.1169 1 5.1961v4.0804c0 3.0792.0 4.6188-1 5.19609999999999C40.3239 43.96 38.9905 43.1902 36.3239 41.6506l-3.5338-2.0402c-2.6666-1.5396-4-2.3094-3.9999-3.4641.0-1.1547 1.3333-1.92449999999999 4-3.4641l3.5337-2.0402z" fill="#94b7eb"/><path d="M71.6761 30.642c-2.6666-1.5396-4-2.3094-5-1.732-1 .577300000000001-1 2.1169-1 5.1961v4.0804c0 3.0792.0 4.6188 1 5.19609999999999C67.6761 43.96 69.0095 43.1902 71.6761 41.6506l3.5338-2.0402C77.8765 38.0708 79.2099 37.301 79.2098 36.1463 79.2098 34.9916 77.8765 34.2218 75.2098 32.6822L71.6761 30.642z" fill="#94b7eb"/><circle cx="63" cy="51" r="3" fill="#2967c2"/><circle cx="45" cy="51" r="3" fill="#2967c2"/><ellipse cx="54" cy="64.5" rx="15" ry="10.5" fill="#94b7eb"/><ellipse cx="49" cy="65" rx="2" ry="3" fill="#2967c2"/><ellipse cx="59" cy="65" rx="2" ry="3" fill="#2967c2"/><rect x="53" y="30" width="2" height="6" rx=".5" fill="#1c52a0"/></g><defs><clipPath id="clip0_3910_64665"><rect width="108" height="94" fill="#fff"/></clipPath></defs></svg>