<svg width="98" height="72" viewBox="0 0 98 72" fill="none" xmlns="http://www.w3.org/2000/svg"><rect width="54" height="54" rx="12" transform="matrix(0.984808 0.173648 0.173648 -0.984808 17.7217 57.9013)" fill="#eaf0f9"/><path d="M71.9999 29c-16.0001 10-8.1722 21.7834-13 31-5.5 10.5-16.4999 10-21.5001 4C33.4005 59.0811 34 52.7747 33.9999 46" stroke="#2967c2" stroke-width="2"/><path d="M34 46C17.3804 39.5421 13.6799 25.8439 13.0936 13.997 12.9844 11.7906 14.7909 10 17 10H17.9412" stroke="#447fd5" stroke-width="2" stroke-linecap="round" stroke-linejoin="round"/><path d="M34 46c16.6196-6.4579 20.3201-20.1561 20.9064-32.003C55.0156 11.7906 53.2091 10 51 10H50.0588" stroke="#447fd5" stroke-width="2" stroke-linecap="round" stroke-linejoin="round"/><circle cx="72" cy="29" r="6" fill="#fff"/><circle cx="72" cy="29" r="7" fill="#94b7eb" stroke="#2967c2" stroke-width="2"/><circle cx="72" cy="29" r="3" fill="#fff"/><circle cx="34" cy="46" r="4" fill="#447fd5"/><path d="M18 9C18 8.44772 18.4477 8 19 8h4C24.1046 8 25 8.89543 25 10 25 11.1046 24.1046 12 23 12H19C18.4477 12 18 11.5523 18 11V9z" fill="#94b7eb" stroke="#94b7eb" stroke-width="2"/><path d="M43 10C43 8.89543 43.8954 8 45 8h4C49.5523 8 50 8.44772 50 9v2C50 11.5523 49.5523 12 49 12H45c-1.1046.0-2-.8954-2-2z" fill="#94b7eb" stroke="#94b7eb" stroke-width="2"/></svg>