<svg width="108" height="94" viewBox="0 0 108 94" fill="none" xmlns="http://www.w3.org/2000/svg"><g clip-path="url(#clip0_3749_63513)"><path d="M17.3982 33.0237c-6.4095 16.6973-9.61422 25.046-6.7135 32.3165C10.8787 65.8266 11.0918 66.3052 11.3234 66.7749c3.4622 7.0206 11.8108 10.2253 28.5081 16.6348s25.046 9.6142 32.3165 6.7136C72.6344 89.9292 73.113 89.7161 73.5827 89.4845 80.6033 86.0224 83.808 77.6737 90.2175 60.9764s9.6142-25.0459 6.7136-32.3165C96.737 28.1735 96.5239 27.6949 96.2923 27.2253 92.8302 20.2047 84.4815 16.9999 67.7842 10.5904 51.0869 4.18093 42.7383.976187 35.4677 3.87686 34.9813 4.0709 34.5027 4.28398 34.0331 4.51559 27.0125 7.97776 23.8077 16.3264 17.3982 33.0237z" fill="#f2f6fb"/><path d="M69.8078 65.3892 88.859 50.8875 80.2987 20.7823 52.2683 24.0094C48.8916 24.3981 45.9435 26.4755 44.4415 29.5246L32.8277 53.0999 44.0801 67.1728 69.8078 65.3892z" fill="#2967c2"/><rect width="10.2939" height="43.2011" rx="5.14695" transform="matrix(0.758197 -0.652026 0.663444 0.748226 45.377 34.04)" fill="#94b7eb"/><rect width="10.1711" height="35.0678" rx="5.08555" transform="matrix(0.758197 -0.652026 0.663444 0.748226 28.0771 57.4605)" fill="#94b7eb"/><rect width="10.1711" height="44.6451" rx="5.08555" transform="matrix(0.758197 -0.652026 0.663444 0.748226 30.2012 46.0355)" fill="#94b7eb"/><rect width="10.1711" height="44.7801" rx="5.08555" transform="matrix(0.758197 -0.652026 0.663444 0.748226 37.7891 40.0377)" fill="#94b7eb"/><path d="M29.7499 59.2603l-9.809-13.3897L41.3764 23.9547l9.3233 5.2016c5.0322 2.8076 9.3028 7.3608 9.2937 13.1232C59.9662 59.4845 43.7965 75.4566 29.7499 59.2603z" fill="#94b7eb"/><path d="M37.0249 46.0962 47.3288 26.0646l10.2208 1.7173 6.9866 7.9184C64.7801 35.8133 64.8533 35.8927 64.7099 35.8971L64.5362 35.7003C63.1718 35.0676 56.4666 33.3802 52.5056 37.8662c-1.9162 2.1702-2.4776 5.3441-4.7737 8.4401-2.2136 2.9848-5.0244 4.2781-7.5991 4.788C37.3987 51.6357 35.75 48.5747 37.0249 46.0962z" fill="#2967c2"/><rect x="36.4785" y="14.0989" width="11.3958" height="37.326" rx="3.97876" transform="rotate(44.9802 36.4785 14.0989)" fill="#447fd4"/><rect width="10.1701" height="10.4624" rx="5.08504" transform="matrix(0.660876 0.750495 -0.736461 0.67648 26.2207 45.5619)" fill="#2967c2"/><rect width="10.1701" height="12.8247" rx="5.08504" transform="matrix(0.660876 0.750495 -0.736461 0.67648 33.1562 51.7502)" fill="#2967c2"/><rect width="10.1701" height="13.3472" rx="5.08504" transform="matrix(0.660876 0.750495 -0.736461 0.67648 39.4756 59.0546)" fill="#2967c2"/><rect width="10.1701" height="10.6791" rx="5.08504" transform="matrix(0.660876 0.750495 -0.736461 0.67648 44.9062 66.6124)" fill="#2967c2"/><rect x="71.0498" y="19.4888" width="11.3958" height="39.2523" rx="3.97876" transform="rotate(-25.8503 71.0498 19.4888)" fill="#447fd4"/><circle cx="18.6868" cy="40.3855" r="1.90945" fill="#fff"/><circle cx="91.2454" cy="48.0233" r="1.90945" fill="#fff"/><rect x="49.2383" y="53.1018" width="1.90945" height="18.6807" rx=".954723" transform="rotate(-41.2881 49.2383 53.1018)" fill="#fff"/><rect x="55.9209" y="46.4187" width="1.90945" height="18.6807" rx=".954723" transform="rotate(-41.2881 55.9209 46.4187)" fill="#fff"/><rect x="41.6006" y="59.7849" width="1.90945" height="18.6807" rx=".954723" transform="rotate(-41.2881 41.6006 59.7849)" fill="#fff"/></g><defs><clipPath id="clip0_3749_63513"><rect width="108" height="94" fill="#fff"/></clipPath></defs></svg>