<svg width="98" height="72" viewBox="0 0 98 72" fill="none" xmlns="http://www.w3.org/2000/svg"><rect width="54" height="54" rx="12" transform="matrix(0.984808 0.173648 0.173648 -0.984808 17.7217 57.9013)" fill="#d6f8f3"/><path fill-rule="evenodd" clip-rule="evenodd" d="M50.4908 17.7065H37.1349V32.2418L20.5696 60.0151C18.9877 62.6673 20.8803 66.0356 23.9683 66.0639L64.3031 66.4339C67.4405 66.4627 69.3881 63.0329 67.7559 60.3533L50.4908 32.0089V17.7065z" fill="#00cab2"/><mask id="mask0" mask-type="alpha" maskUnits="userSpaceOnUse" x="19" y="17" width="50" height="50"><path fill-rule="evenodd" clip-rule="evenodd" d="M50.4908 17.7065H37.1349V32.2418L20.5696 60.0151C18.9877 62.6673 20.8803 66.0356 23.9683 66.0639L64.3031 66.4339C67.4405 66.4627 69.3881 63.0329 67.7559 60.3533L50.4908 32.0089V17.7065z" fill="#00cab2"/></mask><g mask="url(#mask0)"><path d="M23.2694 54.2188 18 63.9315l1.5808 3.0487c14.6365.0 42.5766-1.2449 48.4789.0C69.7012 67.3264 68.7235 63.0408 68.5867 61.8868 66.1084 57.3455 67.1829 58.7478 64.3711 54.6562c-5.7964-3.5784-12.1197-3.5046-20.5508.0C36.5673 57.6712 25.1845 56.3826 23.2694 54.2188z" fill="#00ac98"/></g><path d="M33 17c0-2.2091 1.7909-4 4-4H51c2.2091.0 4 1.7909 4 4C55 17.5523 54.5523 18 54 18H34C33.4477 18 33 17.5523 33 17z" fill="#00cab2"/><rect x="38" y="38" width="6" height="2" rx=".5" fill="#fff"/><rect x="35" y="43" width="7" height="2" rx=".5" fill="#fff"/><rect x="32" y="48" width="8" height="2" rx=".5" fill="#fff"/><path d="M61 42H71V65C71 67.7614 68.7614 70 66 70 63.2386 70 61 67.7614 61 65V42z" fill="#5ee1d2"/><circle cx="71" cy="7" r="2" fill="#00ac98"/><circle cx="67.5" cy="25.5" r="3.5" fill="#5ee1d2"/><circle cx="76.5" cy="17.5" r="2.5" fill="#00bba5"/><path d="M59 41C59 39.8954 59.8954 39 61 39H71C72.1046 39 73 39.8954 73 41v1C73 42.5523 72.5523 43 72 43H60C59.4477 43 59 42.5523 59 42V41z" fill="#00cab2"/></svg>