<svg width="98" height="72" viewBox="0 0 98 72" fill="none" xmlns="http://www.w3.org/2000/svg"><rect width="54" height="54" rx="12" transform="matrix(0.984808 0.173648 0.173648 -0.984808 17.7217 57.9013)" fill="#d6f8f3"/><path d="M74.7143 42.4653c0-1.7762-.574699999999993-3.448-1.515-4.8064C73.8262 36.4573 74.1919 35.1512 74.1919 33.6884c0-3.448-2.14200000000001-6.4259-5.1199-7.6798C68.9153 21.5157 65.2582 17.9631 60.7653 17.9631 60.6086 17.9631 60.4518 17.9631 60.2951 17.9631c-1.4106-2.6644-4.1795-4.4929-7.4186-4.4929-1.4628.0-2.8734.3657-4.075 1.0449C47.4955 13.5747 45.8759 13 44.0996 13c-2.2987.0-4.3884.9404-5.9035 2.4554C37.2557 15.0897 36.2631 14.8808 35.166 14.8808c-3.1869.0-5.9558 1.8285-7.3663 4.4407C27.4862 19.2692 27.1727 19.2692 26.8593 19.2692c-4.5975.0-8.359 3.7093-8.359 8.359C18.5003 28.3073 18.6048 28.9865 18.7093 29.6134 16.5151 30.815 15 33.2182 15 35.9349c0 2.4554 1.2016 4.5974 3.0301 5.9035.3657 4.2317 3.9705 7.5753 8.3067 7.5753C27.2772 49.4137 28.1654 49.257 29.0013 48.9958 29.8372 52.1304 32.5016 54.5336 35.7929 55.056 36.0541 55.1083 36.2631 55.1605 36.5243 55.1605H43.8907C44.2564 55.1605 44.6221 55.4217 44.7788 55.7874c2.7689 7.6798 12.3817 6.7394 15.5163 13.8446 1.2016 2.6644 5.5378 1.0448 4.5452-1.5151C64.0566 65.9749 62.855 62.9448 61.8624 60.4371H62.7506c3.3435.0 6.1124-2.7167 6.1124-6.1125v-3.866c3.3959-1.0971 5.8513-4.2317 5.8513-7.9933z" fill="#5ee1d2"/><mask id="mask0" mask-type="alpha" maskUnits="userSpaceOnUse" x="15" y="13" width="60" height="58"><path d="M74.7143 42.4653c0-1.7762-.574699999999993-3.448-1.515-4.8064C73.8262 36.4573 74.1919 35.1512 74.1919 33.6884c0-3.448-2.14200000000001-6.4259-5.1199-7.6798C68.9153 21.5157 65.2582 17.9631 60.7653 17.9631 60.6086 17.9631 60.4518 17.9631 60.2951 17.9631c-1.4106-2.6644-4.1795-4.4929-7.4186-4.4929-1.4628.0-2.8734.3657-4.075 1.0449C47.4955 13.5747 45.8759 13 44.0996 13c-2.2987.0-4.3884.9404-5.9035 2.4554C37.2557 15.0897 36.2631 14.8808 35.166 14.8808c-3.1869.0-5.9558 1.8285-7.3663 4.4407C27.4862 19.2692 27.1727 19.2692 26.8593 19.2692c-4.5975.0-8.359 3.7093-8.359 8.359C18.5003 28.3073 18.6048 28.9865 18.7093 29.6134 16.5151 30.815 15 33.2182 15 35.9349c0 2.4554 1.2016 4.5974 3.0301 5.9035.3657 4.2317 3.9705 7.5753 8.3067 7.5753C27.2772 49.4137 28.1654 49.257 29.0013 48.9958 29.8372 52.1304 32.5016 54.5336 35.7929 55.056 36.0541 55.1083 36.2631 55.1605 36.5243 55.1605H43.8907C44.2564 55.1605 44.6221 55.4217 44.7788 55.7874c2.7689 7.6798 12.3817 6.7394 15.5163 13.8446 1.2016 2.6644 5.5378 1.0448 4.5452-1.5151C64.0566 65.9749 62.855 62.9448 61.8624 60.4371H62.7506c3.3435.0 6.1124-2.7167 6.1124-6.1125v-3.866c3.3959-1.0971 5.8513-4.2317 5.8513-7.9933z" fill="#94b7eb"/></mask><g mask="url(#mask0)"><path d="M54.5229 58.1967c7.4525 1.0383 10.6093-4.4335 11.0004-8.3549C66.0977 44.0816 72.056 45.7091 73.2748 37.6277l3.971 1.2512c1.0064 2.5563 3.0313 7.7655 3.0796 8.1519C80.3737 47.4173 75.6452 61.3621 73.2748 68.2862L61.3043 72.5735 51.824 70.3392C50.408 67.7809 50.3015 64.5436 48.4546 61.2691c3.7641 1.3825 5.2998-1.0754 6.0683-3.0724z" fill="#00cab2"/><path d="M69.8138 50.3135C68.5599 50.6269 67.2016 50.5224 66 50" stroke="#00ac98" stroke-width="2" stroke-miterlimit="10" stroke-linecap="round" stroke-linejoin="round"/><path d="M31.5605 23.1353C32.7621 25.643 32.0307 28.5686 30.0454 30.2927" stroke="#00ac98" stroke-width="2" stroke-miterlimit="10" stroke-linecap="round" stroke-linejoin="round"/><path d="M29.8369 30.5015c-6.6349 6.3215-.3657 14.4192 6.5827 11.1801" stroke="#00ac98" stroke-width="2" stroke-miterlimit="10" stroke-linecap="round" stroke-linejoin="round"/><path d="M44.936 21.5677C46.2944 21.4632 47.6527 21.5677 49.0633 21.9857c5.59 1.5673 9.0381 7.0006 8.3589 12.5384" stroke="#00ac98" stroke-width="2" stroke-miterlimit="10" stroke-linecap="round" stroke-linejoin="round"/><path d="M36.418 34.7333C37.933 33.7406 39.866 33.2705 41.8513 33.5839 45.9263 34.2631 48.6952 38.1813 48.016 42.2563 47.5981 44.6073 46.1353 46.5403 44.2022 47.5852" stroke="#00ac98" stroke-width="2" stroke-miterlimit="10" stroke-linecap="round" stroke-linejoin="round"/><path d="M64.1602 44.1368C59.1971 42.7262 56.3237 37.5541 57.7343 32.5388 59.1449 27.5756 64.9846 24.0894 70 25.5" stroke="#00ac98" stroke-width="2" stroke-miterlimit="10" stroke-linecap="round" stroke-linejoin="round"/><path d="M53 53.4755c0 4.4196 3.517 8 7.8584 8H68" stroke="#00ac98" stroke-width="2" stroke-miterlimit="10" stroke-linecap="round" stroke-linejoin="round"/></g></svg>