<svg width="98" height="72" viewBox="0 0 98 72" fill="none" xmlns="http://www.w3.org/2000/svg"><rect width="54" height="54" rx="12" transform="matrix(0.984808 0.173648 0.173648 -0.984808 17.7217 57.9013)" fill="#d6f8f3"/><path d="M49 57.9995C65.6516 57.9143 76.2949 46.1491 81.6895 38.054 82.5209 36.8065 82.5209 35.1935 81.6895 33.946 76.2949 25.8509 65.6516 14.0857 49 14.0005 32.3484 14.0857 21.7051 25.8509 16.3105 33.946c-.8314 1.2475-.8314 2.8605.0 4.108C21.7051 46.1491 32.3484 57.9143 49 57.9995z" fill="#5ee1d2"/><mask id="mask0" mask-type="alpha" maskUnits="userSpaceOnUse" x="15" y="14" width="68" height="44"><path d="M49 57.9995C65.6516 57.9143 76.2949 46.1491 81.6895 38.054 82.5209 36.8065 82.5209 35.1935 81.6895 33.946 76.2949 25.8509 65.6516 14.0857 49 14.0005 32.3484 14.0857 21.7051 25.8509 16.3105 33.946c-.8314 1.2475-.8314 2.8605.0 4.108C21.7051 46.1491 32.3484 57.9143 49 57.9995z" fill="#94b7eb"/></mask><g mask="url(#mask0)"><path fill-rule="evenodd" clip-rule="evenodd" d="M22 26.7201V26L14 36l8 10V45.2799C20.1211 42.7267 19 39.5036 19 36s1.1211-6.7267 3-9.2799z" fill="#00cab2"/><path fill-rule="evenodd" clip-rule="evenodd" d="M76 26.7201V26l8 10-8 10V45.2799c1.8789-2.5532 3-5.7763 3-9.2799s-1.1211-6.7267-3-9.2799z" fill="#00cab2"/></g><circle r="15" transform="matrix(-1 0 0 1 49 36)" fill="#00cab2"/><circle r="7" transform="matrix(-1 0 0 1 49 36)" fill="#00ac98"/><circle r="2.5" transform="matrix(-1 0 0 1 46.5 33.5)" fill="#fff"/></svg>