<svg width="98" height="72" viewBox="0 0 98 72" fill="none" xmlns="http://www.w3.org/2000/svg"><rect width="54" height="54" rx="12" transform="matrix(0.984808 0.173648 0.173648 -0.984808 17.7217 57.9013)" fill="#eaf0f9"/><path d="M60.0671 18H24.7405c-1.8892.0-3.5209 1.3218-3.9129 3.17L18.0871 34.0896C18.0292 34.3624 18 34.6406 18 34.9196V49c0 2.2091 1.7909 4 4 4H77C79.2091 53 81 51.2091 81 49V38.9c0-1.4772-.8142-2.8342-2.1176-3.5294L74.2344 32.8917C73.75 32.6333 73.3239 32.278 72.9828 31.8479L63.2011 19.5144C62.4423 18.5577 61.2882 18 60.0671 18z" fill="#94b7eb"/><path fill-rule="evenodd" clip-rule="evenodd" d="M48 29C48 28.0572 48 27.5858 47.7071 27.2929 47.4142 27 46.9428 27 46 27s-1.4142.0-1.7071.2929C44 27.5858 44 28.0572 44 29S44 30.4142 43.7071 30.7071C43.4142 31 42.9428 31 42 31s-1.4142.0-1.7071.2929C40 31.5858 40 32.0572 40 33S40 34.4142 40.2929 34.7071C40.5858 35 41.0572 35 42 35S43.4142 35 43.7071 35.2929C44 35.5858 44 36.0572 44 37S44 38.4142 44.2929 38.7071C44.5858 39 45.0572 39 46 39S47.4142 39 47.7071 38.7071C48 38.4142 48 37.9428 48 37S48 35.5858 48.2929 35.2929C48.5858 35 49.0572 35 50 35S51.4142 35 51.7071 34.7071C52 34.4142 52 33.9428 52 33S52 31.5858 51.7071 31.2929C51.4142 31 50.9428 31 50 31s-1.4142.0-1.7071-.2929C48 30.4142 48 29.9428 48 29z" fill="#fff"/><path d="M50 15.5c0-1.933 1.567-3.5 3.5-3.5S57 13.567 57 15.5V18H50V15.5z" fill="#2967c2"/><circle cx="32" cy="51" r="7" fill="#447fd5"/><circle cx="32" cy="51" r="4" fill="#2967c2"/><circle cx="64" cy="51" r="7" fill="#447fd5"/><circle cx="64" cy="51" r="4" fill="#2967c2"/><path d="M25.8106 22.7575l-2.5 10C23.1528 33.3886 23.6302 34 24.2808 34H25.2192C25.6781 34 26.0781 33.6877 26.1894 33.2425l2.5-10C28.8472 22.6114 28.3698 22 27.7192 22H26.7808C26.3219 22 25.9219 22.3123 25.8106 22.7575z" fill="#447fd5"/><path d="M30.8106 22.7575l-2.5 10C28.1528 33.3886 28.6302 34 29.2808 34H30.2192C30.6781 34 31.0781 33.6877 31.1894 33.2425l2.5-10C33.8472 22.6114 33.3698 22 32.7192 22H31.7808C31.3219 22 30.9219 22.3123 30.8106 22.7575z" fill="#447fd5"/><path d="M57.2997 23.4763l5.4166 10C62.8911 33.799 63.2286 34 63.5956 34H68.4329C69.269 34 69.7359 33.0349 69.2169 32.3793l-7.9166-10C61.1106 22.1397 60.8218 22 60.5162 22H58.1789C57.4212 22 56.9387 22.81 57.2997 23.4763z" fill="#447fd5"/></svg>