<svg width="98" height="72" viewBox="0 0 98 72" fill="none" xmlns="http://www.w3.org/2000/svg"><rect width="54" height="54" rx="12" transform="matrix(0.984808 0.173648 0.173648 -0.984808 17.7217 57.9013)" fill="#d6f8f3"/><path d="M59 66.3636c-3 2.1819-17 2.1819-20 0L38 63.0909 44.5 62h9L60 63.0909C60 63.2727 59.8 64.1818 59 66.3636z" fill="#00ac98"/><path fill-rule="evenodd" clip-rule="evenodd" d="M62.3426 17H35.6572C37.6962 18.65 38.9999 21.1727 38.9999 24c0 2.3051-.866599999999998 4.4077-2.2917 6H61.2916C59.8665 28.4077 58.9999 26.3051 58.9999 24c0-2.8273 1.30370000000001-5.35 3.3427-7z" fill="#00ac98"/><path d="M30.0002 59.1538C29.9646 56.0769 33.8544 54.1189 36 53V63C35.5403 63 30.0334 62.0179 30.0002 59.1538z" fill="#00cab2"/><path fill-rule="evenodd" clip-rule="evenodd" d="M63.3426 39H34.6572C36.6962 40.65 37.9999 43.1727 37.9999 46c0 2.3051-.866599999999998 4.4077-2.2917 6H62.2916C60.8665 50.4077 59.9999 48.3051 59.9999 46c0-2.8273 1.30370000000001-5.35 3.3427-7z" fill="#00ac98"/><path d="M67.9998 59.1538C68.0354 56.0769 64.1456 54.1189 62 53V63C62.4597 63 67.9666 62.0179 67.9998 59.1538z" fill="#00cab2"/><path d="M61.1786 28.1535C55.9511 25.2821 42.0488 25.2822 36.8214 28.1536 36.2778 28.4522 36.0001 29.0465 36.0001 29.6667L36 39.7626C36.0001 41.2498 37.6178 42.3182 39.0693 41.9946c5.4529-1.2158 14.4084-1.2159 19.8614.0C60.3822 42.3182 62 41.2494 62 39.7622V29.6671C62 29.0468 61.7222 28.4521 61.1786 28.1535z" fill="#5ee1d2"/><path d="M62.1511 50.459c-5.8817-3.2787-20.4207-3.2787-26.3021.0C35.2931 50.7689 35.0001 51.375 35.0001 52.0114L35 61.6148C35.0001 63.1367 36.6947 64.2168 38.1715 63.8493c5.8908-1.4658 15.7661-1.4657 21.657.0C61.3054 64.2168 63 63.1362 63 61.6143V52.0118C63 51.3753 62.707 50.7688 62.1511 50.459z" fill="#5ee1d2"/><path d="M60.0345 6.70237C54.9581 4.43253 43.0418 4.43254 37.9655 6.70242 37.343 6.98078 37.0001 7.62752 37.0001 8.30945L37 17.9723C37.0001 19.4067 38.5027 20.4629 39.9139 20.2057c4.9939-.9101 13.1782-.9101 18.1722.0C59.4973 20.4628 61 19.4065 61 17.9721V8.30967C61 7.6277 60.6571 6.98074 60.0345 6.70237z" fill="#5ee1d2"/><path d="M31.0002 36.5385C30.9705 33.7692 34.212 32.007 36 31v9C35.6169 40 31.0278 39.1161 31.0002 36.5385z" fill="#00cab2"/><path d="M32.0002 14.5385C31.9705 11.7692 35.212 10.007 37 9v9C36.6169 18 32.0278 17.1161 32.0002 14.5385z" fill="#00cab2"/><path d="M66.9998 36.5385C67.0295 33.7692 63.788 32.007 62 31v9C62.3831 40 66.9722 39.1161 66.9998 36.5385z" fill="#00cab2"/><path d="M65.9998 14.5385C66.0295 11.7692 62.788 10.007 61 9v9C61.3831 18 65.9722 17.1161 65.9998 14.5385z" fill="#00cab2"/></svg>