<svg width="108" height="102" viewBox="0 0 108 102" fill="none" xmlns="http://www.w3.org/2000/svg"><path d="M17.3982 37.0237C10.9887 53.721 7.78398 62.0696 10.6847 69.3402 10.8787 69.8266 11.0918 70.3052 11.3234 70.7748c3.4622 7.0206 11.8108 10.2253 28.5081 16.6348C56.5288 93.8191 64.8775 97.0239 72.148 94.1232 72.6344 93.9292 73.113 93.7161 73.5827 93.4845c7.0206-3.4622 10.2253-11.8108 16.6348-28.5081C96.627 48.279 99.8317 39.9304 96.9311 32.6598 96.737 32.1734 96.5239 31.6949 96.2923 31.2252 92.8302 24.2046 84.4815 20.9999 67.7842 14.5904 51.0869 8.18087 42.7383 4.97613 35.4677 7.8768 34.9813 8.07084 34.5027 8.28392 34.0331 8.51553 27.0125 11.9777 23.8077 20.3263 17.3982 37.0237z" fill="#eaf0f9"/><path d="M21 17c0-3.7712.0-5.6569 1.1716-6.8284C23.3431 9 25.2288 9 29 9H51c3.7712.0 5.6569.0 6.8284 1.1716C59 11.3431 59 13.2288 59 17V53c0 3.7712.0 5.6569-1.1716 6.8284C56.6569 61 54.7712 61 51 61H29c-3.7712.0-5.6569.0-6.8284-1.1716C21 58.6569 21 56.7712 21 53V17z" fill="#447fd5"/><path fill-rule="evenodd" clip-rule="evenodd" d="M43.7071 77.2929C44.0976 77.6834 44.0976 78.3166 43.7071 78.7071L41.4142 81H63C63.5523 81 64 81.4477 64 82S63.5523 83 63 83H41.4142l2.2929 2.2929C44.0976 85.6834 44.0976 86.3166 43.7071 86.7071 43.3166 87.0976 42.6834 87.0976 42.2929 86.7071l-4-4C37.9024 82.3166 37.9024 81.6834 38.2929 81.2929l4-4C42.6834 76.9024 43.3166 76.9024 43.7071 77.2929z" fill="#2967c2"/><path fill-rule="evenodd" clip-rule="evenodd" d="M29.1341 18.9579l13.5821-3.6408C43.348 15.1476 43.9157 14.9954 44.3917 14.934 44.9114 14.867 45.4681 14.8856 46.0026 15.1942 46.5372 15.5027 46.8317 15.9754 47.0336 16.459 47.2186 16.9019 47.3707 17.4696 47.54 18.1014L47.7094 18.7333C47.8788 19.3651 48.0311 19.9327 48.0924 20.4088 48.1595 20.9285 48.1408 21.4851 47.8323 22.0197 47.5237 22.5543 47.0511 22.8488 46.5675 23.0507 46.1246 23.2357 45.5569 23.3878 44.925 23.5571L31.343 27.198C31.3231 27.2033 31.3032 27.2086 31.2834 27.2139 30.6516 27.3833 30.084 27.5356 29.6079 27.597 29.0882 27.664 28.5316 27.6453 27.997 27.3368 27.4625 27.0282 27.1679 26.5556 26.966 26.072 26.7811 25.6291 26.6289 25.0614 26.4596 24.4296 26.4543 24.4098 26.449 24.3899 26.4437 24.37L26.3062 23.8572C26.3009 23.8373 26.2955 23.8175 26.2902 23.7977 26.1208 23.1659 25.9686 22.5982 25.9072 22.1222 25.8402 21.6025 25.8588 21.0458 26.1674 20.5113 26.4759 19.9767 26.9486 19.6821 27.4322 19.4802 27.8751 19.2953 28.4428 19.1432 29.0746 18.9739 29.0944 18.9686 29.1142 18.9632 29.1341 18.9579zm-2.1007 2.0533C26.7228 21.5493 26.9059 22.2323 27.2721 23.5983L27.4096 24.1111C27.7757 25.4771 27.9588 26.1601 28.4969 26.4707 29.0351 26.7813 29.718 26.5982 31.084 26.2321l13.5226-3.6249C45.9726 22.241 46.6556 22.0579 46.9662 21.5198S47.0937 20.2987 46.7275 18.9327L46.5901 18.4198C46.2239 17.0539 46.0408 16.3709 45.5027 16.0603 44.9646 15.7497 44.2816 15.9327 42.9156 16.2989L29.393 19.9238C28.027 20.29 27.3441 20.4731 27.0334 21.0112z" fill="#bbcde8"/><path d="M26 35.5c0 .2761.2239.5.5.5h12c.2761.0.5-.2239.5-.5v-1c0-.2761-.2239-.5-.5-.5h-12c-.2761.0-.5.2239-.5.5v1z" fill="#fff"/><path d="M30.851 23.4314C30.9225 23.6981 31.1967 23.8564 31.4634 23.7849l11.5908-3.107C43.3209 20.6064 43.4792 20.3322 43.4077 20.0654L43.1488 19.0995C43.0773 18.8328 42.8031 18.6746 42.5364 18.7461l-11.5908 3.107C30.6789 21.9246 30.5206 22.1988 30.5921 22.4655L30.851 23.4314z" fill="#fff"/><path d="M26 40.5c0 .2761.2239.5.5.5h9c.2761.0.5-.2239.5-.5v-1c0-.2761-.2239-.5-.5-.5h-9c-.2761.0-.5.2239-.5.5v1z" fill="#fff"/><path d="M26 45.5c0 .2761.2239.5.5.5h9c.2761.0.5-.2239.5-.5v-1c0-.2761-.2239-.5-.5-.5h-9c-.2761.0-.5.2239-.5.5v1z" fill="#fff"/><path fill-rule="evenodd" clip-rule="evenodd" d="M93 51C93.5523 51 94 51.4477 94 52c0 4.071-.8018 8.1021-2.3597 11.8632C90.0824 67.6243 87.7989 71.0417 84.9203 73.9203 82.0417 76.7989 78.6243 79.0824 74.8632 80.6403 71.1021 82.1982 67.071 83 63 83 62.4477 83 62 82.5523 62 82S62.4477 81 63 81C66.8083 81 70.5794 80.2499 74.0978 78.7925 77.6163 77.3351 80.8132 75.199 83.5061 72.5061 86.199 69.8132 88.3351 66.6163 89.7925 63.0978 91.2499 59.5794 92 55.8083 92 52 92 51.4477 92.4477 51 93 51z" fill="#2967c2"/><path d="M87 52c0 13.2548-10.7452 24-24 24S39 65.2548 39 52 49.7452 28 63 28 87 38.7452 87 52z" fill="#94b7eb"/><path d="M83 52c0 11.0457-8.9543 20-20 20S43 63.0457 43 52s8.9543-20 20-20 20 8.9543 20 20z" fill="#94b7eb"/><path fill-rule="evenodd" clip-rule="evenodd" d="M63 33c-10.4934.0-19 8.5066-19 19s8.5066 19 19 19c10.4934.0 19-8.5066 19-19S73.4934 33 63 33zM42 52c0-11.598 9.402-21 21-21s21 9.402 21 21-9.402 21-21 21-21-9.402-21-21z" fill="#fff"/><path d="M68.5205 54.8C68.5205 52.78 67.4805 51.62 65.0005 50.88L62.4005 50.14C61.0205 49.74 60.4205 49.2 60.4205 48.42c0-1.08 1.12-1.88 2.56-1.84C64.5205 46.6 65.6805 47.56 65.9605 48.98L68.4205 48.54C67.9005 46.3 66.4405 44.86 64.3005 44.44V42.62h-2.4V44.4c-2.4.340000000000003-3.88 1.9-3.88 4.14.0 1.8 1.06 3.06 3.04 3.68l3.48 1.06C65.6605 53.64 66.1405 54.14 66.1405 54.96c0 1.2-1.2 2.08-2.86 2.08-1.7.0-3.02-1.04-3.40000000000001-2.68L57.4805 54.74C57.8605 57.14 59.5205 58.78 61.9005 59.2V61h2.4V59.22C66.8605 58.84 68.5205 57.14 68.5205 54.8z" fill="#447fd5"/></svg>