<svg width="108" height="102" viewBox="0 0 108 102" fill="none" xmlns="http://www.w3.org/2000/svg"><path d="M17.3982 37.0237C10.9887 53.721 7.78398 62.0696 10.6847 69.3402 10.8787 69.8266 11.0918 70.3052 11.3234 70.7748c3.4622 7.0206 11.8108 10.2253 28.5081 16.6348C56.5288 93.8191 64.8775 97.0239 72.148 94.1232 72.6344 93.9292 73.113 93.7161 73.5827 93.4845c7.0206-3.4622 10.2253-11.8108 16.6348-28.5081C96.627 48.279 99.8317 39.9304 96.9311 32.6598 96.737 32.1734 96.5239 31.6949 96.2923 31.2252 92.8302 24.2046 84.4815 20.9999 67.7842 14.5904 51.0869 8.18087 42.7383 4.97613 35.4677 7.8768 34.9813 8.07084 34.5027 8.28392 34.0331 8.51553 27.0125 11.9777 23.8077 20.3263 17.3982 37.0237z" fill="#eaf0f9"/><path d="M24 31C24 28.1716 24 26.7574 24.8787 25.8787 25.7574 25 27.1716 25 30 25H78C80.8284 25 82.2426 25 83.1213 25.8787 84 26.7574 84 28.1716 84 31V50C84 52.8284 84 54.2426 83.1213 55.1213 82.2426 56 80.8284 56 78 56H30C27.1716 56 25.7574 56 24.8787 55.1213 24 54.2426 24 52.8284 24 50V31z" fill="#2967c2"/><path d="M20 27C20 24.1716 20 22.7574 20.8787 21.8787 21.7574 21 23.1716 21 26 21H74C76.8284 21 78.2426 21 79.1213 21.8787 80 22.7574 80 24.1716 80 27V46C80 48.8284 80 50.2426 79.1213 51.1213 78.2426 52 76.8284 52 74 52H26C23.1716 52 21.7574 52 20.8787 51.1213 20 50.2426 20 48.8284 20 46V27z" fill="#447fd5"/><path d="M22 27C22 25.1144 22 24.1716 22.5858 23.5858 23.1716 23 24.1144 23 26 23H74C75.8856 23 76.8284 23 77.4142 23.5858 78 24.1716 78 25.1144 78 27V46C78 47.8856 78 48.8284 77.4142 49.4142 76.8284 50 75.8856 50 74 50H26C24.1144 50 23.1716 50 22.5858 49.4142 22 48.8284 22 47.8856 22 46V27z" fill="#447fd5"/><path fill-rule="evenodd" clip-rule="evenodd" d="M74 24H26C25.0289 24 24.4012 24.0021 23.9387 24.0643 23.505 24.1226 23.369 24.2168 23.2929 24.2929S23.1226 24.505 23.0643 24.9387C23.0021 25.4012 23 26.0289 23 27V46C23 46.9711 23.0021 47.5988 23.0643 48.0613 23.1226 48.495 23.2168 48.631 23.2929 48.7071 23.369 48.7832 23.505 48.8774 23.9387 48.9357 24.4012 48.9979 25.0289 49 26 49H74C74.9711 49 75.5988 48.9979 76.0613 48.9357 76.495 48.8774 76.631 48.7832 76.7071 48.7071 76.7832 48.631 76.8774 48.495 76.9357 48.0613 76.9979 47.5988 77 46.9711 77 46V27C77 26.0289 76.9979 25.4012 76.9357 24.9387 76.8774 24.505 76.7832 24.369 76.7071 24.2929S76.495 24.1226 76.0613 24.0643C75.5988 24.0021 74.9711 24 74 24zM22.5858 23.5858C22 24.1716 22 25.1144 22 27V46C22 47.8856 22 48.8284 22.5858 49.4142 23.1716 50 24.1144 50 26 50H74C75.8856 50 76.8284 50 77.4142 49.4142 78 48.8284 78 47.8856 78 46V27C78 25.1144 78 24.1716 77.4142 23.5858 76.8284 23 75.8856 23 74 23H26C24.1144 23 23.1716 23 22.5858 23.5858z" fill="#2967c2"/><path d="M57 36c0 3.866-3.134 7-7 7s-7-3.134-7-7 3.134-7 7-7 7 3.134 7 7z" fill="#fff"/><path d="M28 35.5c0-.2761.2239-.5.5-.5h9c.2761.0.5.2239.5.5v1c0 .2761-.2239.5-.5.5h-9c-.2761.0-.5-.2239-.5-.5v-1z" fill="#fff"/><path d="M62 35.5c0-.2761.2239-.5.5-.5h9c.2761.0.5.2239.5.5v1c0 .2761-.2239.5-.5.5h-9c-.2761.0-.5-.2239-.5-.5v-1z" fill="#fff"/><path d="M41.1046 63.562C39.6411 58.0978 38.9093 55.3656 40.1522 53.2135c1.2429-2.1522 3.975-2.884 9.4392-4.3475l28.9787-7.7614C84.0343 39.6411 86.7665 38.9093 88.9186 40.1522 91.0708 41.3951 91.8026 44.1272 93.2661 49.5915L96.3707 61.1829C97.8342 66.6472 98.5659 69.3793 97.323 71.5315 96.0802 73.6837 93.348 74.4154 87.8838 75.8789L58.9052 83.6404C53.4409 85.1039 50.7088 85.8356 48.5566 84.5927 46.4044 83.3499 45.6726 80.6177 44.2091 75.1535L41.1046 63.562z" fill="#94b7eb"/><path d="M49.815 76.7577C49.937 77.2131 49.998 77.4408 50.1773 77.5443 50.3567 77.6479 50.5843 77.5869 51.0397 77.465L74.2226 71.2558C74.6779 71.1339 74.9056 71.0729 75.0092 70.8936 75.1128 70.7142 75.0518 70.4865 74.9298 70.0312 74.8079 69.5758 74.7469 69.3481 74.5675 69.2446 74.3882 69.141 74.1605 69.202 73.7052 69.3239L50.5223 75.5331C50.0669 75.655 49.8392 75.716 49.7357 75.8954 49.6321 76.0747 49.6931 76.3024 49.815 76.7577z" fill="#447fd5"/><path d="M48.0042 69.9961C47.7603 69.0854 47.6384 68.6301 47.8455 68.2714 48.0527 67.9127 48.508 67.7907 49.4187 67.5468L76.4654 60.3028C77.3761 60.0589 77.8315 59.9369 78.1902 60.1441 78.5489 60.3512 78.6709 60.8066 78.9148 61.7173S79.2806 63.0833 79.0735 63.442C78.8664 63.8007 78.411 63.9227 77.5003 64.1666l-27.0467 7.244C49.5429 71.6545 49.0875 71.7765 48.7288 71.5693 48.3701 71.3622 48.2482 70.9068 48.0042 69.9961z" fill="#447fd5"/><path fill-rule="evenodd" clip-rule="evenodd" d="M80.7089 52.9547C80.566 52.4212 80.8827 51.8729 81.4161 51.7301l5.7958-1.5523C87.7454 50.0349 88.2937 50.3515 88.4365 50.885 88.5794 51.4185 88.2628 51.9668 87.7293 52.1097L81.9336 53.662C81.4001 53.8048 80.8518 53.4882 80.7089 52.9547z" fill="#447fd5"/></svg>