<svg width="18" height="18" viewBox="0 0 18 18" fill="none" xmlns="http://www.w3.org/2000/svg"><path d="M3.45744 1.4625c.39053-.39052 1.02369-.39052 1.41422.0L7.61033 4.20117c.39052.39052.39052 1.02369.0 1.41421L6.49563 6.73009C7.76316 8.8681 8.98488 10.0898 11.1565 11.3909l1.1147-1.1147C12.6617 9.88569 13.2948 9.88569 13.6854 10.2762l2.8535 2.8536C16.9294 13.5203 16.9294 14.1535 16.5389 14.544l-1.608 1.5627C14.5806 16.4471 14.1168 16.6597 13.6298 16.6231 12.3225 16.525 10.9934 16.0391 9.76925 15.3788c-1.36523-.7362-2.70586-1.7457-3.90431-2.8888C5.71277 12.3449 5.61134 12.2364 5.51139 12.1365 4.36829 10.938 3.35885 9.5974 2.62258 8.23217 1.96237 7.008 1.47646 5.6789 1.37828 4.37159 1.3417 3.88458 1.55437 3.42081 1.89474 3.07056L3.45744 1.4625z" stroke="#7a8aa2" stroke-width="2" stroke-linejoin="round"/></svg>