<svg width="98" height="72" viewBox="0 0 98 72" fill="none" xmlns="http://www.w3.org/2000/svg"><rect width="54" height="54" rx="12" transform="matrix(0.984808 0.173648 0.173648 -0.984808 17.7217 57.9013)" fill="#d6f8f3"/><path d="M84.371 46.5085C83.9676 45.6262 83.3859 44.8267 82.6585 44.1547 81.9306 43.4808 81.0723 42.9452 80.1304 42.5771 79.1537 42.1939 78.1062 41.9977 77.0486 42 75.5649 42 74.1172 42.3838 72.8592 43.1087 72.5583 43.2821 72.2724 43.4725 72.0015 43.68 71.7306 43.4725 71.4447 43.2821 71.1438 43.1087 69.8857 42.3838 68.4381 42 66.9544 42 65.886 42 64.8507 42.1933 63.8725 42.5771 62.9275 42.9466 62.0758 43.4782 61.3445 44.1547 60.6161 44.826 60.0343 45.6256 59.632 46.5085 59.2137 47.4266 59 48.4017 59 49.4051 59 50.3517 59.2047 51.3381 59.6109 52.3416c.3401.8386.8277 1.7084 1.4507 2.5868C62.0487 56.3184 63.4061 57.7682 65.0914 59.2379 67.8844 61.674 70.6502 63.3568 70.7676 63.4251L71.4808 63.8572C71.7968 64.0476 72.2031 64.0476 72.5191 63.8572L73.2324 63.4251C73.3498 63.354 76.1126 61.674 78.9085 59.2379 80.5939 57.7682 81.9512 56.3184 82.9384 54.9284 83.5614 54.05 84.0519 53.1802 84.389 52.3416 84.7953 51.3381 85 50.3517 85 49.4051 85.003 48.4017 84.7893 47.4266 84.371 46.5085z" fill="#5ee1d2"/><path fill-rule="evenodd" clip-rule="evenodd" d="M68.4692 61.893C68.4997 61.8783 68.5296 61.862 68.5588 61.8442L69.3269 61.3728C69.4533 61.2953 72.4287 59.4626 75.4397 56.8049 77.2547 55.2017 78.7164 53.6201 79.7795 52.1037 80.4504 51.1455 80.9787 50.1965 81.3417 49.2817 81.7793 48.1871 81.9997 47.111 81.9997 46.0783 82.0026 45.1006 81.8193 44.1477 81.4592 43.2416 81.8883 43.508 82.29 43.8136 82.6584 44.1547 83.3858 44.8267 83.9675 45.6262 84.3709 46.5084 84.7892 47.4266 85.0029 48.4016 84.9999 49.4051 84.9999 50.3517 84.7952 51.3381 84.3889 52.3416 84.0519 53.1801 83.5613 54.05 82.9383 54.9284 81.9512 56.3184 80.5938 57.7682 78.9084 59.2378 76.1125 61.674 73.3497 63.354 73.2323 63.425L72.5191 63.8571C72.203 64.0476 71.7967 64.0476 71.4807 63.8571L70.7675 63.425C70.7005 63.3861 69.7724 62.8222 68.4692 61.893z" fill="#00cab2"/><path d="M72 37C72 30.7817 69.5323 25.1397 65.5227 21M26 37c0-6.2183 2.4677-11.8603 6.4773-16M58 58.1725C55.2357 59.349 52.1939 60 49 60 46.7426 60 44.5612 59.6748 42.5 59.0687" stroke="#00ac98" stroke-width="2" stroke-linecap="round"/><path d="M24 62H11V44.8095h4.6429L24 62z" fill="#00cab2"/><path d="M24 62H37V44.8095H32.3571L24 62z" fill="#00cab2"/><path d="M14.0001 42.5058C17.6364 40.9474 22.182 43.2987 24 45.3766 24 48.4935 23.9999 57.3247 24 62c-1.8181-2.0779-6.3636-3.8278-9.9999-2.8708C14 55.4928 14 45.6227 14.0001 42.5058z" fill="#5ee1d2"/><path d="M33.9999 42.5058C30.3636 40.9474 25.818 43.2987 24 45.3766 24 48.4935 24.0001 57.3247 24 62c1.8181-2.0779 6.3636-3.8278 9.9999-2.8708C34 55.4928 34 45.6227 33.9999 42.5058z" fill="#5ee1d2"/><path d="M55.1111 13 56.1042 7.74243C56.5695 5.27925 54.6804 3 52.1737 3H43.8263c-2.5067.0-4.3958 2.27925-3.9305 4.74243L40.8889 13" stroke="#5ee1d2" stroke-width="3"/><circle cx="48" cy="20" r="11" fill="#5ee1d2"/><path fill-rule="evenodd" clip-rule="evenodd" d="M46.0001 29c6.0752.0 11-4.9249 11-11 0-2.5278-.852600000000003-4.8564-2.286-6.714 2.6069 2.0115 4.286 5.1667 4.286 8.714.0 6.0751-4.92480000000001 11-11 11C44.4528 31 41.2976 29.3209 39.2861 26.714 41.1437 28.1474 43.4724 29 46.0001 29z" fill="#00cab2"/><circle cx="44.5" cy="16.5" r="2.5" fill="#fff"/></svg>