<svg width="108" height="94" viewBox="0 0 108 94" fill="none" xmlns="http://www.w3.org/2000/svg"><path d="M17.3982 33.0237C10.9887 49.721 7.78398 58.0696 10.6847 65.3402 10.8787 65.8266 11.0918 66.3052 11.3234 66.7748c3.4622 7.0206 11.8108 10.2253 28.5081 16.6348C56.5288 89.8191 64.8775 93.0239 72.148 90.1232 72.6344 89.9292 73.113 89.7161 73.5827 89.4845c7.0206-3.4622 10.2253-11.8108 16.6348-28.5081C96.627 44.279 99.8317 35.9304 96.9311 28.6598 96.737 28.1734 96.5239 27.6949 96.2923 27.2252 92.8302 20.2046 84.4815 16.9999 67.7842 10.5904 51.0869 4.18087 42.7383.976126 35.4677 3.8768 34.9813 4.07084 34.5027 4.28392 34.0331 4.51553 27.0125 7.9777 23.8077 16.3263 17.3982 33.0237z" fill="#ebfaf8"/><path d="M30 21c0-4.714.0-7.0711 1.4645-8.5355C32.9289 11 35.286 11 40 11H69c4.714.0 7.0711.0 8.5355 1.4645C79 13.9289 79 16.286 79 21V72c0 4.714.0 7.0711-1.4645 8.5355C76.0711 82 73.714 82 69 82H40c-4.714.0-7.0711.0-8.5355-1.4645C30 79.0711 30 76.714 30 72V21z" fill="#5ee1d2"/><path d="M38 22C38 21.0572 38 20.5858 38.2929 20.2929 38.5858 20 39.0572 20 40 20H61C61.9428 20 62.4142 20 62.7071 20.2929 63 20.5858 63 21.0572 63 22S63 23.4142 62.7071 23.7071C62.4142 24 61.9428 24 61 24H40C39.0572 24 38.5858 24 38.2929 23.7071 38 23.4142 38 22.9428 38 22z" fill="#00ac98"/><path d="M67 22C67 21.0572 67 20.5858 67.2929 20.2929S68.0572 20 69 20 70.4142 20 70.7071 20.2929 71 21.0572 71 22 71 23.4142 70.7071 23.7071 69.9428 24 69 24 67.5858 24 67.2929 23.7071 67 22.9428 67 22z" fill="#00ac98"/><path d="M38 60.5C38 60.2239 38.1522 60 38.34 60H54.66C54.8478 60 55 60.2239 55 60.5v1C55 61.7761 54.8478 62 54.66 62H38.34C38.1522 62 38 61.7761 38 61.5v-1z" fill="#fff"/><path d="M38 65.5C38 65.2239 38.2121 65 38.4737 65H55.5263C55.7879 65 56 65.2239 56 65.5v1C56 66.7761 55.7879 67 55.5263 67H38.4737C38.2121 67 38 66.7761 38 66.5v-1z" fill="#fff"/><path d="M38 70.5C38 70.2239 38.1589 70 38.3548 70H59.6452C59.8411 70 60 70.2239 60 70.5v1C60 71.7761 59.8411 72 59.6452 72H38.3548C38.1589 72 38 71.7761 38 71.5v-1z" fill="#fff"/><path d="M38.3667 42.335C37.7975 40.5612 37.5129 39.6743 37.8712 38.9515 38.2296 38.2287 39.091 37.9523 40.8138 37.3994l23.1459-7.4279C65.6825 29.4187 66.5439 29.1422 67.2559 29.5215 67.968 29.9008 68.2526 30.7877 68.8218 32.5615l1.8113 5.6442C71.2024 39.9795 71.487 40.8664 71.1286 41.5892 70.7703 42.312 69.9089 42.5884 68.1861 43.1413L45.0402 50.5692C43.3174 51.1221 42.456 51.3985 41.7439 51.0192 41.0319 50.6399 40.7473 49.753 40.178 47.9792L38.3667 42.335z" stroke="#00ac98" stroke-width=".864458" stroke-linecap="round" stroke-linejoin="round"/><path d="M47.4175 45.4476 48.4885 45.1039 47.9614 43.4616 48.8617 43.1727C50.0266 42.7989 50.4813 41.8864 50.1566 40.8748c-.323-1.0066-1.2161-1.5029-2.3662-1.1338L45.792 40.3823l1.6255 5.0653zM47.686 42.6034 47.1439 40.9142 47.8661 40.6824C48.4844 40.484 48.8916 40.7243 49.0536 41.2288 49.2147 41.7309 49.0265 42.1732 48.4132 42.3701L47.686 42.6034z" fill="#00ac98"/><path d="M52.2151 43.908 52.2204 42.6323 54.0481 42.0457 54.7947 43.0801 55.9423 42.7118l-3.3716-4.5049L51.1906 38.6498 51.0675 44.2763 52.2151 43.908zM52.2242 41.709 52.2323 39.5922 52.2719 39.5795l1.2384 1.7168L52.2242 41.709z" fill="#00ac98"/><path d="M55.9974 37.1072 54.9265 37.4509l1.6255 5.0653L57.6229 42.1725l-1.6255-5.0653z" fill="#00ac98"/><path d="M60.2997 41.3135c1.5433-.4953 2.1718-1.75 1.6638-3.3329C61.4572 36.4026 60.2175 35.7529 58.689 36.2434L56.8785 36.8245l1.6256 5.0653L60.2997 41.3135zM59.2805 40.6285 58.2439 37.3984 58.9266 37.1793C59.8763 36.8745 60.5339 37.1981 60.8951 38.3235 61.2578 39.4538 60.9129 40.1046 59.9607 40.4102L59.2805 40.6285z" fill="#00ac98"/><circle cx="76" cy="62" r="13" fill="#00cab2"/><path d="M81 59 74.3333 66 71 62.5" stroke="#fff" stroke-width="2" stroke-linecap="square" stroke-linejoin="round"/></svg>