<svg width="640" height="640" viewBox="0 0 640 640" fill="none" xmlns="http://www.w3.org/2000/svg"><g filter="url(#filter0_d_4891_77298)"><path d="M136.394 255.441C139.583 193.447 141.178 162.45 161.428 144.182c20.25-18.269 51.247-16.674 113.241-13.484l110.727 5.696C447.39 139.583 478.386 141.178 496.655 161.428c18.268 20.25 16.673 51.247 13.484 113.241l-5.697 110.727C501.253 447.39 499.658 478.387 479.408 496.655c-20.249 18.268-51.246 16.673-113.24 13.484l-110.727-5.697C193.447 501.253 162.45 499.658 144.182 479.408c-18.269-20.249-16.674-51.246-13.485-113.24l5.697-110.727z" fill="#fff"/></g><path d="M248.827 124.498C246.266 118.384 244.37 113.858 243.252 110.16 242.138 106.477 241.826 103.707 242.36 101.102 242.802 98.9448 243.644 96.8898 244.841 95.0423 246.288 92.81 248.453 91.0552 251.831 89.2111 255.221 87.36 259.746 85.4628 265.86 82.9013 271.974 80.3398 276.501 78.4446 280.198 77.3264 283.881 76.2124 286.651 75.8997 289.257 76.4341 291.414 76.8764 293.469 77.7179 295.316 78.9153 297.548 80.3621 299.303 82.5275 301.147 85.9049 302.998 89.295 304.896 93.8206 307.457 99.9346 310.019 106.049 311.914 110.575 313.032 114.272 314.146 117.955 314.459 120.725 313.924 123.331 313.482 125.488 312.64 127.543 311.443 129.39 309.996 131.622 307.831 133.377 304.453 135.221 301.063 137.073 296.538 138.97 290.424 141.531 284.31 144.093 279.783 145.988 276.086 147.106 272.403 148.22 269.633 148.533 267.027 147.998 264.871 147.556 262.816 146.715 260.968 145.517 258.736 144.07 256.981 141.905 255.137 138.528 253.286 135.137 251.389 130.612 248.827 124.498z" stroke="#00cab2" stroke-width="1.6875"/><path d="M151.462 222.742c14.523-60.353 21.785-90.53 45.046-104.767C219.769 103.737 249.945 110.999 310.299 125.522l107.796 25.94c60.353 14.523 90.529 21.785 104.767 45.046C537.099 219.769 529.838 249.946 515.314 310.299L489.375 418.095c-14.524 60.353-21.785 90.529-45.046 104.767C421.067 537.099 390.891 529.838 330.538 515.314L222.742 489.375c-60.353-14.524-90.53-21.785-104.767-45.046C103.737 421.067 110.999 390.891 125.522 330.538l25.94-107.796z" fill="#2967c2"/><path d="M390.703 248.914 385.743 246.005 384.461 240.932 383.292 240.671 382.93 242.161 380.714 238.272 377.4 237.037 373.571 239.844 372.148 244.681 375.209 248.367 380.454 250.263 387.077 254.547 390.703 248.914z" fill="#ddc8ac"/><mask id="mask0_4891_77298" style="mask-type:alpha" maskUnits="userSpaceOnUse" x="110" y="110" width="422" height="421"><path d="M152.165 222.438c14.762-60.342 22.143-90.513 45.46-104.707C220.942 103.537 251.089 110.863 311.383 125.515l126.346 30.59c58.489 16.718 71.785 17.557 85.93 40.854C537.803 220.257 530.422 250.428 515.66 310.77L489.293 418.546c-14.762 60.342-22.143 90.513-45.46 104.707C420.516 537.447 390.369 530.122 330.075 515.47L222.385 489.3c-60.294-14.652-90.441-21.978-104.585-45.275C103.655 420.727 111.036 390.556 125.798 330.214l26.367-107.776z" fill="#2967c2"/></mask><g mask="url(#mask0_4891_77298)"><path d="M248.827 124.498C246.266 118.384 244.371 113.858 243.252 110.16 242.138 106.477 241.826 103.708 242.36 101.102 242.802 98.9449 243.644 96.8899 244.841 95.0424 246.288 92.8102 248.453 91.0553 251.831 89.2112 255.221 87.3601 259.747 85.4629 265.861 82.9014 271.975 80.3399 276.501 78.4447 280.198 77.3265 283.881 76.2126 286.651 75.8999 289.257 76.4343 291.414 76.8765 293.469 77.7181 295.316 78.9154 297.548 80.3622 299.303 82.5276 301.147 85.905 302.999 89.2952 304.896 93.8207 307.457 99.9347 310.019 106.049 311.914 110.575 313.032 114.272 314.146 117.956 314.459 120.725 313.924 123.331 313.482 125.488 312.641 127.543 311.443 129.39 309.996 131.623 307.831 133.377 304.454 135.222 301.063 137.073 296.538 138.97 290.424 141.531 284.31 144.093 279.783 145.988 276.086 147.106 272.403 148.22 269.633 148.533 267.027 147.998 264.871 147.556 262.816 146.715 260.968 145.517 258.736 144.071 256.981 141.905 255.137 138.528 253.286 135.138 251.389 130.612 248.827 124.498z" stroke="#fff" stroke-width="1.6875"/><path d="M406.534 323.784C407.49 298.246 402.758 277.125 391.613 259.86c-22.871-35.424-54.886-51.558-92.108-54.557C280.416 203.767 261.891 209.01 244.275 218.062 240.421 220.044 236.633 222.205 232.881 224.431c-26.339 15.634-40.993 39.642-39.752 74.815C193.824 318.987 185.44 333.354 173.055 345.429c-2.708 2.637-5.398 5.25-7.398 8.66600000000005C162.248 359.933 162.949 364.272 168.037 367.944 171.297 370.295 174.735 372.318 177.585 375.371 181.937 380.031 182.222 382.781 178.897 388.542 175.156 395.029 175.174 395.297 180.922 399.903 182.466 401.141 184.098 402.069 181.931 404.414 178.743 407.86 179.883 411.217 182.632 413.728 186.485 417.252 187.067 421.769 186.343 426.822 185.713 431.232 184.781 435.582 183.991 439.962 181.866 451.782 184.823 457.263 195.011 460.37 205.645 463.613 216.226 460.804 226.83 459.733 233.938 459.013 240.932 456.424 248.205 458.311 252.926 459.537 255.532 462.56 256.138 468.101 257.022 476.183 259.314 483.902 260.626 491.853 261.695 498.34 262.875 510.484 268.445 510.222c22.734-1.065 95.269 19.538 105.583 18.948C380.684 528.789 380.666 528.575 378.546 521.428 374.74 508.584 365.524 466.137 362.341 453.032 358.185 435.927 360.305 417.144 369.229 402.48 373.409 395.612 378.42 389.601 383.271 383.418c14.268-18.176 22.034-39.518 23.251-59.634H406.534z" fill="#fff"/><path d="M310.092 378.776C310.656 363.201 312.734 349.209 298.804 339.49 289.085 332.706 275.435 334.539 264.337 332.563 241.163 328.432 207.569 333.967 208.982 297.134 209.57 281.91 216.766 277.405 224.675 266.21c7.547-10.683 9.726-19.783 22.473-25.341C252.658 238.464 257.931 237.857 263.429 235.316 271.373 231.638 272.917 227.835 283.124 228.591 288.455 228.984 292.362 230.882 297.599 230.317c6.858-.738 9.803-5.464 17.735-4.267C320.654 226.853 324.062 230.983 328.759 232.537 333.705 234.173 339.049 233.721 343.816 235.298c13.057 4.309 14.785 10.338 23.596 20.187 10.408 11.636 14.761 14.968 17.254 32.013C386.81 302.186 392.017 316.762 386.513 330.95 382.303 341.799 376.437 356.285 368.974 364.962 361.13 374.08 350.217 377.324 344.535 388.828 338.989 400.064 340.812 409.634 326.218 402.635 317.484 398.445 309.753 388.453 310.103 378.782L310.092 378.776z" fill="#00cab2"/><path d="M388.93 246.419 381.494 255.648l27.527 27.993L416.444 286.149l31.61-26.421L439.596 241.633l-23.571 21.004-27.095-16.218z" fill="#fff"/><path d="M496.805 491.906 497.927 497.215 489.046 504.77 482.93 500.588 486.81 494.159 495.684 486.598 496.805 491.906z" fill="#223552"/><path d="M465.756 328.717l9.911 23.588L476.602 418.685l20.365 71.395-20.365 13.624-30.67-92.186L441.202 385.256 439.32 329.958 465.756 328.717z" fill="#223552"/><path d="M417.961 335.921 417.185 420.592l12.73 109.186L451.556 525.63l-5.666-96.593 13.395-100.741-41.324 7.625z" fill="#223552"/><path d="M438.837 528.593V535.107L428.412 541.63 423.2 535.107 428.412 528.593h10.425z" fill="#223552"/><path d="M437.913 239.812 463.459 238.819s15.285 14.054 23.178 50.576C494.676 326.579 485.151 380.114 485.151 380.114S416.622 370.541 405.383 369.064l17.144-73.419 15.386-55.826V239.812z" fill="#fff"/><path d="M447.064 242.548C450.048 242.243 453.032 241.937 456.011 241.632 456.042 239.124 455.884 236.616 455.534 234.14 458.024 233.23 460.894 231.855 461.332 229.131 461.472 228.272 461.332 227.394 461.186 226.541 460.608 222.995 460.024 219.45 459.446 215.905 459.243 214.677 459.033 213.416 458.398 212.366 457.287 210.52 455.122 209.712 453.071 209.336 447.838 208.375 442.13 209.559 438.066 213.143 436.986 214.097 436.008 215.249 435.526 216.643 434.789 218.795 435.335 221.169 435.888 223.377 436.396 225.421 436.904 227.457 437.412 229.5 437.996 231.849 438.84 234.516 440.999 235.401 442.142 235.872 443.495 235.738 444.53 236.425 446.359 237.648 446.105 240.499 447.057 242.542L447.064 242.548z" fill="#eed6b0"/><path d="M417.924 207.121C417.866 204.69 418.19 202.233 418.654 200.018 419.448 196.212 423.734 194.5 427.449 194.226 435.462 193.64 443.197 189.834 451.02 192.775 455.49 194.455 461.497 194.856 465.548 197.224 467.237 198.21 468.584 199.757 469.638 201.463 473.276 207.369 473.283 215.504 469.663 221.423 468.85 222.753 467.879 223.963 466.856 225.121 464.742 227.521 462.215 230.48 459.306 231.365 459.243 228.641 461.618 220.061 459.624 217.821 456.462 214.275 449.299 215.497 445.375 216.369 441.088 217.311 437.266 220.487 433.018 221.162 429.963 221.646 426.058 220.067 423.461 218.412 419.39 215.809 418.032 211.513 417.93 207.121H417.924z" fill="#223552"/><path d="M444.955 243.122 418.101 355.711 415.898 370.477 449.356 375.092S448.035 321.181 448.473 313.989C448.911 306.803 453.877 291.253 454.639 274.501 455.077 264.813 458.017 247.405 455.96 241.741l-11.005 1.381z" fill="#f17070"/><path d="M467.485 260.255l-32.689 32.347-48.482-15.149L382.847 288.885l53.282 25.555h14.027l29.629-26.427-12.3-27.758z" fill="#fff"/><path d="M383.158 287.855 374.719 288.014 369.562 280.395 382.662 272.757 386.314 277.455 383.158 287.855z" fill="#eed6b0"/></g><circle cx="81.5469" cy="225.547" r="10.5469" fill="#2967c2"/><circle cx="381.297" cy="84.2969" r="17.2969" fill="#ffc600"/><defs><filter id="filter0_d_4891_77298" x="44.3403" y="44.3405" width="552.156" height="552.156" filterUnits="userSpaceOnUse" color-interpolation-filters="sRGB"><feFlood flood-opacity="0" result="BackgroundImageFix"/><feColorMatrix in="SourceAlpha" type="matrix" values="0 0 0 0 0 0 0 0 0 0 0 0 0 0 0 0 0 0 127 0" result="hardAlpha"/><feOffset/><feGaussianBlur stdDeviation="42.1875"/><feColorMatrix type="matrix" values="0 0 0 0 0 0 0 0 0 0 0 0 0 0 0 0 0 0 0.1 0"/><feBlend mode="normal" in2="BackgroundImageFix" result="effect1_dropShadow_4891_77298"/><feBlend mode="normal" in="SourceGraphic" in2="effect1_dropShadow_4891_77298" result="shape"/></filter></defs></svg>