<svg width="254" height="83" viewBox="0 0 254 83" fill="none" xmlns="http://www.w3.org/2000/svg"><rect y="2" width="15" height="81" rx="3" fill="#00cab2"/><path d="M71.8399 31.235C74.7365 31.235 77.5965 31.7117 80.4199 32.665c2.8233.953299999999999 5.3533 2.42 7.59 4.4 2.2367 1.98 4.0333 4.4917 5.39 7.535 1.3933 3.0067 2.09 6.5633 2.09 10.67C95.4899 59.01 94.7932 62.5667 93.3999 65.94 92.0065 69.2767 90.0266 72.21 87.4599 74.74 84.9299 77.2333 81.8682 79.2133 78.2749 80.68 74.6816 82.1467 70.7032 82.88 66.3399 82.88 61.8666 82.88 57.8516 82.1833 54.2949 80.79 50.7382 79.36 47.7132 77.38 45.2199 74.85 42.7632 72.32 40.8749 69.295 39.5549 65.775 38.2715 62.255 37.6299 58.3867 37.6299 54.17c0-3.9967.770000000000003-7.975 2.31-11.935s3.8133-7.9933 6.82-12.1l18.04-24.36501C65.6066 4.66999 66.8166 3.75332 68.4299 3.01998 70.0432 2.24999 71.8765 1.86499 73.9299 1.86499h15.18L65.3499 30.245C64.9832 30.6483 64.6166 31.07 64.2499 31.51 63.9199 31.9133 63.5899 32.3167 63.2599 32.72 64.5432 32.2433 65.8816 31.8767 67.2749 31.62 68.7049 31.3633 70.2266 31.235 71.8399 31.235zM54.0199 56.48C54.0199 58.46 54.2582 60.2383 54.7349 61.815 55.2116 63.3917 55.9449 64.7483 56.9349 65.885 57.9249 67.0217 59.1716 67.9017 60.6749 68.525 62.1782 69.1117 63.9566 69.405 66.0099 69.405 67.7699 69.405 69.4015 69.075 70.9049 68.415 72.4449 67.755 73.7649 66.8567 74.8649 65.72 75.9649 64.5467 76.8265 63.19 77.4499 61.65 78.1099 60.0733 78.4399 58.3683 78.4399 56.535 78.4399 54.4817 78.1282 52.6483 77.5049 51.035 76.9182 49.4216 76.0749 48.065 74.9749 46.965 73.8749 45.865 72.5366 45.0217 70.9599 44.435 69.4199 43.8483 67.6966 43.555 65.7899 43.555 64.0666 43.555 62.4899 43.8667 61.0599 44.49c-1.43.5867-2.6767 1.4483-3.74 2.585C56.2932 48.2117 55.4866 49.5683 54.8999 51.145 54.3132 52.7217 54.0199 54.5 54.0199 56.48z" fill="#fff"/><path d="M161.608 41.905C161.608 48.9083 160.857 54.9767 159.353 60.11 157.85 65.2433 155.76 69.4967 153.083 72.87 150.443 76.2433 147.29 78.755 143.623 80.405 139.993 82.055 136.052 82.88 131.798 82.88 127.545 82.88 123.603 82.055 119.973 80.405 116.38 78.755 113.263 76.2433 110.623 72.87s-4.711-7.6267-6.215-12.76C102.942 54.9767 102.208 48.9083 102.208 41.905c0-7.0033.733999999999995-13.0717 2.2-18.205 1.504-5.1333 3.575-9.3867 6.215-12.76C113.263 7.56665 116.38 5.07332 119.973 3.45998c3.63-1.64999 7.572-2.474995 11.825-2.474995C136.052.984985 139.993 1.80999 143.623 3.45998 147.29 5.07332 150.443 7.56665 153.083 10.94 155.76 14.3133 157.85 18.5667 159.353 23.7 160.857 28.8333 161.608 34.9017 161.608 41.905zm-17.6.0C144.008 36.3683 143.66 31.84 142.963 28.32 142.267 24.7633 141.332 21.9767 140.158 19.96 139.022 17.9433 137.72 16.5683 136.253 15.835 134.787 15.065 133.302 14.68 131.798 14.68c-1.50300000000001.0-2.988.385-4.455 1.155C125.913 16.5683 124.63 17.9433 123.493 19.96 122.393 21.9767 121.495 24.7633 120.798 28.32 120.138 31.84 119.808 36.3683 119.808 41.905 119.808 47.4783 120.138 52.025 120.798 55.545 121.495 59.065 122.393 61.8517 123.493 63.905 124.63 65.9217 125.913 67.315 127.343 68.085 128.81 68.8183 130.295 69.185 131.798 69.185 133.302 69.185 134.787 68.8183 136.253 68.085 137.72 67.315 139.022 65.9217 140.158 63.905 141.332 61.8517 142.267 59.065 142.963 55.545 143.66 52.025 144.008 47.4783 144.008 41.905z" fill="#fff"/><path d="M207.157 21.28c0 2.9333-.532000000000011 5.61-1.595 8.03C204.499 31.73 203.087 33.82 201.327 35.58 199.567 37.3033 197.514 38.6417 195.167 39.595 192.857 40.5483 190.437 41.025 187.907 41.025 185.12 41.025 182.554 40.5483 180.207 39.595 177.897 38.6417 175.88 37.3033 174.157 35.58 172.47 33.82 171.15 31.73 170.197 29.31 169.244 26.89 168.767 24.2133 168.767 21.28 168.767 18.2367 169.244 15.4867 170.197 13.03 171.15 10.5367 172.47 8.40999 174.157 6.64998 175.88 4.88998 177.897 3.53331 180.207 2.57998 182.554 1.58998 185.12 1.09498 187.907 1.09498 190.694 1.09498 193.26 1.58998 195.607 2.57998 197.99 3.53331 200.025 4.88998 201.712 6.64998 203.435 8.40999 204.774 10.5367 205.727 13.03 206.68 15.4867 207.157 18.2367 207.157 21.28zm-13.09.0C194.067 19.41 193.902 17.87 193.572 16.66 193.279 15.4133 192.857 14.4233 192.307 13.69 191.757 12.9567 191.097 12.4433 190.327 12.15 189.594 11.8566 188.787 11.71 187.907 11.71 187.027 11.71 186.22 11.8566 185.487 12.15 184.754 12.4433 184.13 12.9567 183.617 13.69 183.104 14.4233 182.7 15.4133 182.407 16.66 182.114 17.87 181.967 19.41 181.967 21.28 181.967 23.04 182.114 24.5067 182.407 25.68 182.7 26.8533 183.104 27.7883 183.617 28.485 184.13 29.1817 184.754 29.6767 185.487 29.97 186.22 30.2633 187.027 30.41 187.907 30.41 188.787 30.41 189.594 30.2633 190.327 29.97 191.097 29.6767 191.757 29.1817 192.307 28.485 192.857 27.7883 193.279 26.8533 193.572 25.68 193.902 24.5067 194.067 23.04 194.067 21.28zm38.28-16.88501C232.897 3.77165 233.575 3.20332 234.382 2.68999 235.189 2.13999 236.307 1.86499 237.737 1.86499h12.43L189.777 79.58C189.227 80.2767 188.53 80.8633 187.687 81.34 186.88 81.78 185.89 82 184.717 82h-12.76l60.39-77.60501zM253.247 63.19C253.247 66.1233 252.715 68.8183 251.652 71.275 250.589 73.695 249.177 75.785 247.417 77.545 245.657 79.2683 243.604 80.6067 241.257 81.56 238.947 82.5133 236.527 82.99 233.997 82.99 231.21 82.99 228.644 82.5133 226.297 81.56 223.987 80.6067 221.97 79.2683 220.247 77.545 218.56 75.785 217.24 73.695 216.287 71.275 215.334 68.8183 214.857 66.1233 214.857 63.19 214.857 60.1467 215.334 57.3967 216.287 54.94 217.24 52.4467 218.56 50.32 220.247 48.56 221.97 46.8 223.987 45.4433 226.297 44.49 228.644 43.5 231.21 43.005 233.997 43.005 236.784 43.005 239.35 43.5 241.697 44.49 244.08 45.4433 246.115 46.8 247.802 48.56 249.525 50.32 250.864 52.4467 251.817 54.94 252.77 57.3967 253.247 60.1467 253.247 63.19zm-13.09.0C240.157 61.3567 239.992 59.835 239.662 58.625 239.369 57.3783 238.947 56.3883 238.397 55.655 237.847 54.9217 237.187 54.4083 236.417 54.115 235.684 53.8217 234.877 53.675 233.997 53.675 233.117 53.675 232.31 53.8217 231.577 54.115 230.844 54.4083 230.22 54.9217 229.707 55.655S228.79 57.3783 228.497 58.625C228.204 59.835 228.057 61.3567 228.057 63.19 228.057 64.95 228.204 66.4166 228.497 67.59 228.79 68.7633 229.194 69.6983 229.707 70.395 230.22 71.0917 230.844 71.5867 231.577 71.88S233.117 72.32 233.997 72.32C234.877 72.32 235.684 72.1733 236.417 71.88 237.187 71.5867 237.847 71.0917 238.397 70.395 238.947 69.6983 239.369 68.7633 239.662 67.59 239.992 66.4166 240.157 64.95 240.157 63.19z" fill="#fff"/></svg>