<svg width="609" height="465" viewBox="0 0 609 465" fill="none" xmlns="http://www.w3.org/2000/svg"><g clip-path="url(#clip0_4837_75234)"><g filter="url(#filter0_d_4837_75234)"><path d="M124.103 236.354c-12.293-50.828-18.439-76.242-6.473-95.853 11.966-19.611 37.371-25.759 88.182-38.056L368.529 63.0644c50.811-12.2971 76.216-18.4456 95.82-6.4754s25.75 37.3845 38.043 88.213l20.861 86.259C535.546 281.89 541.692 307.304 529.726 326.915c-11.966 19.61-37.371 25.759-88.182 38.056l-162.717 39.38C228.016 416.648 202.611 422.797 183.007 410.826c-19.604-11.97-25.75-37.384-38.043-88.213l-20.861-86.259z" fill="#fff"/></g><path d="M290.174 354.296c13.299 37.952-58.885 33.362-53.824 72.748" stroke="#ffc600" stroke-width="2" stroke-linecap="round"/><path d="M442.786 75.6203c64.082 23.4604 96.122 35.1907 108.089 60.7497C562.841 161.929 550.06 191.336 524.499 250.149l-17.521 40.312c-20.401 46.939-43.066 100.12-103.914 102.104L154.652 388.609C149.753 388.736 145.242 388.677 141.063 388.393L136.935 388.026C126.691 386.885 118.538 384.146 111.509 379.12c-18.9606-13.56-22.3296-38.475-29.0677-88.307L77.8229 256.657c-6.7381-49.831-10.1071-74.747 4.667-92.149 14.7741-17.402 41.9221-20.494 96.2171-26.678L211.104 134.14C212.678 133.961 214.229 133.784 215.758 133.61c24.693-56.7987 37.509-85.3834 64.876-96.1761C308.483 26.4512 340.524 38.1814 404.605 61.6418l38.181 13.9785z" fill="#2967c2"/><path d="M94.1358 255.693s-20.7619 27.576-36.2525 80.642C51.9295 340.801 52.9065 348.871 53.4118 356.365 53.6047 359.226 54.7766 362.048 57.2185 363.551 57.3141 363.61 57.4101 363.668 57.5064 363.726 61.7905 366.036 64.6343 362.746 66.7045 358.34 68.1869 355.177 68.8508 353.539 68.5301 352.279 67.8578 349.648 69.1433 343.66 69.1433 343.66c6.0252-12.232 31.2597-55.177 43.1497-65.026 20.227-23.172-18.1572-22.941-18.1572-22.941z" fill="#ffefd6"/><path d="M154.174 243.239s-27.127 15.299-59.0113 58.984C92.2682 302.344 74.6287 288.762 74.6287 288.762s11.9097-41.161 71.2083-90.263C161.555 190.423 176.272 228.582 154.174 243.239z" fill="#00bba5"/><path d="M100.374 295.53s-20.7587-11.86-21.8191-14.263C77.4944 278.864 74.3862 281.79 74.7603 285.673 75.1344 289.557 71.2245 290.457 72.4594 293.606 73.6942 296.754 90.2283 306.212 93.4463 306.803 96.6642 307.394 96.1888 301.943 96.1888 301.943S101.708 300.252 100.374 295.53z" fill="#00bba5"/><path d="M306.446 288.404C306.26 288.632 281.656 299.415 278.615 298.816 275.575 298.216 263.55 300.304 262.548 303.526 261.547 306.748 271.243 314.416 272.112 314.193 272.981 313.971 300.46 305.127 300.46 305.127L306.446 288.404z" fill="#6e5f50"/><path d="M281.301 311.739C281.569 311.643 278.072 310.099 275.152 305.383 274.309 304.007 276.421 300.005 277.121 299.245 277.121 299.245 274.944 295.883 272.97 295.835 269.563 295.753 269.572 295.132 267.586 295.393 265.6 295.655 265.468 294.487 261.226 295.956 260.508 296.163 259.76 296.244 259.015 296.195c0 0 0-.0219999999999914.0-.02800000000002-39.56-17.164-73.593-58.647-73.593-58.647S181.799 248.495 174.555 264.126c24.942 29.23 68.975 41.363 76.412 42.25C253.814 307.783 256.531 309.595 258.281 311.745 259.375 313.084 266.373 317.724 267.845 318.045 269.814 318.473 273.406 320.693 275.321 318.352 275.197 318.501 277.873 318.816 277.828 316.568 278.14 316.371 281.135 317.288 280.32 314.454 280.348 314.668 282.244 314.59 281.301 311.739z" fill="#ffefd6"/><path d="M280.244 314.798C277.49 313.948 275.045 312.311 273.211 310.087 277.712 314.46 280.244 314.485 280.244 314.485V314.798z" fill="#f5e0bf"/><path d="M277.74 316.629S273.158 314.626 272.314 313.461C272.337 313.666 275.108 315.735 277.712 317.119 277.631 316.998 277.918 317.029 277.74 316.629z" fill="#f5e0bf"/><path d="M275.285 318.366S272.005 317.502 270.587 315.856C270.587 315.994 273.496 318.67 274.958 318.363 274.961 318.501 275.285 318.366 275.285 318.366z" fill="#f5e0bf"/><path d="M263.589 313.731S264.695 311.666 262.079 311.854C260.903 311.902 258.74 314.173 258.675 314.95 258.61 315.726 258.439 317.786 261.488 316.514 261.93 315.909 263.589 314.426 263.589 313.731z" fill="#6e5f50"/><path d="M265.288 316.239S266.809 314.773 265.046 313.07C264.683 312.899 264.05 311.973 262.191 314.93 261.31 315.853 260.784 317.792 261.667 318.192 262.551 318.591 264.469 318.47 265.288 316.239z" fill="#6e5f50"/><path d="M267.689 317.911S267.951 314.784 265.614 315.015C264.86 315.088 264.036 318.015 264.379 318.673 264.722 319.332 267.144 319.818 269.085 318.378 269.141 318.305 267.689 317.911 267.689 317.911z" fill="#6e5f50"/><path d="M289.088 295.782 279.423 298.809S273.91 296.499 272.708 296.381C271.507 296.263 265.451 297.687 265.451 297.687S261.794 301.722 261.285 302.555C260.441 303.925 265.06 306.151 268.348 301.376 271.699 302.67 274.076 303.143 275.187 305.034S277.69 310.754 281.507 313.065C281.569 312.423 295.521 309.632 295.521 309.632L289.088 295.782z" fill="#8f7256"/><path d="M395.243 207.77S379.319 187.98 367.739 216.459C365.168 222.785 338.302 282.112 285.946 295.385 284.669 297.636 289.119 311.987 292.947 312.485 295.273 313.284 365.801 315.42 388.444 249.91 396.52 244.17 395.243 207.77 395.243 207.77z" fill="#223552"/><path d="M257.327 310.772S255.459 312.741 258.911 313.996C259.53 313.937 261.442 312.589 260.765 311.405 260.087 310.22 257.327 310.772 257.327 310.772z" fill="#6e5f50"/><path d="M495.072 311.714 486.057 315.479S481.708 312.195 479.342 310.538C478.217 309.741 476.33 309.783 472.622 310.07 467.455 310.47 463.109 312.063 463.793 317.201 464.105 319.55 466.091 325.597 468.133 328.22 471.93 333.094 479.491 332.441 483.008 331.822 484.185 331.608 485.281 331.078 486.18 330.288L488.293 328.448 495.072 326.104v-14.39z" fill="#8f7256"/><path d="M495.112 213.922C492.299 211.784 490.51 210.509 490.51 210.509s-15.243 48.522-12.767 49.243C484.465 261.75 495.112 267.099 495.112 267.099V213.922z" fill="#223552"/><path d="M495.111 306.937C491.822 308.411 488.46 309.716 485.038 310.849 484.785 310.933 490.144 329.457 490.144 329.457S492.051 329.1 495.111 328.331V306.937z" fill="#223552"/><path d="M449.231 169.158 450.809 206.318s-18.487 12.471-26.81 11.641C414.32 216.994 430.334 168.027 430.334 168.027l18.897 1.131z" fill="#654b32"/><path d="M385.58 203.928C391.113 196.089 424.961 185.708 424.463 188.618 424.314 189.493 423.965 194.144 431.824 197.963c10.987 5.346 18.565-4.167 18.565-4.167C462.094 194.426 476.861 208.084 480.65 216.532 489.418 236.071 473.131 254.623 460.791 346.209 459.385 356.747 397.721 344.076 377.581 331.599 366.118 260.456 377.673 215.136 385.58 203.928z" fill="#94b7eb"/><path d="M436.663 195.484C437.428 196.908 444.039 205.051 444.039 205.051L431.119 211.441S412.835 262.567 422.469 310.045C419.513 316.919 409.249 327.93 409.249 327.93L396.27 313.177s11.446-59.308 29.077-104.178C425.395 209.044 423.749 199.375 423.749 199.375L436.663 195.484z" fill="#2c4974"/><mask id="mask0_4837_75234" style="mask-type:alpha" maskUnits="userSpaceOnUse" x="72" y="33" width="484" height="360"><path d="M442.786 75.6203c64.082 23.4604 96.122 35.1907 108.089 60.7497C562.841 161.929 550.06 191.336 524.499 250.149l-17.521 40.312c-20.401 46.939-43.066 100.12-103.914 102.104L154.652 388.609C149.753 388.736 145.242 388.677 141.063 388.393L136.935 388.026C126.691 386.885 118.538 384.146 111.509 379.12c-18.9606-13.56-22.3296-38.475-29.0677-88.307L77.8229 256.657c-6.7381-49.831-10.1071-74.747 4.667-92.149 14.7741-17.402 41.9221-20.494 96.2171-26.678L211.104 134.14C212.678 133.961 214.229 133.784 215.758 133.61c24.693-56.7987 37.509-85.3834 64.876-96.1761C308.483 26.4512 340.524 38.1814 404.605 61.6418l38.181 13.9785z" fill="#2967c2"/></mask><g mask="url(#mask0_4837_75234)"><path d="M113.705 401.045h55.203L170.877 317.515 119.885 312.405C119.232 307.149 88.2345 339.351 107.86 371.801 108.645 373.112 110.957 385.06 113.705 401.045z" fill="#223552"/><path d="M91.9976 401.046H147.318l24.987-77.154L124.9 304.42C125.777 299.195 86.8697 321.194 96.411 357.884 96.8976 359.786 94.8554 378.611 91.9976 401.046z" fill="#435877"/><path d="M385.289 401.046h92.906C482.328 401.311 486.429 399.322 486.375 399.206c-15.606-32.781-17.499-55.827-21.681-66.359C459.912 320.775 458.224 319.379 458.224 319.379 451.141 316.188 434.489 308.456 423.13 318.69 406.678 306.872 384.543 313.099 379.792 318.127 379.792 318.127 378.783 320.049 378.949 333.041 379.081 344.806 381.162 365.068 385.289 401.046z" fill="#223552"/><path d="M462.06 196.483s21.941 11.875 28.765 13.558C496.569 211.448 454.423 312.817 485.542 361.959 487.703 368.36 398.163 379.216 375.227 363.52 364.403 325.122 359.756 245.234 379.041 202.114 383.857 198.49 403.724 191.79 411.952 190.715 414.34 190.405 392.647 242.535 405.139 298.137c32.792-43.46 53.087-97.112 56.921-101.654z" fill="#223552"/><path d="M290.173 354.296c13.299 37.952-58.884 33.362-53.824 72.748" stroke="#fff" stroke-width="2" stroke-linecap="round"/></g><path d="M460.997 196.3S456.696 204.322 442.714 210.505C441.138 207.829 433.473 197.62 433.473 197.62L421.378 204.092S414.68 197.502 416.548 188.739C419.009 187.704 424.404 187.583 424.404 187.583S433.206 199.789 451.912 192.47C456.235 193.205 460.997 196.3 460.997 196.3z" fill="#94b7eb"/><path d="M461.303 195.609 471.181 200.704 467.243 231.376 454.813 230.531 468.878 239.229s-48.975 36.752-64.078 60.054c4.976-24.033 52.798-100.858 56.503-103.674z" fill="#223552"/><path d="M417.054 188.14S403.884 197.58 405.144 298.415C403.392 293.913 389.361 231.924 389.164 226.923 390.571 226.724 403.583 226.211 403.583 226.211L392.613 219.92s11.673-26.791 14.309-28.899C408.278 189.547 417.054 188.14 417.054 188.14z" fill="#223552"/><path d="M439.352 126.402C440.697 127.378 459.354 138.592 449.197 163.891 445.892 176.393 427.648 180.121 421.572 162.118 415.496 144.115 424.393 115.543 439.352 126.402z" fill="#8f7256"/><path d="M449.54 132.894S443.2 108.445 416.534 115.637C415.375 115.92 414.342 116.575 413.591 117.502 410.897 121.023 415.715 124.63 419.859 125.131 413.8 124.706 408.413 130.401 417.518 133.544 414.838 135.058 415.69 141.128 420.469 142.29 420.351 141.834 421.777 134.45 427.141 132.863 430.359 131.912 439.343 130.218 442.612 133.001 449.664 138.984 452.255 149.783 452.255 149.783S452.806 139.394 449.54 132.894z" fill="#223552"/><path d="M449.453 143.76S455.723 138.29 455.385 145.547C455.121 151.307 449.63 151.129 449.63 151.129L449.453 143.76z" fill="#654b32"/><path d="M428.627 159.286C428.851 159.024 429.125 158.81 429.433 158.655 429.742 158.501 430.078 158.41 430.422 158.388 430.905 158.36 431.434 158.318 431.755 158.27 432.143 158.218 432.539 158.257 432.91 158.383 433.281 158.509 433.617 158.72 433.893 158.999 437.566 162.64 443.873 166.388 448.48 155.825 450.618 150.436 452.137 150.76 452.137 150.76S460.466 180.199 439.113 189.915C426.003 195.878 408.124 179.644 420.577 157.685 422.844 163.622 426.261 162.021 428.627 159.286z" fill="#223552"/><path d="M144.204 200.638S146.86 197.794 152.277 191.091C153.014 190.179 170.359 163.675 173.568 163.234 177.295 162.724 187.216 164.601 190.038 166.425 191.444 167.328 185.669 177.7 184.654 183.308 182.35 196.018 185.152 203.531 185.86 207.485 187.545 216.866 150.238 216.219 144.204 200.638z" fill="#f5e0bf"/><path d="M172.918 135.14C171.537 136.175 152.384 148.12 163.371 174.163 165.233 180.297 192.729 202.088 195.807 170.539 198.364 144.322 188.232 123.631 172.918 135.14z" fill="#ffefd6"/><path d="M170.623 161.902 173.436 159.479S169.456 143.64 180.049 145.441C192.932 147.63 202.026 144.667 203.958 132.179 204.484 126.667 197.013 131.948 197.013 131.948S206.431 125.834 200.338 117.201C195.129 112.87 195.275 119.415 187.492 122.215 175.641 126.475 164.032 121.191 157.028 135.238 150.024 149.285 152.643 160.487 163.728 175.029 164.446 172.13 165.098 166.354 165.098 166.354S160.437 155.197 167.714 155.028C170.463 154.963 170.623 161.902 170.623 161.902z" fill="#223552"/><path d="M153.555 186.733s-16.413 13.31-28.647 40.174c-21.259 46.71-25.1103 61.109-17.44 89.979C124.627 323.169 154.562 329.02 169.864 323.372 181.253 318.003 187.742 289.186 193.83 258.715 198.8 233.832 193.669 217.101 186.094 200.262 185.287 198.487 167.017 201.647 153.555 186.733z" fill="#00cab2"/><path d="M187.805 201.306 186.336 200.054 182.173 206.72 186.826 214.222S185.85 231.524 174.469 244.583c-21.46 24.619-60.272 32.078-61.622 47.935C112.748 291.674 112.065 312.603 112.065 312.603L128.098 304.021S134.922 291.001 176.1 258.768c23.066-18.062 16.571-46.122 16.571-46.122L191.439 207.696C191.009 205.208 189.724 202.947 187.805 201.306z" fill="#223552"/><path d="M154.499 184.867C155.498 185.492 169.163 198.174 186.904 199.66 187.767 200.588 180.597 214.801 180.597 214.801S155.945 211.05 147.349 191.387C147.18 190.954 154.499 184.867 154.499 184.867z" fill="#00cab2"/><path d="M173.326 320.769 171.605 325.761S141.245 332.494 105.516 318.051C104.771 316.59 106.692 314.176 106.692 314.176S129.749 320.462 173.326 320.769z" fill="#435877"/><path d="M132.705 216.561S127.279 241.554 187.821 280.118C187.483 280.225 210.228 261.335 207.325 258.763c-39.976-35.449-35.116-55.427-50.677-57.909C144.978 198.991 134.159 209.442 132.705 216.561z" fill="#00cab2"/><path d="M204.333 254.927s-15.592 21.365-17.874 22.471C184.178 278.504 187.517 283.088 191.241 282.576 194.966 282.064 194.037 286.096 197.042 284.799 200.046 283.502 208.878 267.769 210.543 258.458 211.086 255.399 206.349 257.546 206.349 257.546S208.836 253.472 204.333 254.927z" fill="#00cab2"/><path d="M495.112 267.114s25.161 18.765.0 39.824v21.386s106.541-41.491.0-114.415" fill="#223552"/><ellipse cx="107.661" cy="116.019" rx="15.2481" ry="15.2535" fill="#ffc600"/><ellipse cx="480.546" cy="411.844" rx="9.24129" ry="8.78232" fill="#00cab2"/><path d="M316.052 231.051C316.08 252.471 298.729 269.907 277.283 269.94 255.836 269.974 238.425 252.614 238.425 231.17c0-21.443 17.322-38.85 38.764-38.884C298.631 192.253 316.019 209.613 316.052 231.051z" fill="#1c52a0"/><path fill-rule="evenodd" clip-rule="evenodd" d="M294.311 221.845C294.896 222.431 294.896 223.38 294.311 223.966l-20.195 20.202C273.033 245.251 271.278 245.251 270.195 244.168l-10.491-10.495C259.118 233.087 259.118 232.138 259.704 231.552L261.504 229.751C262.09 229.165 263.04 229.165 263.625 229.751L272.156 238.285l18.233-18.24C290.975 219.459 291.925 219.459 292.511 220.045L294.311 221.845z" fill="#fff"/><path d="M318.378 83.6076C320.672 87.2315 320.672 92.205 320.672 102.152S320.672 117.073 318.378 120.697C317.209 122.544 315.644 124.11 313.797 125.28 310.174 127.575 305.202 127.575 295.259 127.575H245.972L228.26 136.819l-1.239-10.531C226.283 126.014 225.605 125.682 224.97 125.28 223.123 124.11 221.558 122.544 220.388 120.697 218.094 117.073 218.094 112.099 218.094 102.152S218.094 87.2315 220.388 83.6076C221.558 81.7598 223.123 80.1945 224.97 79.0244 228.592 76.7296 233.564 76.7296 243.508 76.7296h51.751c9.94299999999998.0 14.915.0 18.538 2.2948C315.644 80.1945 317.209 81.7598 318.378 83.6076z" fill="#00cab2"/><path d="M231.956 90.1341C231.956 89.2701 231.956 88.8381 232.142 88.5163 232.263 88.3055 232.438 88.1305 232.649 88.0088 232.971 87.823 233.403 87.823 234.266 87.823h55.448C290.578 87.823 291.01 87.823 291.331 88.0088 291.542 88.1305 291.717 88.3055 291.839 88.5163 292.024 88.8381 292.024 89.2701 292.024 90.1341 292.024 90.9981 292.024 91.4301 291.839 91.7519 291.717 91.9627 291.542 92.1378 291.331 92.2595 291.01 92.4453 290.578 92.4453 289.714 92.4453H234.266C233.403 92.4453 232.971 92.4453 232.649 92.2595 232.438 92.1378 232.263 91.9627 232.142 91.7519 231.956 91.4301 231.956 90.9981 231.956 90.1341z" fill="#fff"/><path d="M231.956 98.4542C231.956 97.5902 231.956 97.1582 232.142 96.8364 232.263 96.6256 232.438 96.4506 232.649 96.3289 232.971 96.1431 233.403 96.1431 234.266 96.1431h72.082C307.212 96.1431 307.644 96.1431 307.966 96.3289 308.176 96.4506 308.351 96.6256 308.473 96.8364 308.659 97.1582 308.659 97.5902 308.659 98.4542S308.659 99.7502 308.473 100.072C308.351 100.283 308.176 100.458 307.966 100.58 307.644 100.765 307.212 100.765 306.348 100.765H234.266C233.403 100.765 232.971 100.765 232.649 100.58 232.438 100.458 232.263 100.283 232.142 100.072 231.956 99.7502 231.956 99.3182 231.956 98.4542z" fill="#fff"/><path d="M231.956 106.774C231.956 105.91 231.956 105.478 232.142 105.156 232.263 104.946 232.438 104.771 232.649 104.649 232.971 104.463 233.403 104.463 234.266 104.463h35.117C270.247 104.463 270.679 104.463 271 104.649 271.211 104.771 271.386 104.946 271.508 105.156 271.694 105.478 271.694 105.91 271.694 106.774S271.694 108.07 271.508 108.392C271.386 108.603 271.211 108.778 271 108.9 270.679 109.085 270.247 109.085 269.383 109.085H234.266C233.403 109.085 232.971 109.085 232.649 108.9 232.438 108.778 232.263 108.603 232.142 108.392 231.956 108.07 231.956 107.638 231.956 106.774z" fill="#fff"/><path d="M231.956 115.094C231.956 114.23 231.956 113.798 232.142 113.477 232.263 113.266 232.438 113.091 232.649 112.969 232.971 112.783 233.403 112.783 234.266 112.783h14.786C249.916 112.783 250.348 112.783 250.67 112.969 250.88 113.091 251.055 113.266 251.177 113.477 251.363 113.798 251.363 114.23 251.363 115.094 251.363 115.958 251.363 116.39 251.177 116.712 251.055 116.923 250.88 117.098 250.67 117.22 250.348 117.406 249.916 117.406 249.052 117.406H234.266C233.403 117.406 232.971 117.406 232.649 117.22 232.438 117.098 232.263 116.923 232.142 116.712 231.956 116.39 231.956 115.958 231.956 115.094z" fill="#fff"/><path d="M284.153 117.812C281.859 121.436 281.859 126.41 281.859 136.357S281.859 151.278 284.153 154.901C285.323 156.749 286.887 158.314 288.734 159.485 292.357 161.779 297.329 161.779 307.272 161.779h49.287L374.272 171.024l1.238-10.531C376.248 160.219 376.926 159.887 377.561 159.485 379.409 158.314 380.973 156.749 382.143 154.901 384.437 151.278 384.437 146.304 384.437 136.357S384.437 121.436 382.143 117.812C380.973 115.965 379.409 114.399 377.561 113.229 373.939 110.934 368.967 110.934 359.024 110.934H307.272c-9.94299999999998.0-14.915.0-18.538 2.295C286.887 114.399 285.323 115.965 284.153 117.812z" fill="#ffc600"/><path d="M295.721 124.339C295.721 123.475 295.721 123.043 295.907 122.721 296.028 122.51 296.203 122.335 296.414 122.214 296.736 122.028 297.167 122.028 298.031 122.028h71.158C370.053 122.028 370.485 122.028 370.806 122.214 371.017 122.335 371.192 122.51 371.314 122.721 371.499 123.043 371.499 123.475 371.499 124.339S371.499 125.635 371.314 125.957C371.192 126.168 371.017 126.343 370.806 126.464 370.485 126.65 370.053 126.65 369.189 126.65H298.031C297.167 126.65 296.736 126.65 296.414 126.464 296.203 126.343 296.028 126.168 295.907 125.957 295.721 125.635 295.721 125.203 295.721 124.339z" fill="#fff"/><path d="M295.721 132.659C295.721 131.795 295.721 131.363 295.907 131.041 296.028 130.83 296.203 130.655 296.414 130.534 296.736 130.348 297.167 130.348 298.031 130.348h26.8C325.695 130.348 326.126 130.348 326.448 130.534 326.659 130.655 326.834 130.83 326.955 131.041 327.141 131.363 327.141 131.795 327.141 132.659S327.141 133.955 326.955 134.277C326.834 134.488 326.659 134.663 326.448 134.784 326.126 134.97 325.695 134.97 324.831 134.97h-26.8C297.167 134.97 296.736 134.97 296.414 134.784 296.203 134.663 296.028 134.488 295.907 134.277 295.721 133.955 295.721 133.523 295.721 132.659z" fill="#fff"/><path d="M331.762 132.659C331.762 131.795 331.762 131.363 331.948 131.041 332.069 130.83 332.244 130.655 332.455 130.534 332.777 130.348 333.208 130.348 334.072 130.348h35.117C370.053 130.348 370.485 130.348 370.806 130.534 371.017 130.655 371.192 130.83 371.314 131.041 371.499 131.363 371.499 131.795 371.499 132.659S371.499 133.955 371.314 134.277C371.192 134.488 371.017 134.663 370.806 134.784 370.485 134.97 370.053 134.97 369.189 134.97H334.072C333.208 134.97 332.777 134.97 332.455 134.784 332.244 134.663 332.069 134.488 331.948 134.277 331.762 133.955 331.762 133.523 331.762 132.659z" fill="#fff"/><path d="M295.721 140.979C295.721 140.115 295.721 139.683 295.907 139.361 296.028 139.151 296.203 138.975 296.414 138.854 296.736 138.668 297.167 138.668 298.031 138.668h51.751C350.646 138.668 351.078 138.668 351.399 138.854 351.61 138.975 351.785 139.151 351.907 139.361 352.093 139.683 352.093 140.115 352.093 140.979 352.093 141.843 352.093 142.275 351.907 142.597 351.785 142.808 351.61 142.983 351.399 143.104 351.078 143.29 350.646 143.29 349.782 143.29H298.031C297.167 143.29 296.736 143.29 296.414 143.104 296.203 142.983 296.028 142.808 295.907 142.597 295.721 142.275 295.721 141.843 295.721 140.979z" fill="#fff"/><path d="M295.721 149.299C295.721 148.435 295.721 148.003 295.907 147.681 296.028 147.471 296.203 147.296 296.414 147.174 296.736 146.988 297.167 146.988 298.031 146.988h30.496C329.391 146.988 329.823 146.988 330.145 147.174 330.355 147.296 330.53 147.471 330.652 147.681 330.838 148.003 330.838 148.435 330.838 149.299S330.838 150.595 330.652 150.917C330.53 151.128 330.355 151.303 330.145 151.425 329.823 151.61 329.391 151.61 328.527 151.61H298.031C297.167 151.61 296.736 151.61 296.414 151.425 296.203 151.303 296.028 151.128 295.907 150.917 295.721 150.595 295.721 150.163 295.721 149.299z" fill="#fff"/></g><defs><filter id="filter0_d_4837_75234" x="11.178" y="-49.8651" width="625" height="567.146" filterUnits="userSpaceOnUse" color-interpolation-filters="sRGB"><feFlood flood-opacity="0" result="BackgroundImageFix"/><feColorMatrix in="SourceAlpha" type="matrix" values="0 0 0 0 0 0 0 0 0 0 0 0 0 0 0 0 0 0 127 0" result="hardAlpha"/><feOffset/><feGaussianBlur stdDeviation="50"/><feColorMatrix type="matrix" values="0 0 0 0 0 0 0 0 0 0 0 0 0 0 0 0 0 0 0.1 0"/><feBlend mode="normal" in2="BackgroundImageFix" result="effect1_dropShadow_4837_75234"/><feBlend mode="normal" in="SourceGraphic" in2="effect1_dropShadow_4837_75234" result="shape"/></filter><clipPath id="clip0_4837_75234"><rect width="609" height="465" fill="#fff"/></clipPath></defs></svg>