<svg width="515" height="515" viewBox="0 0 515 515" fill="none" xmlns="http://www.w3.org/2000/svg"><g filter="url(#filter0_d)"><path d="M105.823 222.061C99.7778 181.02 96.7554 160.499 107.627 145.872c10.872-14.628 31.392-17.65 72.433-23.695l112.783-16.612C333.884 99.5198 354.405 96.4973 369.032 107.369c14.628 10.872 17.65 31.392 23.695 72.433l16.612 112.783C415.384 333.626 418.407 354.147 407.535 368.774 396.663 383.402 376.143 386.424 335.102 392.469L222.319 409.081C181.278 415.126 160.758 418.149 146.13 407.277c-14.628-10.872-17.65-31.392-23.695-72.433L105.823 222.061z" fill="#fff"/></g><path d="M124.026 325.11C115.939 336.719 101.068 340.774 90.9758 331.078 81.6663 322.134 84.8966 309.276 84.1202 300.564c-1.0235-11.483-8.8689-18.989-23.4302-18.867" stroke="#00cab2" stroke-width="2" stroke-linecap="round"/><path d="M360.725 360.468C373.561 339.936 383.25 358.285 394.295 340.618 407.131 320.085 416.82 338.435 427.865 320.767 440.701 300.234 450.39 318.584 461.435 300.916" stroke="#ffc600" stroke-width="2" stroke-linecap="round"/><path d="M120.02 202.355c7.739-51.079 11.609-76.618 29.881-90.082C168.174 98.8086 193.713 102.678 244.792 110.417l67.988 10.301C363.859 128.457 389.398 132.327 402.862 150.6 416.326 168.872 412.457 194.411 404.718 245.491l-10.301 67.987C386.677 364.557 382.808 390.097 364.535 403.561 346.263 417.025 320.723 413.155 269.644 405.416l-67.987-10.301C150.578 387.376 125.038 383.506 111.574 365.234 98.1103 346.961 101.98 321.422 109.719 270.343l10.301-67.988z" fill="#2967c2"/><circle cx="37" cy="132" r="21" fill="#ffc600"/><circle cx="91" cy="62" r="9" fill="#2967c2"/><circle cx="334" cy="475" r="18" fill="#00cab2"/><mask id="mask0" mask-type="alpha" maskUnits="userSpaceOnUse" x="102" y="103" width="310" height="310"><path d="M120.02 202.355c7.739-51.079 11.609-76.618 29.881-90.082C168.174 98.8086 193.713 102.678 244.792 110.417l67.988 10.301C363.859 128.457 389.398 132.327 402.862 150.6 416.326 168.872 412.457 194.411 404.718 245.491l-10.301 67.987C386.677 364.557 382.808 390.097 364.535 403.561 346.263 417.025 320.723 413.155 269.644 405.416l-67.987-10.301C150.578 387.376 125.038 383.506 111.574 365.234 98.1103 346.961 101.98 321.422 109.719 270.343l10.301-67.988z" fill="#2967c2"/></mask><g mask="url(#mask0)"><path d="M360.726 360.468C373.562 339.936 383.251 358.285 394.296 340.618 407.132 320.085 416.821 338.435 427.866 320.767 440.702 300.234 450.391 318.584 461.436 300.916" stroke="#fff" stroke-width="2" stroke-linecap="round"/><path d="M124.027 325.11C115.94 336.719 101.069 340.774 90.9768 331.078 81.6673 322.134 84.8976 309.276 84.1212 300.564c-1.0235-11.483-8.869-18.989-23.4302-18.867" stroke="#fff" stroke-width="2" stroke-linecap="round"/></g><path d="M215.53 294.862C213.862 294.862 212.231 294.713 210.601 294.342L210.008 294.231V283.539H210.898C211.796 286.094 214.307 289.331 217.197 289.331 217.865 289.331 218.383 289.108 218.791 288.662 220.422 286.992 220.348 282.5 220.311 280.087 220.311 279.716 220.311 279.382 220.311 279.085L220.348 235.873h12.155v42.098C232.54 288.068 225.684 294.862 215.53 294.862z" fill="#fff"/><path d="M267.302 272.068C264.448 275.818 260.335 277.748 255.072 277.748 244.918 277.748 238.877 272.328 238.877 263.27V235.873h12.156v27.954C251.033 267.799 253.145 272.031 257.778 272.031 262.595 272.031 264.337 266.388 264.337 262.565V235.873h12.156v42.84L267.302 272.068z" fill="#fff"/><path d="M329.452 277.525C321.595 277.525 317.259 272.662 317.259 263.79V240.773H313.775V235.873H317.741l11.6-14.144v14.144H337.197V240.773H329.341C329.341 244.783 329.341 248.792 329.378 252.801 329.378 257.07 329.415 261.34 329.415 265.572 329.415 268.616 330.008 272.217 332.787 272.217 335.233 272.217 338.027 268.607 338.616 265.089H339.755v8.464C339.495 274.221 338.457 275.001 338.383 275.038 336.049 276.746 333.195 277.525 329.452 277.525z" fill="#fff"/><path d="M295.69 277.525C290.946 277.525 284.868 276.226 280.532 274.296L280.124 274.11 279.643 262.639 281.051 264.347C284.386 268.393 289.76 272.699 294.911 272.699 297.431 272.699 299.952 271.326 299.952 268.282 299.952 264.718 296.246 262.602 291.984 260.115 286.647 257.033 280.569 253.544 280.569 246.119c0-8.798 8.41300000000001-11.916 16.307-11.916C301.323 234.203 305.733 234.982 309.254 236.356L309.698 236.541 310.18 248.161 308.772 246.528C305.622 242.852 300.1 238.954 295.986 238.954 293.911 238.954 291.724 240.179 291.724 242.518 291.724 245.414 295.245 247.53 299.359 249.943 304.881 253.21 311.737 257.256 311.737 265.2 311.7 274.333 303.065 277.525 295.69 277.525z" fill="#fff"/><path d="M226.202 230.713C222.459 230.713 219.383 227.743 219.383 224.105 219.383 220.504 222.422 217.571 226.202 217.571S233.021 220.504 233.021 224.105 229.908 230.713 226.202 230.713z" fill="#fff"/><path d="M195.256 234.24C190.253 234.24 183.249 235.316 178.579 238.36L178.282 238.546 177.393 250.24 178.875 248.569C182.767 244.114 187.436 239.363 193.44 239.363 196.961 239.363 200.667 241.627 200.667 245.859 200.667 248.05 199.74 249.497 197.702 250.388 196.034 251.131 194.107 251.539 192.254 251.947 190.957 252.244 189.586 252.504 188.289 252.913 184.657 254.063 176.244 257.627 176.244 265.832 176.244 273.256 180.877 277.488 188.919 277.488 194.367 277.488 199.036 275.446 202.742 271.474l10.303 6.274V248.161C213.082 239.066 206.893 234.24 195.256 234.24zm5.559 32.817C199.184 268.616 196.442 270.286 193.737 270.286 190.586 270.286 189.178 267.465 189.178 264.829 189.178 258.741 194.96 255.214 200.926 254.769L200.963 266.945C200.889 266.982 200.852 267.057 200.815 267.057z" fill="#00cab2"/><defs><filter id="filter0_d" x=".373047" y=".11499" width="514.416" height="514.416" filterUnits="userSpaceOnUse" color-interpolation-filters="sRGB"><feFlood flood-opacity="0" result="BackgroundImageFix"/><feColorMatrix in="SourceAlpha" type="matrix" values="0 0 0 0 0 0 0 0 0 0 0 0 0 0 0 0 0 0 127 0"/><feOffset/><feGaussianBlur stdDeviation="50"/><feColorMatrix type="matrix" values="0 0 0 0 0 0 0 0 0 0 0 0 0 0 0 0 0 0 0.1 0"/><feBlend mode="normal" in2="BackgroundImageFix" result="effect1_dropShadow"/><feBlend mode="normal" in="SourceGraphic" in2="effect1_dropShadow" result="shape"/></filter></defs></svg>