<svg width="430" height="652" viewBox="0 0 430 652" fill="none" xmlns="http://www.w3.org/2000/svg"><path d="M145.389 71.2155c12.511-33.5713 18.766-50.357 33.082-56.8996C192.787 7.77321 209.573 14.0286 243.144 26.5395l13.014 4.8499c33.572 12.5108 50.357 18.7662 56.9 33.0821C319.601 78.7874 313.345 95.5731 300.834 129.144L295.985 142.159c-12.511 33.571-18.767 50.357-33.083 56.899C248.587 205.601 231.801 199.345 198.23 186.835L185.215 181.985c-33.571-12.511-50.357-18.767-56.899-33.082C121.773 134.587 128.029 117.801 140.539 84.2297L145.389 71.2155z" fill="#2967c2"/><path d="M347.583 153.557C345.663 147.313 344.704 144.191 345.149 141.429 345.57 138.821 346.839 136.425 348.761 134.612 350.796 132.692 353.918 131.732 360.161 129.813 366.405 127.893 369.527 126.934 372.289 127.379 374.897 127.8 377.293 129.069 379.106 130.991 381.026 133.026 381.986 136.148 383.905 142.391 385.825 148.635 386.784 151.757 386.339 154.519 385.918 157.127 384.649 159.523 382.727 161.336 380.692 163.256 377.57 164.216 371.327 166.135 365.083 168.055 361.961 169.014 359.199 168.569 356.591 168.148 354.195 166.879 352.382 164.957 350.462 162.922 349.502 159.8 347.583 153.557z" fill="#00cab2"/><path d="M331.664 97.5234c-10.016 17.1456-21.721-16.2911-41.595 4.2136" stroke="#ffc600" stroke-width="2" stroke-linecap="round"/><mask id="mask0" mask-type="alpha" maskUnits="userSpaceOnUse" x="125" y="11" width="191" height="191"><path d="M145.389 71.2155c12.511-33.5713 18.766-50.357 33.082-56.8996C192.787 7.77321 209.573 14.0286 243.144 26.5395l13.014 4.8499c33.572 12.5108 50.357 18.7662 56.9 33.0821C319.601 78.7874 313.345 95.5731 300.834 129.144L295.985 142.159c-12.511 33.571-18.767 50.357-33.083 56.899C248.587 205.601 231.801 199.345 198.23 186.835L185.215 181.985c-33.571-12.511-50.357-18.767-56.899-33.082C121.773 134.587 128.029 117.801 140.539 84.2297L145.389 71.2155z" fill="#2967c2"/></mask><g mask="url(#mask0)"><path d="M331.664 97.5233C321.647 114.669 309.943 81.2322 290.069 101.737" stroke="#fff" stroke-width="2" stroke-linecap="round"/></g><path d="M2 604.404C16.7896 615.966 36.6077 625.897 60 633.502 91.7844 643.835 130.167 649.875 171.5 649.875c109.656.0 198.549-42.505 198.549-94.938.0-29.224-27.615-55.364-71.049-72.779-23.113-9.267-50.706-16.064-81-19.54" stroke="#223552" stroke-width="2" stroke-linecap="round"/><path d="M232 613.828C213.75 618.123 193.214 620.535 171.5 620.535 95.7324 620.535 34.3105 591.166 34.3105 554.937 34.3105 545.492 38.4851 536.514 46 528.4" stroke="#223552" stroke-width="2" stroke-linecap="round"/><path d="M304.073 538c-15.617-28.02-69.054-48.661-132.573-48.661C145.721 489.339 121.603 492.739 101 498.652" stroke="#223552" stroke-width="2" stroke-linecap="round"/><path d="M266.241 562.221c0 25.019-42.417 45.301-94.741 45.301-52.323.0-94.7402-20.282-94.7402-45.301s42.4172-45.3 94.7402-45.3c52.324.0 94.741 20.281 94.741 45.3z" stroke="#223552" stroke-width="2"/><path d="M227.713 570.7C227.713 585.545 202.546 597.579 171.5 597.579 140.455 597.579 115.287 585.545 115.287 570.7 115.287 555.856 140.455 543.822 171.5 543.822c31.046.0 56.213 12.034 56.213 26.878z" fill="#1e2b3e"/><path d="M116.956 178.828C116.985 178.553 117.231 178.354 117.506 178.383L157.287 182.558C157.562 182.587 157.761 182.833 157.732 183.108l-8.351 79.563C149.353 262.945 149.107 263.144 148.832 263.116L109.051 258.94C108.776 258.911 108.577 258.665 108.605 258.391l8.351-79.563z" fill="#00cab2" stroke="#00ac98" stroke-width="3"/><path d="M144.109 221.897C143.474 227.939 138.062 232.323 132.02 231.689 125.979 231.055 121.595 225.643 122.229 219.601S128.275 209.175 134.317 209.809C140.359 210.443 144.743 215.855 144.109 221.897z" fill="#00ac98"/><path d="M121.327 180.292C121.154 181.94 119.678 183.135 118.03 182.962 116.383 182.79 115.187 181.314 115.36 179.666S117.009 176.822 118.657 176.995C120.305 177.168 121.5 178.644 121.327 180.292z" fill="#00ac98"/><path d="M113.185 257.866C113.012 259.514 111.536 260.709 109.888 260.536 108.24 260.363 107.045 258.887 107.218 257.24 107.391 255.592 108.867 254.396 110.515 254.569 112.162 254.742 113.358 256.218 113.185 257.866z" fill="#00ac98"/><path d="M159.12 184.259C158.947 185.907 157.471 187.102 155.823 186.929S152.979 185.28 153.152 183.632C153.325 181.985 154.801 180.789 156.449 180.962 158.097 181.135 159.293 182.611 159.12 184.259z" fill="#00ac98"/><path d="M150.977 261.833C150.804 263.48 149.328 264.676 147.681 264.503 146.033 264.33 144.837 262.854 145.01 261.206 145.183 259.558 146.659 258.363 148.307 258.536 149.955 258.709 151.15 260.185 150.977 261.833z" fill="#00ac98"/><path d="M163.024 199.751C163.053 199.476 163.299 199.277 163.574 199.306L203.355 203.481C203.63 203.51 203.829 203.756 203.8 204.031l-8.351 79.563C195.42 283.868 195.174 284.067 194.9 284.039L155.118 279.863C154.844 279.834 154.644 279.588 154.673 279.314l8.351-79.563z" fill="#00cab2" stroke="#00ac98" stroke-width="3"/><path d="M190.176 242.82C189.542 248.862 184.13 253.246 178.088 252.612 172.046 251.978 167.663 246.566 168.297 240.524 168.931 234.482 174.343 230.098 180.385 230.732 186.427 231.366 190.811 236.778 190.176 242.82z" fill="#00ac98"/><path d="M167.395 201.215C167.222 202.863 165.746 204.058 164.098 203.885 162.451 203.713 161.255 202.236 161.428 200.589 161.601 198.941 163.077 197.745 164.725 197.918 166.372 198.091 167.568 199.567 167.395 201.215z" fill="#00ac98"/><path d="M159.253 278.789C159.08 280.437 157.604 281.632 155.956 281.459 154.308 281.286 153.113 279.81 153.286 278.163 153.459 276.515 154.935 275.319 156.582 275.492 158.23 275.665 159.426 277.141 159.253 278.789z" fill="#00ac98"/><path d="M205.187 205.182C205.015 206.83 203.539 208.025 201.891 207.852S199.047 206.203 199.22 204.555C199.393 202.908 200.869 201.712 202.517 201.885S205.36 203.534 205.187 205.182z" fill="#00ac98"/><path d="M197.045 282.756C196.872 284.403 195.396 285.599 193.749 285.426 192.101 285.253 190.905 283.777 191.078 282.129 191.251 280.481 192.727 279.286 194.375 279.459S197.218 281.108 197.045 282.756z" fill="#00ac98"/><path d="M208.257 228.63C208.286 228.356 208.532 228.156 208.806 228.185L248.588 232.361C248.862 232.389 249.062 232.635 249.033 232.91l-8.351 79.563C240.653 312.748 240.407 312.947 240.132 312.918L200.351 308.743C200.076 308.714 199.877 308.468 199.906 308.193l8.351-79.563z" fill="#00cab2" stroke="#00ac98" stroke-width="3"/><path d="M235.409 271.7C234.775 277.742 229.363 282.126 223.321 281.492 217.279 280.857 212.895 275.445 213.529 269.403 214.163 263.361 219.575 258.978 225.617 259.612 231.659 260.246 236.043 265.658 235.409 271.7z" fill="#00ac98"/><path d="M212.628 230.095C212.455 231.742 210.979 232.938 209.331 232.765 207.683 232.592 206.487 231.116 206.66 229.468 206.833 227.82 208.309 226.625 209.957 226.798S212.8 228.447 212.628 230.095z" fill="#00ac98"/><path d="M204.485 307.668C204.312 309.316 202.836 310.512 201.189 310.339 199.541 310.166 198.345 308.69 198.518 307.042 198.691 305.394 200.167 304.199 201.815 304.372S204.658 306.021 204.485 307.668z" fill="#00ac98"/><path d="M250.42 234.061C250.247 235.709 248.771 236.905 247.123 236.732S244.28 235.083 244.453 233.435 246.102 230.592 247.749 230.764C249.397 230.937 250.593 232.413 250.42 234.061z" fill="#00ac98"/><path d="M242.278 311.635C242.105 313.283 240.629 314.479 238.981 314.306S236.138 312.657 236.31 311.009C236.483 309.361 237.959 308.165 239.607 308.338S242.451 309.987 242.278 311.635z" fill="#00ac98"/><g filter="url(#filter0_d)"><path d="M129.653 52.3911C126.434 54.9983 125.942 59.6866 124.958 69.0632L110.646 205.423C110.055 211.049 109.76 213.862 111.324 215.793 112.889 217.724 115.702 218.02 121.328 218.61L153.003 221.935C156.285 222.279 158.667 225.219 158.322 228.501 157.975 231.807 160.393 234.761 163.702 235.074L199.632 238.474C199.776 238.487 199.849 238.494 199.91 238.501 203.13 238.873 205.474 241.735 205.201 244.966 205.196 245.027 205.188 245.099 205.173 245.244 205.158 245.387 205.151 245.459 205.146 245.52 204.875 248.727 207.183 251.577 210.377 251.978 210.437 251.985 210.509 251.993 210.652 252.008L238.178 254.897C243.804 255.488 246.617 255.783 248.548 254.219 250.479 252.654 250.775 249.841 251.365 244.215L268.171 84.0949C269.156 74.7184 269.648 70.0301 267.04 66.8114 264.433 63.5927 259.745 63.1006 250.368 62.1165L146.937 51.2602C137.56 50.276 132.872 49.7839 129.653 52.3911z" fill="#fff"/></g><rect x="223.994" y="83.4801" width="8" height="72" rx="2" transform="rotate(95.9919 223.994 83.4801)" fill="#00cab2"/><rect opacity=".2" x="237.61" y="107.03" width="8" height="88" rx="2" transform="rotate(95.9919 237.61 107.03)" fill="#7a8aa2"/><rect opacity=".1" x="208.511" y="116.042" width="4" height="60" rx="1" transform="rotate(95.9919 208.511 116.042)" fill="#7a8aa2"/><rect opacity=".1" x="203.292" y="165.769" width="4" height="60" rx="1" transform="rotate(95.9919 203.292 165.769)" fill="#7a8aa2"/><rect opacity=".1" x="202.665" y="171.736" width="4" height="60" rx="1" transform="rotate(95.9919 202.665 171.736)" fill="#7a8aa2"/><rect opacity=".1" x="236.358" y="118.965" width="4" height="24" rx="1" transform="rotate(95.9919 236.358 118.965)" fill="#7a8aa2"/><rect opacity=".1" x="231.138" y="168.691" width="4" height="11" rx="1" transform="rotate(95.9919 231.138 168.691)" fill="#7a8aa2"/><rect opacity=".1" x="230.512" y="174.659" width="4" height="11" rx="1" transform="rotate(95.9919 230.512 174.659)" fill="#7a8aa2"/><rect opacity=".1" x="218.209" y="167.334" width="4" height="11" rx="1" transform="rotate(95.9919 218.209 167.334)" fill="#7a8aa2"/><rect opacity=".1" x="217.583" y="173.302" width="4" height="11" rx="1" transform="rotate(95.9919 217.583 173.302)" fill="#7a8aa2"/><rect opacity=".1" x="235.731" y="124.932" width="4" height="24" rx="1" transform="rotate(95.9919 235.731 124.932)" fill="#7a8aa2"/><rect opacity=".1" x="235.105" y="130.899" width="4" height="24" rx="1" transform="rotate(95.9919 235.105 130.899)" fill="#7a8aa2"/><rect opacity=".1" x="234.479" y="136.866" width="4" height="24" rx="1" transform="rotate(95.9919 234.479 136.866)" fill="#7a8aa2"/><rect opacity=".1" x="233.853" y="142.833" width="4" height="24" rx="1" transform="rotate(95.9919 233.853 142.833)" fill="#7a8aa2"/><rect opacity=".1" x="229.886" y="180.626" width="4" height="24" rx="1" transform="rotate(95.9919 229.886 180.626)" fill="#7a8aa2"/><rect opacity=".1" x="177.054" y="118.773" width="4" height="29" rx="1" transform="rotate(95.9919 177.054 118.773)" fill="#7a8aa2"/><rect opacity=".1" x="170.582" y="180.434" width="4" height="29" rx="1" transform="rotate(95.9919 170.582 180.434)" fill="#7a8aa2"/><rect opacity=".1" x="207.884" y="122.009" width="4" height="29" rx="1" transform="rotate(95.9919 207.884 122.009)" fill="#7a8aa2"/><rect opacity=".1" x="201.413" y="183.67" width="4" height="29" rx="1" transform="rotate(95.9919 201.413 183.67)" fill="#7a8aa2"/><rect opacity=".1" x="207.258" y="127.976" width="4" height="9" rx="1" transform="rotate(95.9919 207.258 127.976)" fill="#7a8aa2"/><rect opacity=".1" x="196.318" y="126.828" width="4" height="49" rx="1" transform="rotate(95.9919 196.318 126.828)" fill="#7a8aa2"/><rect opacity=".1" x="206.632" y="133.943" width="4" height="60" rx="1" transform="rotate(95.9919 206.632 133.943)" fill="#7a8aa2"/><rect opacity=".1" x="206.005" y="139.911" width="4" height="60" rx="1" transform="rotate(95.9919 206.005 139.911)" fill="#7a8aa2"/><rect opacity=".1" x="202.039" y="177.703" width="4" height="60" rx="1" transform="rotate(95.9919 202.039 177.703)" fill="#7a8aa2"/><rect opacity=".2" x="232.391" y="156.757" width="8" height="88" rx="2" transform="rotate(95.9919 232.391 156.757)" fill="#7a8aa2"/><rect x="239.907" y="85.1503" width="8" height="8" rx="2" transform="rotate(95.9919 239.907 85.1503)" fill="#2967c2"/><rect opacity=".7" x="167.997" y="161.506" width="74" height="25" rx="4" transform="rotate(-15.7399 167.997 161.506)" fill="#f17070"/><path d="M190.496 171.372 192.739 170.74C192.845 170.71 193.249 170.596 193.556 170.468 195.173 169.794 195.695 168.068 195.198 166.307 194.702 164.545 193.356 163.345 191.624 163.615 191.296 163.666 190.891 163.78 190.786 163.81L188.543 164.442 190.496 171.372zM191.477 169.766 190.218 165.3 191.133 165.042C191.306 164.993 191.643 164.898 191.897 164.879 192.822 164.805 193.519 165.658 193.812 166.697 194.092 167.689 193.982 168.811 193.129 169.248 192.902 169.364 192.565 169.459 192.392 169.508L191.477 169.766z" fill="#fff"/><path d="M197.522 169.392 202.046 168.117 201.701 166.895 198.487 167.801 197.985 166.02 200.622 165.277 200.277 164.054l-2.637.744L197.222 163.315 200.437 162.409 200.093 161.187 195.569 162.462 197.522 169.392z" fill="#fff"/><path d="M203.392 167.738l1.328-.375L203.418 162.743 207.733 166.514 209.061 166.14 207.108 159.21 205.78 159.584 207.082 164.204 202.767 160.433l-1.328.375L203.392 167.738z" fill="#fff"/><path d="M210.693 165.68l1.309-.369L210.048 158.381l-1.309.369L210.693 165.68z" fill="#fff"/><path d="M213.637 164.85 218.161 163.575 217.816 162.353 214.601 163.259 214.099 161.478 216.737 160.735 216.392 159.513 213.755 160.256 213.337 158.774 216.552 157.868 216.207 156.645 211.684 157.92 213.637 164.85z" fill="#fff"/><path d="M219.507 163.196 221.749 162.564C221.855 162.534 222.259 162.42 222.566 162.292 224.184 161.618 224.705 159.892 224.209 158.13 223.712 156.369 222.366 155.169 220.635 155.439 220.306 155.49 219.902 155.604 219.796 155.634L217.553 156.266 219.507 163.196zM220.488 161.59 219.229 157.124 220.143 156.866C220.317 156.817 220.653 156.722 220.908 156.702 221.832 156.629 222.53 157.481 222.823 158.521 223.102 159.512 222.992 160.634 222.139 161.072 221.912 161.188 221.575 161.283 221.402 161.332L220.488 161.59z" fill="#fff"/><path opacity=".2" fill-rule="evenodd" clip-rule="evenodd" d="M211.316 201.803C209.211 201.582 207.426 203.019 207.229 204.893 207.032 206.767 208.48 208.544 210.585 208.765 212.558 208.972 213.696 208.531 214.65 208.056 214.783 207.989 214.921 207.916 215.065 207.84 215.909 207.394 216.943 206.847 218.264 206.985 219.531 207.118 220.931 208.23 221.214 209.88L226.754 210.462C227.304 210.52 227.702 211.012 227.644 211.561 227.587 212.11 227.095 212.509 226.546 212.451L220.145 211.779C219.881 211.752 219.639 211.62 219.473 211.414 219.306 211.208 219.227 210.944 219.255 210.68 219.36 209.68 218.567 209.028 218.056 208.974 217.38 208.903 216.938 209.131 216.099 209.563 215.931 209.649 215.747 209.744 215.541 209.846 214.351 210.439 212.828 211.011 210.376 210.754 207.272 210.428 204.918 207.754 205.24 204.685 205.562 201.615 208.42 199.488 211.525 199.814 213.262 199.996 214.751 200.906 215.679 202.205 216 202.654 215.895 203.279 215.446 203.6 214.997 203.921 214.372 203.817 214.051 203.367 213.454 202.53 212.479 201.925 211.316 201.803z" fill="#7a8aa2"/><path d="M150.498 551.248C144.527 536.672 125.244 516.593 108.014 504.738 106.819 503.916 107.309 502.048 108.758 502.02 119.238 501.819 136.132 503.042 147.221 508.58 147.529 508.734 147.813 508.912 148.081 509.128 158.421 517.461 167.463 542.903 168.417 566.032 168.449 566.815 167.294 567.047 166.948 566.343 163.486 559.292 158.643 555.623 154.428 554.459 152.728 553.989 151.167 552.881 150.498 551.248z" fill="#00cab2"/><path fill-rule="evenodd" clip-rule="evenodd" d="M150.774 551.942C145.008 536.962 124.561 515.785 106.746 503.878 105.943 503.341 106.27 502.094 107.236 502.061 117.579 501.706 135.737 502.774 147.375 508.658 147.58 508.761 147.767 508.879 147.948 509.022 158.513 517.376 167.756 543.642 168.457 567.167 168.474 567.726 167.662 567.88 167.432 567.37 163.756 559.221 158.278 555.254 153.708 554.282 152.413 554.007 151.25 553.177 150.774 551.942zm-39.827-47.659C127.722 515.221 147.105 536.05 152.339 550.218 153.198 550.622 153.951 551.296 154.519 551.967 158.914 552.647 163.457 556.15 166.89 563.956H166.952C166.913 543.372 158.54 521.362 149.097 512.246 148.022 511.633 146.388 510.537 145.668 509.825 134.954 504.767 120.814 503.129 112.042 503.345 111.791 503.666 111.407 504.017 110.947 504.283zm35.26 25.649C146.055 529.726 145.903 529.522 145.752 529.318 142.522 524.961 139.657 521.095 142.335 519.118 144.806 517.295 149.345 519.986 153.149 525.326 156.725 530.345 158.635 538.409 154.952 538.409 152.177 538.409 149.831 535.066 147.573 531.847 147.115 531.194 146.661 530.546 146.207 529.932z" fill="#00ac98"/><path d="M200.615 509.919C199.192 514.2 199.142 519.756 199.517 528.454 199.563 529.529 201.228 529.868 201.765 528.936 211.736 511.65 241.66 489.17 252.562 481.586 253.845 480.693 253.853 478.776 252.644 477.785 248.044 474.012 243.372 468.636 240.606 463.363 239.961 462.133 238.394 461.648 237.276 462.471c-16.626 12.244-33.489 37.906-36.661 47.448z" fill="#00cab2"/><path fill-rule="evenodd" clip-rule="evenodd" d="M200.615 509.919C199.07 514.567 199.143 520.719 199.622 530.763 199.648 531.3 200.435 531.452 200.674 530.97 209.394 513.329 241.703 489.114 252.812 481.413 253.979 480.603 253.979 478.866 252.874 477.972 248.137 474.141 243.289 468.576 240.493 463.146 239.915 462.024 238.491 461.584 237.471 462.328c-16.688 12.185-33.672 38.012-36.856 47.591zm48.909-28.162C239.198 488.863 211.748 509.067 202.622 525.077 202.101 525.128 201.372 525.601 200.708 526.445 200.265 517.452 200.197 513.757 201.635 509.429 204.609 500.483 220.986 476.234 236.622 464.731 237.524 465.192 238.54 465.045 239.338 464.74 241.856 470.106 245.967 475.117 250.559 478.705 249.914 479.581 249.474 480.801 249.524 481.757zM218.227 489.646C222.979 484.129 228.191 483.949 229.645 485.377 231.098 486.806 229.773 491.453 225.356 495.415 221.437 498.93 216.484 501.446 214.5 500.417 212.813 499.541 214.923 493.482 218.227 489.646z" fill="#00ac98"/><path d="M177.679 474.338c-17.951-21.407-38.321-24.954-56.299-41.706C119.911 431.263 120.292 428.877 122.056 427.916c9.563-5.214 17.88-10.788 23.432-16.347C146.786 410.269 148.947 410.253 150.217 411.581c19.999 20.913 42.921 22.452 45.808 43.145C196.081 455.127 196.09 455.546 196.04 455.948 195.024 464.12 187.698 470.958 181.521 474.995 180.276 475.809 178.635 475.479 177.679 474.338z" fill="#00cab2"/><path fill-rule="evenodd" clip-rule="evenodd" d="M145.714 449.334C156.862 455.754 168.117 462.236 178.541 474.788 179.17 475.546 180.258 475.768 181.095 475.249 187.493 471.276 195.494 464.178 196.459 455.632 196.49 455.361 196.484 455.078 196.447 454.807 194.779 442.349 185.794 436.832 174.518 429.909 166.739 425.133 157.869 419.687 149.56 410.831 148.728 409.944 147.3 409.952 146.458 410.831 140.682 416.864 131.503 422.938 120.903 428.567 119.714 429.198 119.457 430.799 120.431 431.728 128.503 439.423 137.076 444.36 145.713 449.334H145.714zM177.95 471.45C168.103 459.64 157.302 453.489 146.573 447.38 138.774 442.939 131.013 438.52 123.684 431.963 124.108 431.387 124.303 430.603 124.03 429.812 133.183 424.917 140.796 419.725 146.065 414.476 147.725 415.228 149.299 414.546 149.907 413.58 149.971 413.478 150.008 413.375 150.02 413.273 157.785 421.652 166.242 427.006 173.707 431.732 183.276 437.79 191.217 442.817 193.985 451.861 192.696 453.942 193.594 456.602 194.182 457.712 192.354 464.056 186.428 468.762 181.332 471.929 180.276 471.104 179 470.92 177.95 471.45zm-7.423-24.227C167.266 449.807 160.914 449.942 155.599 446.585 151.388 443.926 151.387 439.273 155.599 436.874 159.688 434.545 165.936 435.663 168.878 437.811 172.761 440.644 172.804 445.418 170.527 447.223z" fill="#00ac98"/><path d="M210.711 417.73C218.256 420.436 230.515 424.976 238.992 427.964 240.384 428.455 241.942 428.143 242.942 427.058c13.797-14.962 19.171-48.783 32.046-67.147C276.394 357.906 275.273 354.899 272.847 354.573 264.225 353.412 251.901 351.768 241.002 351.085 240.066 351.027 239.137 351.294 238.425 351.904c-13.828 11.839-18.634 44.918-29.226 60.64C207.982 414.352 208.66 416.994 210.711 417.73z" fill="#00cab2"/><path fill-rule="evenodd" clip-rule="evenodd" d="M221.381 421.603 221.386 421.605C227.611 423.876 234.362 426.338 239.558 428.163 240.603 428.53 241.766 428.295 242.532 427.495 250.183 419.503 255.258 405.747 260.378 391.872 264.969 379.431 269.594 366.894 276.144 358.332 277.136 357.036 276.406 355.051 274.788 354.834 274.315 354.77 273.828 354.705 273.327 354.637 264.593 353.462 251.83 351.743 240.639 351.063 239.938 351.02 239.245 351.221 238.704 351.669 230.507 358.458 225.459 372.67 220.557 386.474 216.83 396.969 213.186 407.228 208.306 413.809 207.441 414.976 207.889 416.723 209.257 417.21 212.444 418.344 216.768 419.921 221.381 421.603zM211.683 415.55C214.524 416.568 218.341 417.986 222.446 419.511 227.762 421.486 233.562 423.641 238.351 425.336 239.272 424.182 240.845 423.946 242.26 424.162 249.072 416.558 253.603 403.986 258.174 391.306 262.479 379.362 266.819 367.323 273.132 359.251 272.574 358.5 272.226 357.385 272.544 356.492 271.95 356.414 271.332 356.331 270.691 356.245H270.689 270.688C263.118 355.235 252.403 353.806 242.171 353.121 240.957 353.686 239.532 353.921 238.764 353.921 238.707 353.921 238.66 353.915 238.624 353.903 231.725 360.098 227.304 373.006 222.949 385.721 219.325 396.303 215.747 406.75 210.825 413.081 211.547 413.681 211.751 414.708 211.683 415.55zm33.448-34.912C250.794 382.337 252.191 388.154 249.306 393.393 246.421 398.631 241.335 400.301 236.552 398.707 231.769 397.112 230.462 391.744 232.325 387.073 234.188 382.402 238.911 378.772 245.131 380.638z" fill="#00ac98"/><path d="M150.848 373.763C143.133 376.531 130.491 381.214 122.001 384.197 120.956 384.564 119.796 384.326 119.014 383.543c-15.043-15.069-26.0074-46.363-30.3148-69.934C88.3941 311.939 89.5609 310.378 91.2443 310.164 99.6899 309.088 113.808 307.328 124.374 306.439 125.994 306.303 127.406 307.5 127.612 309.113 130.478 331.557 140.813 354.757 152.175 368.721 153.551 370.412 152.899 373.027 150.848 373.763z" fill="#00cab2"/><path fill-rule="evenodd" clip-rule="evenodd" d="M140.173 377.639 140.174 377.638H140.176L140.18 377.636C145.544 375.68 150.516 373.866 153.765 372.726 154.451 372.486 154.665 371.621 154.182 371.079c-12.296-13.785-23.846-38.877-26.689-62.933C127.366 307.07 126.425 306.272 125.344 306.359 114.257 307.253 98.752 309.205 90.2176 310.294 89.0954 310.438 88.3204 311.479 88.5168 312.593c4.2131 23.901 15.4442 56.262 30.9262 71.374C119.971 384.482 120.74 384.638 121.436 384.394 126.702 382.552 133.72 379.992 140.173 377.639zM138.397 375.581H138.398C142.019 374.254 145.411 373.011 148.1 372.05 147.458 370.988 147.346 369.287 149.038 368.463 138.191 354.767 128.657 333.033 125.958 311.691 124.597 311.7 123.273 311.049 122.74 309.18 113.236 309.97 101.687 311.363 94.2105 312.305 94.2376 313.841 93.3809 315.114 91.8144 315.601 95.7195 336.903 105.452 364.942 118.822 379.372 120.983 378.447 123.156 378.82 124.573 380.599 128.91 379.058 133.835 377.253 138.397 375.581zm-27.793-25.647C107.719 344.695 109.117 338.878 114.78 337.179 121 335.312 125.723 338.943 127.585 343.614 129.448 348.285 128.142 353.653 123.359 355.248 118.576 356.842 113.489 355.172 110.604 349.934z" fill="#00ac98"/><circle cx="420" cy="80" r="7" fill="#ffc600"/><defs><filter id="filter0_d" x="60.1704" y=".468018" width="258.793" height="304.904" filterUnits="userSpaceOnUse" color-interpolation-filters="sRGB"><feFlood flood-opacity="0" result="BackgroundImageFix"/><feColorMatrix in="SourceAlpha" type="matrix" values="0 0 0 0 0 0 0 0 0 0 0 0 0 0 0 0 0 0 127 0"/><feOffset/><feGaussianBlur stdDeviation="25"/><feColorMatrix type="matrix" values="0 0 0 0 0 0 0 0 0 0 0 0 0 0 0 0 0 0 0.08 0"/><feBlend mode="normal" in2="BackgroundImageFix" result="effect1_dropShadow"/><feBlend mode="normal" in="SourceGraphic" in2="effect1_dropShadow" result="shape"/></filter></defs></svg>