<svg width="506" height="591" viewBox="0 0 506 591" fill="none" xmlns="http://www.w3.org/2000/svg"><path d="M155.128 116.96C156.321 79.2661 156.918 60.4194 168.999 49.0803c12.08-11.3391 30.927-10.7424 68.62-9.5489l139.93 4.4305c37.694 1.1934 56.54 1.7902 67.88 13.8708 11.339 12.0806 10.742 30.9274 9.548 68.6213L445.766 417.385C444.572 455.078 443.976 473.925 431.895 485.264 419.814 496.603 400.968 496.007 363.274 494.813L223.344 490.383C185.651 489.189 166.804 488.592 155.465 476.512 144.126 464.431 144.723 445.584 145.916 407.891L155.128 116.96z" fill="#ebfaf8"/><g filter="url(#filter0_d)"><path d="M252.971 107.029C260 114.059 260 125.373 260 148v64c0 22.627.0 33.941-7.029 40.971C245.941 260 234.627 260 212 260H149.36L119 283V258.692C113.851 257.709 110.046 255.987 107.029 252.971 1e2 245.941 1e2 234.627 1e2 212V148c0-22.627.0-33.941 7.029-40.971C114.059 1e2 125.373 1e2 148 1e2h64c22.627.0 33.941.0 40.971 7.029z" fill="#fff"/></g><path d="M172.271 191.621C172.182 193.276 173.538 194.621 175.195 194.621H181.02C182.677 194.621 183.993 193.272 184.182 191.626 184.799 186.25 187.232 182.301 192.33 179.174 198.864 175.267 202.948 169.941 202.948 161.809c0-12.003-9.34-19.532-22.905-19.532C168.595 142.277 159.135 148.122 157.436 159.59 157.189 161.259 158.566 162.661 160.254 162.661h6.702C168.557 162.661 169.825 161.382 170.263 159.842 171.616 155.082 175.731 152.789 179.972 152.789 185.405 152.789 189.773 156.411 189.773 161.986 189.773 166.958 186.471 170.367 182.174 173.066 174.974 177.54 172.69 183.818 172.271 191.621zM178.41 216.78C182.6 216.78 186.187 213.3 186.222 208.968 186.187 204.706 182.6 201.226 178.41 201.226 174.077 201.226 170.562 204.706 170.597 208.968 170.562 213.3 174.077 216.78 178.41 216.78z" fill="#447fd5"/><g filter="url(#filter1_d)"><path d="M379.971 228.029C387 235.059 387 246.373 387 269v80c0 22.627.0 33.941-7.029 40.971C376.954 392.987 373.149 394.709 368 395.692V420l-30.36-23H259c-22.627.0-33.941.0-40.971-7.029C211 382.941 211 371.627 211 349V269c0-22.627.0-33.941 7.029-40.971C225.059 221 236.373 221 259 221h80c22.627.0 33.941.0 40.971 7.029z" fill="#fff"/></g><path d="M251 269C251 266.172 251 264.757 251.879 263.879 252.757 263 254.172 263 257 263h84C343.828 263 345.243 263 346.121 263.879 347 264.757 347 266.172 347 269S347 273.243 346.121 274.121C345.243 275 343.828 275 341 275H257C254.172 275 252.757 275 251.879 274.121 251 273.243 251 271.828 251 269z" fill="#00cab2"/><path d="M251 329C251 326.172 251 324.757 251.879 323.879 252.757 323 254.172 323 257 323h76C335.828 323 337.243 323 338.121 323.879 339 324.757 339 326.172 339 329S339 333.243 338.121 334.121C337.243 335 335.828 335 333 335H257C254.172 335 252.757 335 251.879 334.121 251 333.243 251 331.828 251 329z" fill="#dee2e8"/><path d="M251 351C251 348.172 251 346.757 251.879 345.879 252.757 345 254.172 345 257 345h21C280.828 345 282.243 345 283.121 345.879 284 346.757 284 348.172 284 351S284 355.243 283.121 356.121C282.243 357 280.828 357 278 357H257C254.172 357 252.757 357 251.879 356.121 251 355.243 251 353.828 251 351z" fill="#dee2e8"/><path d="M251 307C251 304.172 251 302.757 251.879 301.879 252.757 301 254.172 301 257 301h50C309.828 301 311.243 301 312.121 301.879 313 302.757 313 304.172 313 307S313 311.243 312.121 312.121C311.243 313 309.828 313 307 313H257C254.172 313 252.757 313 251.879 312.121 251 311.243 251 309.828 251 307z" fill="#ffc600"/><defs><filter id="filter0_d" x="0" y="0" width="360" height="383" filterUnits="userSpaceOnUse" color-interpolation-filters="sRGB"><feFlood flood-opacity="0" result="BackgroundImageFix"/><feColorMatrix in="SourceAlpha" type="matrix" values="0 0 0 0 0 0 0 0 0 0 0 0 0 0 0 0 0 0 127 0"/><feOffset/><feGaussianBlur stdDeviation="50"/><feColorMatrix type="matrix" values="0 0 0 0 0 0 0 0 0 0 0 0 0 0 0 0 0 0 0.1 0"/><feBlend mode="normal" in2="BackgroundImageFix" result="effect1_dropShadow"/><feBlend mode="normal" in="SourceGraphic" in2="effect1_dropShadow" result="shape"/></filter><filter id="filter1_d" x="111" y="121" width="376" height="399" filterUnits="userSpaceOnUse" color-interpolation-filters="sRGB"><feFlood flood-opacity="0" result="BackgroundImageFix"/><feColorMatrix in="SourceAlpha" type="matrix" values="0 0 0 0 0 0 0 0 0 0 0 0 0 0 0 0 0 0 127 0"/><feOffset/><feGaussianBlur stdDeviation="50"/><feColorMatrix type="matrix" values="0 0 0 0 0 0 0 0 0 0 0 0 0 0 0 0 0 0 0.1 0"/><feBlend mode="normal" in2="BackgroundImageFix" result="effect1_dropShadow"/><feBlend mode="normal" in="SourceGraphic" in2="effect1_dropShadow" result="shape"/></filter></defs></svg>