<svg width="114" height="56" viewBox="0 0 114 56" fill="none" xmlns="http://www.w3.org/2000/svg"><path d="M37.7871 46.9054C37.0327 46.9054 36.295 46.8383 35.5573 46.6707l-.2682-.0503V41.792H35.6919C36.0981 42.9457 37.2338 44.4073 38.5415 44.4073 38.8433 44.4073 39.078 44.3067 39.2624 44.1056 40.0001 43.3511 39.9666 41.3225 39.9498 40.2328c0-.167699999999996.0-.318599999999996.0-.4527L39.9666 20.2653h5.499V39.2772C45.4824 43.8373 42.3808 46.9054 37.7871 46.9054z" fill="#2967c2"/><path d="M61.2081 36.6115C59.9172 38.3048 58.0562 39.1766 55.6756 39.1766 51.0819 39.1766 48.3491 36.7288 48.3491 32.6381V20.2653h5.499V32.8896c0 1.7939.9557 3.7051 3.0513 3.7051 2.1795.0 2.9675-2.5483 2.9675-4.2751V20.2653h5.499V39.6125l-4.1578-3.001z" fill="#2967c2"/><path d="M89.3237 39.076c-3.5543.0-5.5158-2.1963-5.5158-6.2032V22.4783H82.2319v-2.213H84.0258L89.2734 13.8777v6.3876H92.8276v2.213H89.2734c0 1.8107.0 3.6213.0167000000000002 5.432C89.2901 29.8383 89.3069 31.7663 89.3069 33.6775c0 1.3748.268200000000007 3.001 1.5256 3.001 1.1065.0 2.3703-1.6301 2.6371-3.2189H93.9844v3.8225C93.8671 37.5839 93.3976 37.9359 93.3641 37.9527 92.3079 38.7239 91.017 39.076 89.3237 39.076z" fill="#2967c2"/><path d="M74.0504 39.076c-2.146.0-4.8955-.586800000000004-6.857-1.4586L67.009 37.5336 66.791 32.3531 67.4281 33.1243C68.937 34.9517 71.3679 36.8965 73.6983 36.8965 74.8384 36.8965 75.9784 36.2762 75.9784 34.9014 75.9784 33.2919 74.3019 32.3363 72.3739 31.213 69.9597 29.8215 67.2101 28.2456 67.2101 24.8925c0-3.9734 3.80580000000001-5.3816 7.3768-5.3816 2.01179999999999.0 4.0069.352 5.5996.9724L80.3877 20.5671l.2179 5.2475L79.9685 25.0769C78.5435 23.4172 76.0455 21.6568 74.1845 21.6568c-.938800000000001.0-1.928.5533-1.928 1.6095C72.2565 24.574 73.8492 25.5296 75.7102 26.6194c2.498 1.4753 5.5996 3.3027 5.5996 6.8905C81.293 37.6342 77.3867 39.076 74.0504 39.076z" fill="#2967c2"/><path d="M42.6156 17.9349c-1.6933.0-3.0848-1.3412-3.0848-2.9842.0-1.6262 1.3747-2.9507 3.0848-2.9507 1.71.0 3.0848 1.3245 3.0848 2.9507s-1.4083 2.9842-3.0848 2.9842z" fill="#2967c2"/><path d="M28.6162 19.5276c-2.2633.0-5.4319.4862-7.5444 1.861L20.9377 21.4724l-.4024 5.2811.6707-.7545c1.7603-2.0118 3.8727-4.1578 6.5887-4.1578 1.5927.0 3.2693 1.0227 3.2693 2.934.0.989099999999997-.4192 1.643-1.3413 2.0453-.7544.3353-1.6262.5197-2.4645.7042-.586699999999997.1341-1.2071.2514-1.7939.4359-1.643.5197-5.4487 2.1292-5.4487 5.8343C20.0156 37.148 22.1113 39.0592 25.7494 39.0592c2.4645.0 4.5769-.9221 6.2534-2.71599999999999l4.6608 2.8334V25.8146C36.6803 21.7071 33.8805 19.5276 28.6162 19.5276zM31.131 34.3481c-.7377.7042-1.9783 1.4586-3.2022 1.4586-1.425.0-2.0621-1.2741-2.0621-2.4645.0-2.7495 2.6154-4.3422 5.3146-4.5434L31.1981 34.2978C31.1646 34.3146 31.1478 34.3481 31.131 34.3481z" fill="#00cab2"/></svg>